<svg width="992" height="146" viewBox="0 0 992 146" fill="none" xmlns="http://www.w3.org/2000/svg">
<g clip-path="url(#clip0_982_12107)">
<path d="M487.556 18.6305C487.519 17.1412 487.621 15.6439 487.837 14.1184C487.961 14.9144 488.102 15.7061 488.205 16.5064C488.564 19.287 488.882 22.0762 489.268 24.8481C489.614 27.3243 490.038 29.781 490.41 32.2485C490.63 33.6879 490.391 35.003 489.738 36.1902C489.53 36.5676 489.347 36.971 489.139 37.3513C488.94 37.712 488.723 38.0569 488.515 38.4068C488.45 38.3808 488.386 38.3555 488.321 38.3273C488.296 37.8313 488.261 37.3383 488.246 36.8423C488.118 32.9071 488.008 28.9727 487.863 25.0397C487.784 22.9004 487.608 20.7698 487.556 18.6312V18.6305Z" fill="#E84200"/>
<path d="M491.068 47.5722C490.195 47.0639 489.326 46.5462 488.45 46.051C488.095 45.8493 487.982 45.4437 488 45.0193C488.035 44.1416 488.132 43.2683 488.223 42.1592C489.596 43.7686 490.219 45.7727 491.213 47.4182C491.164 47.4695 491.116 47.5208 491.068 47.5729V47.5722Z" fill="#E84200"/>
<path d="M491.027 30.4832C490.21 29.2151 488.339 15.3787 488.204 9.60721C490.559 9.32814 492.858 9.05341 495.158 8.78085C495.502 9.2103 495.498 9.65638 495.432 10.2781C495.156 12.9083 494.17 15.2154 493.629 17.719C493.291 19.2806 493.004 20.8647 492.695 22.4393C492.217 24.8808 491.74 27.3245 491.258 29.7667C491.209 30.0046 491.111 30.228 491.028 30.4832H491.027Z" fill="#FF6500"/>
<path d="M493.305 48.0809C492.42 46.8728 491.482 45.7291 490.672 44.4422C489.997 43.3693 489.459 42.1359 488.896 40.9473C488.799 40.7434 488.799 40.3465 488.883 40.1231C489.196 39.2866 489.564 38.4863 489.908 37.6708C490.113 37.1856 490.291 36.6817 490.522 36.2205C490.632 35.9992 490.824 35.7267 490.998 35.7035C493.979 35.2958 496.96 34.8107 500.027 35.0962C499.754 36.7786 494.517 46.8367 493.305 48.0809Z" fill="#FFC24F"/>
<path d="M495.158 8.7808C492.858 9.05336 490.559 9.32809 488.204 9.60716C488.339 15.3787 490.21 29.2157 491.027 30.4831C491.109 30.2279 491.208 30.0045 491.256 29.7666C491.739 27.3251 492.216 24.8815 492.694 22.4393C493.003 20.8646 493.29 19.2813 493.628 17.719C494.169 15.2153 495.154 12.9083 495.431 10.2781C495.497 9.6556 495.502 9.20952 495.157 8.7808H495.158ZM489.154 8.86683C491.086 8.54944 492.956 8.24435 494.825 7.92913C494.982 7.90311 495.127 7.76791 495.284 7.73176C495.673 7.63705 495.82 7.31966 495.817 6.82225C495.814 5.96842 495.856 5.11024 495.809 4.26075C495.759 3.3404 495.865 2.35137 495.333 1.57851C493.943 2.34413 489.499 7.49607 489.154 8.86683ZM491.213 47.4181C490.22 45.7726 489.596 43.7685 488.223 42.1592C488.133 43.2682 488.036 44.1416 488 45.0193C487.982 45.4444 488.095 45.8492 488.451 46.051C489.326 46.5469 490.196 47.0638 491.068 47.5721C491.117 47.5208 491.165 47.4694 491.213 47.4174V47.4181ZM489.268 24.8489C488.883 22.0771 488.564 19.2878 488.205 16.5072C488.102 15.7069 487.962 14.9152 487.837 14.1192C487.62 15.6447 487.518 17.142 487.556 18.6313C487.608 20.7706 487.784 22.9012 487.863 25.0398C488.008 28.9728 488.118 32.9072 488.246 36.8424C488.262 37.3384 488.296 37.8314 488.321 38.3274C488.386 38.3556 488.45 38.3809 488.515 38.4069C488.724 38.057 488.94 37.7114 489.139 37.3514C489.347 36.9718 489.53 36.5684 489.738 36.1903C490.391 35.0039 490.63 33.6888 490.411 32.2486C490.037 29.7811 489.614 27.3244 489.268 24.8482V24.8489ZM495.917 47.4543C495.293 48.0507 494.732 48.765 494.159 49.454C493.672 50.044 493.41 50.1408 492.888 49.8169C491.058 48.6884 489.229 47.562 487.331 46.3908C487.356 45.9317 487.406 45.3865 487.414 44.8414C487.461 41.8888 487.539 38.9369 487.524 35.9864C487.511 33.2463 487.403 30.5091 487.322 27.7712C487.279 26.3209 487.195 24.8706 487.143 23.4203C487.066 21.2362 486.978 19.0521 486.936 16.8658C486.903 15.1083 486.867 13.3428 486.959 11.5939C487.011 10.6388 486.88 9.83056 486.431 8.86249C486.935 8.58342 487.339 8.34339 487.75 8.13301C488.666 7.66307 489.42 6.88226 490.154 6.03276C491.732 4.20508 493.327 2.4027 494.929 0.613336C495.668 -0.21086 495.699 -0.208693 496.423 0.645864C497.575 2.00434 498.736 3.35124 499.82 4.8037C500.166 5.26496 500.424 6.02264 500.465 6.6726C500.605 8.94708 500.957 11.1464 501.47 13.3196C501.775 14.6174 501.956 15.9693 502.218 17.2866C502.736 19.885 503.306 22.4638 503.79 25.0709C504.166 27.1068 504.439 29.1752 504.761 31.2285C505.03 32.9376 505.327 34.6388 505.558 36.3595C505.607 36.7159 505.483 37.4042 505.326 37.4707C504.418 37.8546 504.056 38.9296 503.597 39.8138C502.833 41.2902 501.672 42.0514 500.643 43.047C499.087 44.5508 497.476 45.9562 495.918 47.4543H495.917ZM490.672 44.4416C491.481 45.7292 492.42 46.8723 493.305 48.0803C494.517 46.8361 499.754 36.7773 500.027 35.0957C496.959 34.8101 493.978 35.2952 490.998 35.703C490.823 35.7269 490.631 35.9994 490.522 36.2199C490.291 36.6812 490.113 37.1851 489.908 37.6702C489.564 38.4857 489.195 39.2861 488.882 40.1225C488.798 40.3459 488.798 40.7429 488.895 40.9467C489.459 42.1353 489.997 43.3687 490.672 44.4416ZM491.617 33.396C491.538 33.8355 491.513 34.372 491.966 34.372C492.987 34.372 494.006 34.2672 495.027 34.192C495.702 34.1428 496.378 34.0481 497.053 34.0163C498.14 33.9671 499.226 33.9519 500.448 33.9194C500.248 26.0946 499.434 18.439 499.641 10.7278C499.669 9.59053 499.526 8.44461 499.445 7.01818C499.07 7.40425 498.873 7.61246 498.671 7.81418C497.83 8.65283 497.384 10.0735 496.324 10.5991C496.206 10.6591 496.128 10.9338 496.073 11.129C495.497 13.2126 494.868 15.2767 494.379 17.3943C493.985 19.1042 493.755 20.8827 493.464 22.6337C493.06 25.0564 492.675 27.4806 492.264 29.9011C492.067 31.0723 491.826 32.2291 491.616 33.396H491.617ZM496.426 2.18002V7.43027C497.396 7.34424 498.139 6.70513 498.914 6.22652C499.286 5.99661 499.293 5.33364 498.975 4.89624C498.484 4.22026 497.984 3.55295 497.447 2.94131C497.177 2.63694 496.821 2.46704 496.426 2.1793V2.18002ZM496.438 8.37448C496.948 9.1365 497.179 9.01359 497.62 7.75417C497.189 7.98191 496.825 8.1706 496.438 8.37448ZM495.556 46.5556C496.32 46.004 497.042 45.4053 497.751 44.7814C498.9 43.7685 500.053 42.7643 501.179 41.7088C501.969 40.9663 501.997 40.7414 501.638 39.5608C501.365 38.6621 501.069 37.7758 500.745 36.7629C498.714 39.8269 497.204 43.2487 495.556 46.5549V46.5556ZM500.427 12.3386C500.385 13.6537 500.278 14.9753 500.315 16.2882C500.396 19.0666 500.514 21.8471 500.688 24.619C500.824 26.7497 501.086 28.8651 501.261 30.9914C501.348 32.0426 501.362 33.1046 501.416 34.2932C503.144 36.2973 503.32 36.4108 504.585 36.2264C504.489 34.8788 504.412 33.5232 504.288 32.1734C503.943 28.4226 503.103 24.8186 502.41 21.169C502.135 19.7209 501.872 18.2662 501.575 16.8239C501.261 15.3071 500.914 13.8011 500.583 12.2901C500.531 12.3053 500.479 12.3227 500.428 12.3371L500.427 12.3386ZM501.459 36.1997C501.574 37.65 501.905 38.7829 502.484 39.978C502.893 39.1538 503.239 38.4568 503.589 37.7534C502.864 37.2234 502.21 36.747 501.459 36.1997Z" fill="#DB3500"/>
<path d="M491.966 34.3726C491.513 34.3726 491.538 33.8361 491.617 33.3965C491.827 32.2297 492.068 31.0729 492.265 29.9017C492.675 27.4811 493.061 25.057 493.465 22.6343C493.756 20.8833 493.985 19.1047 494.379 17.3949C494.869 15.2773 495.498 13.2132 496.074 11.1296C496.129 10.9344 496.206 10.6597 496.324 10.5996C497.384 10.074 497.83 8.65339 498.672 7.81474C498.874 7.61303 499.071 7.40481 499.446 7.01874C499.526 8.4459 499.671 9.59109 499.641 10.7283C499.434 18.4396 500.249 26.0945 500.449 33.92C499.226 33.9525 498.14 33.967 497.053 34.0169C496.378 34.0494 495.703 34.1434 495.028 34.1925C494.007 34.2677 492.988 34.3726 491.966 34.3726Z" fill="#FFA02D"/>
<path d="M489.154 8.86683C489.499 7.49607 493.943 2.34414 495.333 1.57851C495.866 2.35064 495.759 3.33967 495.809 4.26075C495.856 5.11024 495.814 5.96842 495.817 6.82226C495.82 7.31966 495.673 7.63777 495.284 7.73176C495.127 7.76791 494.982 7.90311 494.825 7.92913C492.956 8.24435 491.086 8.54944 489.154 8.86683Z" fill="#E84200"/>
<path d="M496.426 7.43108V2.18082C496.821 2.46857 497.178 2.63774 497.448 2.94284C497.984 3.55448 498.485 4.22178 498.976 4.89777C499.294 5.33517 499.286 5.99814 498.914 6.22805C498.139 6.70666 497.395 7.34577 496.426 7.4318V7.43108Z" fill="#FF6500"/>
<path d="M497.62 7.75461C497.179 9.01403 496.948 9.13622 496.438 8.37492C496.825 8.17104 497.189 7.98235 497.62 7.75461Z" fill="#FF820F"/>
<path d="M497.751 44.7808C497.042 45.4055 496.32 46.0041 495.556 46.555C497.204 43.2489 498.714 39.8263 500.745 36.763C501.07 37.7759 501.365 38.6616 501.638 39.5609C501.997 40.7408 501.969 40.9664 501.179 41.7089C500.053 42.7645 498.9 43.7687 497.751 44.7816V44.7808Z" fill="#FF820F"/>
<path d="M500.314 16.2883C500.277 14.9753 500.384 13.6537 500.426 12.3387C500.478 12.3235 500.529 12.3061 500.581 12.2917C500.912 13.802 501.259 15.3086 501.573 16.8254C501.87 18.2671 502.134 19.7217 502.408 21.1705C503.101 24.8201 503.941 28.4249 504.287 32.175C504.411 33.5248 504.487 34.8803 504.584 36.228C503.319 36.4123 503.143 36.2988 501.414 34.2947C501.361 33.1062 501.346 32.0441 501.259 30.9929C501.084 28.8666 500.823 26.7512 500.687 24.6206C500.513 21.8487 500.394 19.0681 500.313 16.2897L500.314 16.2883Z" fill="#FF820F"/>
<path d="M502.484 39.9772C501.904 38.7821 501.573 37.6492 501.458 36.1989C502.209 36.7462 502.864 37.2226 503.589 37.7526C503.238 38.456 502.893 39.1537 502.484 39.9772Z" fill="#E84200"/>
<path d="M281.211 131V127.25H286.111V99.75H281.211V96H294.861C299.461 96 303.011 97.1667 305.511 99.5C308.045 101.833 309.311 105.417 309.311 110.25V116.75C309.311 121.617 308.045 125.217 305.511 127.55C303.011 129.85 299.461 131 294.861 131H281.211ZM290.311 127.2H294.861C298.261 127.2 300.828 126.367 302.561 124.7C304.295 123.033 305.161 120.45 305.161 116.95V110.1C305.161 106.533 304.295 103.933 302.561 102.3C300.828 100.667 298.261 99.85 294.861 99.85H290.311V127.2ZM323.666 131.7C321.966 131.7 320.416 131.4 319.016 130.8C317.616 130.2 316.516 129.333 315.716 128.2C314.916 127.067 314.516 125.683 314.516 124.05C314.516 122.383 314.916 121.017 315.716 119.95C316.516 118.85 317.616 118.033 319.016 117.5C320.416 116.933 321.982 116.65 323.716 116.65H331.966V114.85C331.966 113.117 331.449 111.75 330.416 110.75C329.416 109.75 327.916 109.25 325.916 109.25C323.949 109.25 322.416 109.733 321.316 110.7C320.216 111.633 319.466 112.9 319.066 114.5L315.366 113.3C315.766 111.933 316.399 110.7 317.266 109.6C318.132 108.467 319.282 107.567 320.716 106.9C322.182 106.2 323.932 105.85 325.966 105.85C329.099 105.85 331.532 106.667 333.266 108.3C334.999 109.9 335.866 112.167 335.866 115.1V126.15C335.866 127.15 336.332 127.65 337.266 127.65H339.516V131H336.066C334.966 131 334.082 130.7 333.416 130.1C332.749 129.467 332.416 128.633 332.416 127.6V127.35H331.816C331.449 127.983 330.949 128.65 330.316 129.35C329.716 130.017 328.882 130.567 327.816 131C326.749 131.467 325.366 131.7 323.666 131.7ZM324.116 128.3C326.449 128.3 328.332 127.617 329.766 126.25C331.232 124.85 331.966 122.9 331.966 120.4V119.85H323.866C322.299 119.85 320.999 120.2 319.966 120.9C318.966 121.567 318.466 122.583 318.466 123.95C318.466 125.317 318.982 126.383 320.016 127.15C321.082 127.917 322.449 128.3 324.116 128.3ZM347.241 141V137.5H361.241C362.207 137.5 362.691 137 362.691 136V127.1H361.991C361.657 127.8 361.141 128.5 360.441 129.2C359.774 129.867 358.891 130.417 357.791 130.85C356.691 131.25 355.307 131.45 353.641 131.45C351.874 131.45 350.241 131.067 348.741 130.3C347.274 129.533 346.107 128.4 345.241 126.9C344.407 125.4 343.991 123.567 343.991 121.4V106.55H347.941V121.1C347.941 123.5 348.541 125.25 349.741 126.35C350.974 127.45 352.624 128 354.691 128C357.024 128 358.941 127.233 360.441 125.7C361.941 124.167 362.691 121.883 362.691 118.85V106.55H366.641V136.7C366.641 138.033 366.257 139.083 365.491 139.85C364.757 140.617 363.674 141 362.241 141H347.241ZM374.906 131V96H378.856V131H374.906ZM387.162 131V106.55H391.112V131H387.162ZM389.162 102.75C388.295 102.75 387.562 102.467 386.962 101.9C386.395 101.333 386.112 100.617 386.112 99.75C386.112 98.85 386.395 98.1167 386.962 97.55C387.562 96.9833 388.295 96.7 389.162 96.7C390.028 96.7 390.745 96.9833 391.312 97.55C391.878 98.1167 392.162 98.85 392.162 99.75C392.162 100.617 391.878 101.333 391.312 101.9C390.745 102.467 390.028 102.75 389.162 102.75ZM398.218 118.9V118.2C398.218 115.633 398.734 113.433 399.768 111.6C400.801 109.767 402.201 108.35 403.968 107.35C405.734 106.35 407.668 105.85 409.768 105.85C412.334 105.85 414.301 106.35 415.668 107.35C417.068 108.317 418.101 109.4 418.768 110.6H419.468V106.55H423.218V136.7C423.218 138.033 422.851 139.083 422.118 139.85C421.384 140.617 420.318 141 418.918 141H402.318V137.5H417.868C418.868 137.5 419.368 137 419.368 136V126.7H418.668C418.268 127.433 417.701 128.15 416.968 128.85C416.234 129.55 415.284 130.133 414.118 130.6C412.951 131.033 411.501 131.25 409.768 131.25C407.668 131.25 405.734 130.75 403.968 129.75C402.201 128.75 400.801 127.333 399.768 125.5C398.734 123.633 398.218 121.433 398.218 118.9ZM410.818 127.75C413.351 127.75 415.401 126.95 416.968 125.35C418.568 123.75 419.368 121.55 419.368 118.75V118.35C419.368 115.517 418.568 113.317 416.968 111.75C415.401 110.15 413.351 109.35 410.818 109.35C408.318 109.35 406.251 110.15 404.618 111.75C403.018 113.317 402.218 115.517 402.218 118.35V118.75C402.218 121.55 403.018 123.75 404.618 125.35C406.251 126.95 408.318 127.75 410.818 127.75ZM431.498 131V96H435.448V110.45H436.148C436.481 109.717 436.981 109.033 437.648 108.4C438.348 107.733 439.231 107.183 440.298 106.75C441.398 106.317 442.781 106.1 444.448 106.1C446.281 106.1 447.914 106.5 449.348 107.3C450.814 108.067 451.981 109.2 452.848 110.7C453.714 112.167 454.148 114 454.148 116.2V131H450.198V116.5C450.198 114.067 449.581 112.3 448.348 111.2C447.148 110.1 445.514 109.55 443.448 109.55C441.081 109.55 439.148 110.317 437.648 111.85C436.181 113.383 435.448 115.667 435.448 118.7V131H431.498ZM470.478 131C469.078 131 467.995 130.617 467.228 129.85C466.495 129.083 466.128 128.033 466.128 126.7V110H458.778V106.55H466.128V97.85H470.078V106.55H478.078V110H470.078V126.1C470.078 127.1 470.561 127.6 471.528 127.6H476.978V131H470.478ZM497.168 131V96H510.568C512.668 96 514.535 96.4167 516.168 97.25C517.835 98.05 519.151 99.2 520.118 100.7C521.085 102.2 521.568 104.017 521.568 106.15V106.8C521.568 108.9 521.068 110.717 520.068 112.25C519.101 113.75 517.785 114.9 516.118 115.7C514.451 116.5 512.601 116.9 510.568 116.9H501.368V131H497.168ZM501.368 113.1H510.118C512.351 113.1 514.118 112.55 515.418 111.45C516.718 110.317 517.368 108.733 517.368 106.7V106.2C517.368 104.167 516.718 102.6 515.418 101.5C514.151 100.367 512.385 99.8 510.118 99.8H501.368V113.1ZM527.347 131V106.55H531.197V109.55H531.897C532.331 108.483 532.997 107.7 533.897 107.2C534.797 106.7 535.981 106.45 537.447 106.45H540.347V110.05H537.197C535.431 110.05 533.997 110.55 532.897 111.55C531.831 112.517 531.297 114.033 531.297 116.1V131H527.347ZM556.616 131.7C554.149 131.7 551.966 131.183 550.066 130.15C548.199 129.117 546.733 127.667 545.666 125.8C544.633 123.9 544.116 121.667 544.116 119.1V118.45C544.116 115.917 544.633 113.7 545.666 111.8C546.733 109.9 548.199 108.433 550.066 107.4C551.966 106.367 554.149 105.85 556.616 105.85C559.083 105.85 561.249 106.367 563.116 107.4C565.016 108.433 566.483 109.9 567.516 111.8C568.583 113.7 569.116 115.917 569.116 118.45V119.1C569.116 121.667 568.583 123.9 567.516 125.8C566.483 127.667 565.016 129.117 563.116 130.15C561.249 131.183 559.083 131.7 556.616 131.7ZM556.616 128.15C559.216 128.15 561.283 127.333 562.816 125.7C564.383 124.033 565.166 121.8 565.166 119V118.55C565.166 115.75 564.383 113.533 562.816 111.9C561.283 110.233 559.216 109.4 556.616 109.4C554.049 109.4 551.983 110.233 550.416 111.9C548.849 113.533 548.066 115.75 548.066 118.55V119C548.066 121.8 548.849 124.033 550.416 125.7C551.983 127.333 554.049 128.15 556.616 128.15ZM586.574 131.7C584.474 131.7 582.541 131.2 580.774 130.2C579.008 129.2 577.608 127.75 576.574 125.85C575.541 123.95 575.024 121.7 575.024 119.1V118.45C575.024 115.85 575.541 113.617 576.574 111.75C577.608 109.85 578.991 108.4 580.724 107.4C582.491 106.367 584.441 105.85 586.574 105.85C588.274 105.85 589.708 106.083 590.874 106.55C592.074 106.983 593.041 107.55 593.774 108.25C594.508 108.917 595.074 109.633 595.474 110.4H596.174V96H600.124V131H596.274V126.95H595.574C594.908 128.183 593.874 129.283 592.474 130.25C591.074 131.217 589.108 131.7 586.574 131.7ZM587.624 128.2C590.158 128.2 592.208 127.4 593.774 125.8C595.374 124.167 596.174 121.9 596.174 119V118.55C596.174 115.65 595.374 113.4 593.774 111.8C592.208 110.167 590.158 109.35 587.624 109.35C585.124 109.35 583.058 110.167 581.424 111.8C579.824 113.4 579.024 115.65 579.024 118.55V119C579.024 121.9 579.824 124.167 581.424 125.8C583.058 127.4 585.124 128.2 587.624 128.2ZM617.752 131.45C615.985 131.45 614.352 131.067 612.852 130.3C611.385 129.533 610.219 128.4 609.352 126.9C608.519 125.367 608.102 123.517 608.102 121.35V106.55H612.052V121.05C612.052 123.483 612.652 125.25 613.852 126.35C615.085 127.45 616.735 128 618.802 128C621.135 128 623.052 127.233 624.552 125.7C626.052 124.167 626.802 121.883 626.802 118.85V106.55H630.752V131H626.902V126.85H626.202C625.669 128.017 624.752 129.083 623.452 130.05C622.152 130.983 620.252 131.45 617.752 131.45ZM650.267 131.7C647.901 131.7 645.767 131.2 643.867 130.2C642.001 129.167 640.517 127.7 639.417 125.8C638.351 123.9 637.817 121.65 637.817 119.05V118.5C637.817 115.867 638.351 113.617 639.417 111.75C640.517 109.85 642.001 108.4 643.867 107.4C645.767 106.367 647.901 105.85 650.267 105.85C652.601 105.85 654.584 106.283 656.217 107.15C657.884 108.017 659.184 109.167 660.117 110.6C661.084 112.033 661.701 113.567 661.967 115.2L658.117 116C657.951 114.8 657.551 113.7 656.917 112.7C656.317 111.7 655.467 110.9 654.367 110.3C653.267 109.7 651.917 109.4 650.317 109.4C648.684 109.4 647.217 109.767 645.917 110.5C644.651 111.233 643.634 112.283 642.867 113.65C642.134 115.017 641.767 116.65 641.767 118.55V119C641.767 120.9 642.134 122.533 642.867 123.9C643.634 125.267 644.651 126.317 645.917 127.05C647.217 127.783 648.684 128.15 650.317 128.15C652.751 128.15 654.601 127.517 655.867 126.25C657.167 124.983 657.967 123.417 658.267 121.55L662.167 122.4C661.801 124 661.134 125.517 660.167 126.95C659.201 128.383 657.884 129.533 656.217 130.4C654.584 131.267 652.601 131.7 650.267 131.7ZM676.923 131C675.523 131 674.44 130.617 673.673 129.85C672.94 129.083 672.573 128.033 672.573 126.7V110H665.223V106.55H672.573V97.85H676.523V106.55H684.523V110H676.523V126.1C676.523 127.1 677.007 127.6 677.973 127.6H683.423V131H676.923ZM700.771 131.7C697.738 131.7 695.171 131 693.071 129.6C691.005 128.2 689.755 125.983 689.321 122.95L693.071 122.1C693.338 123.7 693.838 124.967 694.571 125.9C695.305 126.8 696.205 127.45 697.271 127.85C698.371 128.217 699.538 128.4 700.771 128.4C702.605 128.4 704.055 128.033 705.121 127.3C706.188 126.567 706.721 125.583 706.721 124.35C706.721 123.083 706.205 122.2 705.171 121.7C704.171 121.167 702.788 120.733 701.021 120.4L698.971 120.05C697.405 119.783 695.971 119.367 694.671 118.8C693.371 118.233 692.338 117.467 691.571 116.5C690.805 115.533 690.421 114.317 690.421 112.85C690.421 110.65 691.271 108.933 692.971 107.7C694.671 106.467 696.921 105.85 699.721 105.85C702.488 105.85 704.721 106.483 706.421 107.75C708.155 108.983 709.271 110.733 709.771 113L706.071 113.95C705.771 112.183 705.055 110.95 703.921 110.25C702.788 109.517 701.388 109.15 699.721 109.15C698.055 109.15 696.738 109.467 695.771 110.1C694.805 110.7 694.321 111.6 694.321 112.8C694.321 113.967 694.771 114.833 695.671 115.4C696.605 115.933 697.838 116.333 699.371 116.6L701.421 116.95C703.155 117.25 704.705 117.667 706.071 118.2C707.471 118.7 708.571 119.433 709.371 120.4C710.205 121.367 710.621 122.633 710.621 124.2C710.621 126.6 709.721 128.45 707.921 129.75C706.155 131.05 703.771 131.7 700.771 131.7Z" fill="white"/>
</g>
<defs>
<clipPath id="clip0_982_12107">
<rect width="992" height="146" fill="white"/>
</clipPath>
</defs>
</svg>
