<svg width="61" height="61" viewBox="0 0 61 61" fill="none" xmlns="http://www.w3.org/2000/svg">
<path d="M29.7295 57.0879V58.0879C29.7295 58.364 29.5056 58.5879 29.2295 58.5879H3.22949C2.95335 58.5879 2.72949 58.364 2.72949 58.0879V57.0879C2.72949 55.1549 4.2965 53.5879 6.22949 53.5879H26.2295C28.1625 53.5879 29.7295 55.1549 29.7295 57.0879Z" fill="#9E9E9E" stroke="#DB3500"/>
<path d="M27.7295 57.0879C27.7295 55.6743 27.0777 54.4129 26.0582 53.5879H26.2295C28.1625 53.5879 29.7295 55.1549 29.7295 57.0879V58.0879C29.7295 58.364 29.5056 58.5879 29.2295 58.5879H27.6441C27.6994 58.4315 27.7295 58.2632 27.7295 58.0879V57.0879Z" fill="#707070" stroke="#DB3500"/>
<path d="M23.7295 34.0875L23.7295 34.0915C23.7313 34.3468 23.7189 34.602 23.6922 34.8559L23.692 34.8581C23.2926 38.8384 19.8397 41.8047 15.8447 41.5994C11.8497 41.3942 8.71889 38.0896 8.72954 34.0894L8.72953 34.0864C8.72626 33.0616 8.93677 32.0473 9.3476 31.1085L9.38953 31.0126V31.0035C10.8301 27.7992 14.3079 26.0198 17.7565 26.737C21.2385 27.4611 23.7331 30.5311 23.7295 34.0875Z" fill="#FF9801" stroke="#DB3500"/>
<path d="M23.6922 34.8558L23.6922 34.8562C23.3353 38.2891 20.7022 40.9821 17.3857 41.4983C19.7504 40.1756 21.3973 37.7639 21.6868 34.9595C21.7172 34.6694 21.7314 34.3778 21.7295 34.0861C21.7281 30.9472 20.0106 28.1483 17.3912 26.6773C20.9817 27.2356 23.7295 30.3409 23.7295 34.0879L23.7295 34.0913C23.7313 34.3467 23.7188 34.6019 23.6922 34.8558Z" fill="#F57C00" stroke="#DB3500"/>
<path d="M21.2295 12.5879H21.229C21.0424 12.5881 20.856 12.579 20.6704 12.5605C19.1245 12.3982 17.7187 11.5912 16.799 10.3381C15.8815 9.0881 15.5325 7.50992 15.837 5.98997L15.9803 5.43587C16.7058 3.14774 18.8285 1.59114 21.2299 1.58789C21.7432 1.58785 22.254 1.65839 22.7481 1.79751L22.871 1.83531C25.165 2.55766 26.7264 4.68337 26.7295 7.08854C26.7292 10.1258 24.2669 12.5879 21.2295 12.5879Z" fill="#FF9801" stroke="#DB3500"/>
<path d="M21.7231 12.5669C23.5161 11.4254 24.6794 9.44516 24.7311 7.23486C24.7852 4.92751 23.6175 2.81388 21.7432 1.61143C22.0828 1.64267 22.4192 1.70489 22.7481 1.79751L22.8712 1.83539C22.8714 1.83545 22.8716 1.83552 22.8718 1.83558C25.4698 2.64278 27.0874 5.22815 26.677 7.9176C26.2915 10.4433 24.2264 12.3479 21.7231 12.5669Z" fill="#F57C00" stroke="#DB3500"/>
<path d="M51.7593 27.5822C50.0631 27.3396 48.7593 25.8809 48.7593 24.1177V22.1177V22.1175C48.759 21.3803 48.4333 20.6808 47.8694 20.2061C47.3054 19.7313 46.5607 19.5296 45.8343 19.655L45.827 19.6562L45.8199 19.6577C44.5961 19.9059 43.7277 20.9968 43.7593 22.2443V24.1177C43.7593 25.8809 42.4554 27.3396 40.7593 27.5822V22.1177C40.7593 19.0801 43.2217 16.6177 46.2593 16.6177C49.2968 16.6177 51.7593 19.0801 51.7593 22.1177V27.5822Z" fill="#9E9E9E" stroke="#DB3500"/>
<path d="M51.7593 27.5803C50.9993 27.4678 50.2944 27.1054 49.7593 26.5458L49.7593 22.1177L49.7593 22.1169C49.7557 19.8504 48.58 17.805 46.7427 16.6386C49.5538 16.8834 51.7593 19.243 51.7593 22.1177V27.5803Z" fill="#707070" stroke="#DB3500"/>
<path d="M49.7593 12.1177V12.1178C49.7593 13.0461 49.3905 13.9363 48.7342 14.5927C48.0778 15.2491 47.1875 15.6178 46.2593 15.6178C46.1611 15.6178 46.0888 15.6174 46.0212 15.6114C45.9783 15.6051 45.9392 15.6019 45.9152 15.5999L45.9108 15.5995C45.8775 15.5968 45.8679 15.5957 45.8615 15.5946L45.851 15.5929L45.8404 15.5916C44.006 15.3656 42.6634 13.7523 42.7745 11.9074C42.8856 10.0624 44.4121 8.62191 46.2604 8.61781L46.2633 8.61778C46.5262 8.61568 46.7884 8.64401 47.0447 8.70221L47.306 8.77688C48.7659 9.2344 49.7597 10.5873 49.7593 12.1177Z" fill="#FF9801" stroke="#DB3500"/>
<path d="M45.9596 16.1108C46.0596 16.1208 46.1596 16.1208 46.2596 16.1208L47.4496 8.2978L47.4487 8.3008L47.4389 8.33526L47.3122 8.77856L47.3021 8.77567L47.1861 8.74253M45.9596 16.1108L46.0339 15.6649C46.0534 15.6497 46.0728 15.6343 46.0921 15.6188M45.9596 16.1108C45.9296 16.1058 45.8996 16.1033 45.8696 16.1008C45.8396 16.0983 45.8096 16.0958 45.7796 16.0908C45.677 16.0769 45.5751 16.0589 45.4742 16.037C45.5917 15.971 45.7056 15.9001 45.8157 15.8245C45.8188 15.8224 45.8219 15.8203 45.825 15.8181C45.885 15.7767 45.9439 15.7339 46.0017 15.6898L45.9596 16.1108ZM46.0921 15.6188C46.1406 15.6206 46.1944 15.6208 46.2596 15.6208H46.26C47.9909 15.6224 49.4629 14.3585 49.7233 12.6473C49.9837 10.9362 48.9542 9.29168 47.3013 8.7783L47.1861 8.74253M46.0921 15.6188C47.1366 14.7768 47.7696 13.4922 47.7636 12.1048C47.7577 10.7269 47.1222 9.45574 46.0831 8.62249M46.0921 15.6188C46.0675 15.6178 46.0442 15.6165 46.0215 15.6144C45.9785 15.6081 45.9394 15.6049 45.9155 15.6029L45.9111 15.6025C45.8778 15.5998 45.8682 15.5987 45.8618 15.5976L45.8543 15.5964L45.8469 15.5954C45.6941 15.5746 45.5431 15.5437 45.3948 15.5028C46.5492 14.7791 47.2696 13.5014 47.2636 12.107C47.2576 10.7163 46.53 9.44798 45.3748 8.73321C45.6062 8.6721 45.8436 8.63494 46.0831 8.62249M47.1861 8.74253L47.0576 8.70263L47.0571 8.70498C47.053 8.70405 47.049 8.70313 47.045 8.70221M47.1861 8.74253L47.045 8.70221M47.045 8.70221L47.0322 8.69856L47.0332 8.69505L46.2596 8.1178C45.9886 8.11809 45.7191 8.14603 45.4551 8.2008C45.6777 8.32438 45.8876 8.46568 46.0831 8.62249M47.045 8.70221C46.7886 8.64401 46.5264 8.61568 46.2636 8.61778L46.2601 8.61781C46.201 8.61788 46.142 8.61943 46.0831 8.62249" fill="#F57C00" stroke="#DB3500"/>
<path d="M22.7295 7.08789C22.7295 7.91632 22.0579 8.58789 21.2295 8.58789C20.4011 8.58789 19.7295 7.91632 19.7295 7.08789C19.7295 6.25946 20.4011 5.58789 21.2295 5.58789C22.0579 5.58789 22.7295 6.25946 22.7295 7.08789Z" fill="#9E9E9E" stroke="#DB3500"/>
<path d="M19.7295 34.0879C19.7295 36.0209 18.1625 37.5879 16.2295 37.5879C14.2965 37.5879 12.7295 36.0209 12.7295 34.0879C12.7295 32.1549 14.2965 30.5879 16.2295 30.5879C18.1625 30.5879 19.7295 32.1549 19.7295 34.0879Z" fill="#9E9E9E" stroke="#DB3500"/>
<path d="M16.2295 42.5864C18.2571 42.5864 20.2035 41.8623 21.7295 40.5672V52.5879H10.7295V40.5672C12.2555 41.8623 14.2019 42.5864 16.2295 42.5864Z" fill="#FF5722" stroke="#DB3500"/>
<path d="M21.7295 52.5879H19.7295V41.8244C20.453 41.4993 21.126 41.0748 21.7295 40.5644V52.5879Z" fill="#D84315" stroke="#DB3500"/>
<path d="M20.7996 13.6082V13.6079C20.7821 13.6078 20.7647 13.6066 20.7474 13.6044C20.7222 13.6011 20.6975 13.5956 20.6733 13.5879L20.6217 13.5879L20.6239 13.5879L20.629 13.5878L20.6429 13.5874C20.6459 13.5872 20.6544 13.5869 20.6666 13.5857C20.6508 13.5804 20.6353 13.5741 20.6202 13.567C20.6203 13.5879 20.6205 13.5879 20.6207 13.5879L20.6197 13.5879L20.6197 13.5667C20.6101 13.5622 20.6006 13.5572 20.5914 13.5519L20.6197 13.5024L20.6196 13.088L20.6196 13.0579C20.6196 13.0677 20.6196 13.0777 20.6196 13.0879H20.6165L20.5675 13.5552C20.51 13.5492 20.4525 13.5424 20.3953 13.5348M20.7996 13.6082L20.7808 13.6087L20.7473 13.6052C20.6521 13.5952 20.6045 13.5899 20.58 13.587C20.5699 13.5858 20.557 13.5843 20.545 13.5824C20.5417 13.5819 20.5342 13.5807 20.525 13.5789C20.5204 13.5781 20.5119 13.5764 20.5012 13.5738L20.5008 13.5737C20.4943 13.5721 20.4669 13.5654 20.4339 13.5522C20.4278 13.5498 20.4138 13.5442 20.3953 13.5348M20.7996 13.6082V13.6179C20.79 13.6179 20.7857 13.6174 20.7898 13.6177C20.7935 13.6181 20.8004 13.6188 20.8126 13.6203L20.857 13.6262C20.8746 13.6285 20.8952 13.6313 20.9176 13.6341L20.9485 13.6379H20.9683L20.9874 13.6411L21.0416 13.6502L21.0595 13.6492L21.1014 13.661L21.1696 13.658L21.213 13.6679H21.2438C21.2731 13.6717 21.2983 13.674 21.3158 13.6756L21.3194 13.6759C21.3486 13.6785 21.3584 13.6796 21.3674 13.6811L21.4083 13.6879H21.4216C21.4381 13.6903 21.4718 13.6951 21.5131 13.697L21.7457 13.7239C21.8907 13.7445 22.0548 13.7649 22.2473 13.7852L22.2612 13.7866L22.2751 13.7873C22.3356 13.7903 22.3958 13.7975 22.4553 13.8089L22.4671 13.8112L22.4789 13.8129L22.6189 13.8329L22.6541 13.8379H22.6703L22.8076 13.8541L22.8112 13.8545L22.9676 13.8741L22.9985 13.8779H23.0296H23.0382C23.4049 13.9241 23.8203 13.9739 24.2874 14.0298C24.368 14.0395 24.4502 14.0493 24.5339 14.0594C24.987 14.1137 25.4869 14.174 26.0382 14.2426L24.1683 31.0395C23.1568 28.4005 20.8607 26.361 17.9602 25.7578C15.0333 25.1492 12.0877 26.1273 10.1072 28.1822L15.0423 9.06821C15.2548 9.72916 15.5736 10.3585 15.9929 10.9298C17.0454 12.3638 18.6367 13.3032 20.3953 13.5348M20.3953 13.5348C20.3752 13.5247 20.3497 13.5102 20.323 13.4905C20.3228 13.4903 20.3225 13.4901 20.3221 13.4899C20.3046 13.4771 20.1061 13.333 20.1196 13.0671M15.3496 5.87793L15.8338 6.00293L15.3078 8.04019C15.1922 7.33027 15.2036 6.598 15.3496 5.87793ZM15.3496 5.87793L14.8596 5.77856C14.7087 6.52276 14.6905 7.279 14.7979 8.01476L15.3496 5.87793ZM20.6196 13.0579C20.6196 12.5879 20.6191 12.5879 20.6186 12.5879L20.6176 12.5879L20.6154 12.5879L20.6103 12.588L20.5964 12.5885L20.596 12.5885C20.5894 12.5888 20.563 12.59 20.5301 12.596C20.5167 12.5984 20.4725 12.6066 20.42 12.6295C20.3939 12.6408 20.3425 12.6656 20.289 12.7128C20.2367 12.7589 20.1585 12.8484 20.13 12.9862C20.2915 13.0167 20.4549 13.0407 20.6196 13.0579Z" fill="#FF5722" stroke="#DB3500"/>
<path d="M13.9564 11.2779L14.7972 8.01861C14.8498 8.37718 14.932 8.72909 15.0421 9.07091M13.9564 11.2779L14.439 11.4086L14.4391 11.4086L14.4406 11.4028M13.9564 11.2779C13.9469 11.313 14.1228 11.457 14.2353 11.5492C14.2767 11.5832 14.3096 11.6101 14.3214 11.6219M13.9564 11.2779L14.6574 11.2515M15.0421 9.07091L14.5112 11.1289M15.0421 9.07091C15.4951 10.477 16.4203 11.7124 17.6939 12.5396C17.0572 12.4457 16.4335 12.2765 15.8361 12.0354M15.0421 9.07091L15.3071 8.0437C15.6292 10.0147 16.9239 11.7546 18.8414 12.5909L15.8361 12.0354M14.5112 11.1289C14.4881 11.1098 14.4647 11.0903 14.442 11.071C14.4006 11.0357 14.3735 11.0108 14.3604 10.9974C14.3584 10.9953 14.3575 10.9943 14.3575 10.9943C14.3577 10.9943 14.3665 11.0039 14.3783 11.0209C14.3856 11.0316 14.4062 11.0624 14.4241 11.1084C14.4334 11.1325 14.4455 11.1696 14.4518 11.2168C14.458 11.263 14.4598 11.3282 14.4406 11.4028M14.5112 11.1289C14.5252 11.1404 14.5391 11.1518 14.5527 11.1629L14.5609 11.1696C14.5792 11.1846 14.5982 11.2002 14.6143 11.2137L14.6148 11.2142C14.6233 11.2213 14.64 11.2353 14.6574 11.2515M14.5112 11.1289L14.4406 11.4028M14.4406 11.4028L14.6574 11.2515M14.6574 11.2515C14.6549 11.2493 14.6524 11.2471 14.6499 11.2449L14.3214 11.6219M14.6574 11.2515C14.6632 11.2569 14.6692 11.2626 14.675 11.2684L14.3214 11.6219M14.6574 11.2515C14.7748 11.3534 14.8979 11.4504 15.0263 11.5442L14.7314 11.9479M14.3214 11.6219C14.4534 11.7369 14.5904 11.8449 14.7314 11.9479M14.7314 11.9479L15.0264 11.5442M14.7314 11.9479C15.015 12.1551 15.3162 12.3371 15.6314 12.4919L15.0264 11.5442M15.0264 11.5442C15.2818 11.7307 15.5527 11.8951 15.8361 12.0354M15.0264 11.5442L15.8361 12.0354M24.0721 14.0045L24.0874 13.8672L24.1274 13.5076C24.2126 13.5178 24.2978 13.528 24.383 13.5383C25.1188 13.6267 25.8545 13.7151 26.5894 13.8079M24.0721 14.0045C24.0356 14.0001 23.9992 13.9957 23.9627 13.9913L23.9618 13.9912C23.8349 13.9758 23.706 13.9605 23.5756 13.9454L21.9544 28.5119M24.0721 14.0045C24.1559 14.0146 24.2397 14.0247 24.3235 14.0347C24.8959 14.1035 25.4672 14.1722 26.0379 14.2429M24.0721 14.0045L22.4771 28.3359M21.9544 28.5119C22.9895 29.5689 23.7014 30.8839 24.0274 32.3034L24.1668 31.0513M21.9544 28.5119L22.3116 28.1621C22.3677 28.2193 22.4228 28.2773 22.4771 28.3359M21.9544 28.5119L22.4514 28.5672L22.4771 28.3359M24.1668 31.0513C24.3194 31.4489 24.4422 31.8582 24.5336 32.2756L26.5894 13.8079M24.1668 31.0513C23.7842 30.055 23.2136 29.1318 22.4771 28.3359M24.1668 31.0513L26.0379 14.2429M26.5894 13.8079L26.5268 14.304C26.3639 14.2834 26.2009 14.2631 26.0379 14.2429M26.5894 13.8079L26.0925 13.7526L26.0379 14.2429" fill="#D84315" stroke="#DB3500"/>
<mask id="path-17-inside-1_209_3636" fill="white">
<path fill-rule="evenodd" clip-rule="evenodd" d="M20.7993 13.1179C20.7797 13.1124 20.7596 13.1091 20.7393 13.1079C20.7596 13.1091 20.7797 13.1124 20.7993 13.1179Z"/>
</mask>
<path fill-rule="evenodd" clip-rule="evenodd" d="M20.7993 13.1179C20.7797 13.1124 20.7596 13.1091 20.7393 13.1079C20.7596 13.1091 20.7797 13.1124 20.7993 13.1179Z" fill="#9E9E9E"/>
<path d="M21.0698 12.1552C20.9803 12.13 20.8883 12.1147 20.7955 12.1095L20.683 14.1063C20.6308 14.1034 20.5791 14.0948 20.5287 14.0806L21.0698 12.1552ZM20.683 14.1063C20.6308 14.1034 20.5791 14.0948 20.5287 14.0806L21.0698 12.1552C20.9803 12.13 20.8883 12.1147 20.7955 12.1095L20.683 14.1063Z" fill="#DB3500" mask="url(#path-17-inside-1_209_3636)"/>
<mask id="path-19-inside-2_209_3636" fill="white">
<path fill-rule="evenodd" clip-rule="evenodd" d="M20.7993 13.1179C20.7797 13.1124 20.7596 13.1091 20.7393 13.1079L20.7993 13.1179Z"/>
</mask>
<path fill-rule="evenodd" clip-rule="evenodd" d="M20.7993 13.1179C20.7797 13.1124 20.7596 13.1091 20.7393 13.1079L20.7993 13.1179Z" fill="#9E9E9E"/>
<path d="M21.0698 12.1552C20.9803 12.13 20.8883 12.1147 20.7955 12.1095L20.683 14.1063C20.6308 14.1034 20.5791 14.0948 20.5287 14.0806L21.0698 12.1552Z" fill="#DB3500" mask="url(#path-19-inside-2_209_3636)"/>
<path d="M41.7597 12.1179V12.118C41.7601 13.3317 42.2436 14.4434 43.0375 15.2581C42.1333 15.1505 41.2636 15.047 40.4275 14.9475C34.0906 14.1934 29.6749 13.6679 26.6503 13.3116C25.8996 13.2165 25.2365 13.1364 24.653 13.0665C24.5691 13.0564 24.4869 13.0466 24.4064 13.0369C24.2571 13.019 24.1135 13.0018 23.9753 12.9852C25.8983 12.0921 27.3279 10.2821 27.6657 8.06847C27.9681 6.08683 27.3389 4.153 26.0781 2.74645L44.4939 7.9776C42.8863 8.66409 41.7597 10.2594 41.7597 12.1179Z" fill="#FF5722" stroke="#DB3500"/>
<path d="M41.7766 11.8474C41.6975 13.1594 42.1904 14.3804 43.0457 15.2587L41.3962 15.0622C40.0969 14.2473 39.4788 12.6742 39.8852 11.1871C40.3005 9.66731 41.6829 8.61444 43.2584 8.61794L43.2635 8.61789C43.3211 8.61743 43.3787 8.61843 43.4362 8.62089C42.487 9.39022 41.8553 10.5398 41.7766 11.8474ZM44.4994 7.97923C44.4006 8.02152 44.3036 8.06725 44.2085 8.11627L44.2612 7.91156L44.4994 7.97923Z" fill="#D84315" stroke="#DB3500"/>
<mask id="path-23-inside-3_209_3636" fill="white">
<path fill-rule="evenodd" clip-rule="evenodd" d="M47.4494 8.29777L47.1694 8.21777L47.4494 8.29777Z"/>
</mask>
<path fill-rule="evenodd" clip-rule="evenodd" d="M47.4494 8.29777L47.1694 8.21777L47.4494 8.29777Z" fill="#9E9E9E"/>
<path d="M47.7242 7.33625L47.4442 7.25625L46.8947 9.1793L47.1747 9.2593L47.7242 7.33625Z" fill="#DB3500" mask="url(#path-23-inside-3_209_3636)"/>
<path d="M9.72949 50.0899V52.5879H6.72949V50.0887C6.73234 49.2616 7.40159 48.5918 8.22838 48.5879C9.05453 48.5954 9.72244 49.2636 9.72949 50.0899Z" fill="#707070" stroke="#DB3500"/>
<path d="M25.7295 50.0899V52.5879H22.7295V50.0887C22.7323 49.2616 23.4016 48.5918 24.2284 48.5879C25.0545 48.5954 25.7224 49.2636 25.7295 50.0899Z" fill="#707070" stroke="#DB3500"/>
<path d="M21.2295 10.0879C22.8863 10.0879 24.2295 8.74475 24.2295 7.08789C24.2295 5.43104 22.8863 4.08789 21.2295 4.08789C19.5726 4.08789 18.2295 5.43104 18.2295 7.08789C18.2295 8.74475 19.5726 10.0879 21.2295 10.0879ZM21.2295 6.08789C21.7818 6.08789 22.2295 6.53561 22.2295 7.08789C22.2295 7.64018 21.7818 8.08789 21.2295 8.08789C20.6772 8.08789 20.2295 7.64018 20.2295 7.08789C20.2295 6.53561 20.6772 6.08789 21.2295 6.08789Z" fill="#DB3500"/>
<path d="M16.2295 29.0879C13.4681 29.0879 11.2295 31.3265 11.2295 34.0879C11.2295 36.8493 13.4681 39.0879 16.2295 39.0879C18.9909 39.0879 21.2295 36.8493 21.2295 34.0879C21.2262 31.3278 18.9895 29.0912 16.2295 29.0879ZM16.2295 37.0879C14.5726 37.0879 13.2295 35.7447 13.2295 34.0879C13.2295 32.431 14.5726 31.0879 16.2295 31.0879C17.8863 31.0879 19.2295 32.431 19.2295 34.0879C19.2295 35.7447 17.8863 37.0879 16.2295 37.0879Z" fill="#DB3500"/>
<path d="M46.2295 13.0879C46.7818 13.0879 47.2295 12.6402 47.2295 12.0879C47.2295 11.5356 46.7818 11.0879 46.2295 11.0879C45.6772 11.0879 45.2295 11.5356 45.2295 12.0879C45.2295 12.6402 45.6772 13.0879 46.2295 13.0879Z" fill="#DB3500"/>
<path d="M51.3465 56.4515C51.4069 56.4529 51.4685 56.4408 51.5781 56.4312C52.3843 54.7639 53.11 53.0294 54.1531 51.4671C54.6066 50.7868 55.0563 50.1029 55.4894 49.4098C55.9307 48.7039 56.3501 47.9852 56.817 47.2088C56.3388 47.1451 56.1061 46.9299 55.9046 46.53C55.4082 45.5465 55.0844 44.5136 54.8049 43.4583C54.7251 43.1566 54.5697 42.978 54.3099 42.7919C53.3937 42.134 52.5123 41.4249 51.6284 40.7226C50.8743 40.1248 50.1272 39.5178 49.3892 38.9005C48.4094 38.0818 47.4359 37.2564 46.4729 36.4167C46.3172 36.2804 46.2384 36.0538 46.0658 35.7745C45.9529 35.7656 45.7698 35.7492 45.5416 35.73C45.5078 36.3758 45.0153 36.7419 44.6781 37.1962C43.6013 38.6479 42.4829 40.0661 41.4046 41.5167C40.6533 42.5279 39.9231 43.5576 39.2168 44.6033C38.7822 45.2466 38.4187 45.9379 38.007 46.5976C37.8291 46.8826 37.6129 47.1419 37.4118 47.4116C37.2293 47.6557 37.1913 47.8695 37.4044 48.1457C37.8882 48.7765 38.335 49.4372 38.798 50.0855C39.2737 50.7498 39.7656 51.403 40.2219 52.0805C40.7004 52.7881 41.1557 53.5126 41.6018 54.2419C41.8504 54.6486 41.9896 55.1467 42.3039 55.4833C42.7209 55.9313 43.2356 56.3031 43.7588 56.6258C43.981 56.7628 44.3346 56.7475 44.6159 56.7069C46.8516 56.3885 49.0974 56.4045 51.3458 56.4508L51.3465 56.4515ZM51.6253 55.3987C51.569 55.4058 51.5131 55.4118 51.4569 55.4186C51.2202 55.0048 50.9646 54.602 50.7526 54.1765C50.445 53.5606 50.1687 52.928 49.8779 52.3025C49.539 51.5749 49.5485 51.545 50.2467 51.165C50.3016 51.1358 50.3526 51.0977 50.4053 51.0643C51.5307 50.3577 52.655 49.6546 53.8992 49.1661C54.3598 48.985 54.7796 48.6996 55.2198 48.4655C55.3108 48.4178 55.4117 48.3865 55.6272 48.3008C54.1341 50.6779 52.5861 52.8682 51.6256 55.3987H51.6253ZM51.1738 55.9003C51.1355 55.953 51.0972 56.0056 51.0582 56.0594C50.3782 56.0619 49.6983 56.0654 49.0183 56.0693C48.7058 56.0711 48.3939 56.0654 48.0821 56.0772C46.8776 56.1224 45.6734 56.1864 44.4679 56.2159C43.9458 56.2298 43.9293 56.2013 43.8301 55.6534C43.68 54.8272 43.5548 53.995 43.4128 53.1671C43.2739 52.3601 43.1203 51.5564 42.9895 50.7476C42.9364 50.421 42.9262 50.088 42.8914 49.7026C44.2794 49.7169 45.4643 50.3801 46.7493 50.5868C47.5009 50.7088 48.2315 50.9672 48.9114 51.1479C49.6863 52.775 50.4313 54.3377 51.1745 55.9003H51.1738ZM52.4564 49.223C52.4796 49.2568 52.5021 49.2913 52.5249 49.3251C52.0113 49.6219 51.4997 49.9215 50.9836 50.2125C50.7115 50.3648 50.4412 50.5285 50.1532 50.6405C49.7633 50.7925 49.7211 50.7441 49.6793 50.2523C50.6064 49.9083 51.5314 49.5649 52.456 49.2227L52.4564 49.223ZM55.4261 47.5205C54.5683 48.1677 51.1977 49.3991 49.4705 49.7101C49.4356 49.6607 49.3871 49.6151 49.3646 49.5582C48.7775 48.1012 48.1932 46.6427 47.6089 45.184C47.2977 44.4076 46.9845 43.632 46.6807 42.8531C46.6287 42.7186 46.6051 42.5703 46.5889 42.4265C46.4539 41.1499 46.3151 39.8729 46.1941 38.5952C46.1417 38.0462 46.1294 37.4937 46.0922 36.8223C46.3464 37.0475 46.4877 37.1699 46.6259 37.2966C47.8008 38.3786 48.7589 39.6584 49.796 40.8663C50.1898 41.3257 50.5273 41.8341 50.9263 42.2881C51.3672 42.7916 51.8759 43.236 52.308 43.7472C53.362 44.9918 54.3883 46.261 55.4265 47.5212L55.4261 47.5205ZM54.5507 44.1148C54.8506 44.9356 55.115 45.7693 55.4152 46.6595C53.2657 44.1521 50.9836 41.8231 49.0338 39.1951C49.636 39.5869 50.2095 40.0067 50.7583 40.4568C51.7286 41.2534 52.6575 42.107 53.6588 42.8609C54.1123 43.2029 54.3714 43.622 54.5507 44.1151V44.1148ZM48.8193 49.202C48.9937 49.6553 49.2286 50.1164 49.134 50.7419C47.092 50.2883 45.1362 49.6952 43.0064 49.1526C43.7556 48.0257 44.4454 47.0562 45.0582 46.0407C45.4178 45.4433 45.8759 45.3718 46.4979 45.4149C47.0597 45.4526 47.3723 45.6928 47.5737 46.1866C47.9854 47.1935 48.4319 48.1859 48.8193 49.202ZM43.468 55.8082C42.9463 55.5253 42.7262 55.2026 42.717 54.7362C42.7128 54.5469 42.7068 54.3579 42.7083 54.1679C42.7153 53.4777 42.6017 52.7817 42.8521 52.0879C43.051 53.2902 43.2493 54.4914 43.468 55.8085V55.8082ZM42.2997 54.3355C42.2533 54.3515 42.2073 54.3679 42.1605 54.3846C41.502 53.3813 40.885 52.3473 40.1748 51.3849C39.389 50.3189 38.3396 48.7391 38.244 48.2446C39.5054 48.611 40.7394 48.9619 41.9654 49.3411C42.1074 49.3856 42.2393 49.5763 42.3032 49.7304C42.3641 49.8741 42.338 50.0602 42.3359 50.2271C42.3191 51.2297 42.2941 52.2331 42.28 53.2354C42.2751 53.6022 42.2927 53.969 42.3001 54.3355H42.2997ZM47.0562 44.8164L46.9606 44.9698C46.7605 44.9203 46.5594 44.8701 46.327 44.8129C46.4086 44.5599 46.4676 44.3809 46.5619 44.0885C46.7711 44.3959 46.9131 44.6065 47.0562 44.8164ZM43.5454 47.4892C43.1924 48.0083 42.8461 48.5324 42.4773 49.0828C40.8783 48.6349 39.3711 48.2421 37.795 47.7361C38.1494 47.2658 38.4465 46.8872 38.726 46.4972C39.19 45.85 39.7606 45.2615 39.9987 44.4823C40.2093 43.7953 40.6442 43.2598 41.0358 42.6934C41.4053 42.1593 41.8061 41.6466 42.2146 41.1424C43.2455 39.8719 44.2879 38.6102 45.3285 37.3471C45.415 37.2425 45.5244 37.1585 45.7033 36.987C45.7715 37.7061 45.8313 38.3234 45.889 38.94C45.9702 39.8196 46.0384 40.7005 46.1354 41.5786C46.2416 42.5329 46.5176 43.5096 45.6699 44.2948C45.6263 44.3354 45.6137 44.408 45.5796 44.4617C45.2596 44.9545 44.9446 45.4508 44.6156 45.9379C44.265 46.4588 43.8983 46.9701 43.5454 47.4888V47.4892Z" fill="#DB3500"/>
<path d="M51.4567 55.4185C51.5129 55.4117 51.5688 55.4053 51.6251 55.3985C52.5856 52.8681 54.1336 50.6778 55.6267 48.3007C55.4112 48.3864 55.3103 48.4177 55.2192 48.4654C54.7791 48.6995 54.3593 48.9849 53.8987 49.166C52.6541 49.6545 51.5302 50.3575 50.4048 51.0642C50.352 51.0976 50.3011 51.1357 50.2462 51.1649C49.548 51.5449 49.5385 51.5747 49.8774 52.3024C50.1685 52.9279 50.4448 53.5608 50.7521 54.1764C50.9645 54.6015 51.2197 55.0047 51.4563 55.4185H51.4567Z" fill="#FF820F"/>
<path d="M51.0581 56.0588C51.0971 56.0054 51.1354 55.9524 51.1737 55.8998C50.4305 54.3371 49.6855 52.7744 48.9106 51.1473C48.2307 50.9666 47.5001 50.7083 46.7485 50.5862C45.4635 50.3795 44.2786 49.7163 42.8906 49.7021C42.9254 50.0874 42.9356 50.4208 42.9887 50.747C43.1195 51.5558 43.2735 52.3595 43.412 53.1665C43.5544 53.9948 43.6792 54.8267 43.8293 55.6528C43.9285 56.2008 43.9446 56.2292 44.4671 56.2154C45.673 56.1858 46.8771 56.1218 48.0813 56.0766C48.3931 56.0649 48.705 56.0705 49.0175 56.0688C49.6975 56.0649 50.3774 56.0609 51.0574 56.0588H51.0581Z" fill="#FFA02D"/>
<path d="M52.525 49.3247C52.5018 49.2909 52.4793 49.2564 52.4564 49.2226C51.5321 49.5649 50.6068 49.9078 49.6797 50.2523C49.7212 50.744 49.7634 50.7924 50.1536 50.6404C50.4416 50.528 50.7116 50.3647 50.984 50.2124C51.4998 49.9214 52.0117 49.6218 52.5253 49.325L52.525 49.3247Z" fill="#F54F00"/>
<path d="M49.4704 49.71C51.1977 49.399 54.5686 48.1679 55.4261 47.5204C54.3879 46.2598 53.3613 44.991 52.3076 43.7464C51.8756 43.2351 51.3668 42.7907 50.926 42.2872C50.5269 41.8332 50.1894 41.3248 49.7956 40.8655C48.7585 39.6575 47.8005 38.3781 46.6255 37.2957C46.4873 37.169 46.346 37.0467 46.0918 36.8214C46.1291 37.4928 46.1417 38.0457 46.1938 38.5944C46.3147 39.8721 46.4536 41.149 46.5886 42.4256C46.6047 42.5697 46.6283 42.7178 46.6803 42.8523C46.9844 43.6311 47.2973 44.4067 47.6085 45.1831C48.1928 46.6419 48.7771 48.1007 49.3643 49.5573C49.3868 49.6146 49.4353 49.6598 49.4701 49.7092L49.4704 49.71Z" fill="#FF6500"/>
<path d="M55.4146 46.6592C55.1144 45.769 54.85 44.9357 54.5501 44.1145C54.3705 43.6214 54.1117 43.2026 53.6582 42.8603C52.6569 42.1064 51.7284 41.2528 50.7577 40.4561C50.2085 40.0061 49.6355 39.5862 49.0332 39.1945C50.983 41.8224 53.2651 44.1518 55.4146 46.6588V46.6592Z" fill="#E84200"/>
<path d="M49.1335 50.7417C49.228 50.1162 48.9932 49.6547 48.8188 49.2018C48.431 48.1856 47.9849 47.1933 47.5732 46.1864C47.3721 45.6925 47.0592 45.4527 46.4974 45.4146C45.8751 45.3716 45.4173 45.4428 45.0577 46.0405C44.4449 47.056 43.7551 48.0255 43.0059 49.1523C45.1357 49.6949 47.0915 50.2881 49.1335 50.7417Z" fill="#FFC24F"/>
<path d="M42.7167 54.7361C42.7258 55.2025 42.9459 55.5252 43.4677 55.8081C43.249 54.4909 43.0504 53.2901 42.8517 52.0875C42.6017 52.7817 42.7153 53.4773 42.7079 54.1675C42.7065 54.3575 42.7121 54.5468 42.7167 54.7357V54.7361Z" fill="#F54F00"/>
<path d="M42.1601 54.3848C42.2068 54.3677 42.2532 54.3517 42.2993 54.3357C42.2923 53.9688 42.2747 53.6024 42.2792 53.2355C42.2933 52.2332 42.3183 51.2299 42.3351 50.2272C42.3376 50.0604 42.3633 49.8746 42.3025 49.7305C42.2388 49.5765 42.107 49.3858 41.9646 49.3413C40.7386 48.9624 39.5046 48.6115 38.2432 48.2447C38.3388 48.7393 39.3882 50.3194 40.174 51.385C40.8842 52.3474 41.5016 53.3814 42.1597 54.3848H42.1601Z" fill="#FF820F"/>
<path d="M46.9596 44.9697L47.0551 44.8165C46.9118 44.6065 46.7702 44.3964 46.5613 44.0893C46.4671 44.3815 46.4081 44.5603 46.3267 44.813C46.5588 44.8702 46.7597 44.9203 46.9596 44.9697Z" fill="#F54F00"/>
<path d="M42.4772 49.0831C42.846 48.5327 43.1923 48.0086 43.5453 47.4895C43.8983 46.9704 44.265 46.4595 44.6155 45.9386C44.9446 45.4515 45.2596 44.9551 45.5795 44.4624C45.6133 44.4086 45.6259 44.3364 45.6699 44.2955C46.5175 43.5102 46.2415 42.5336 46.1353 41.5793C46.0387 40.7012 45.9705 39.8202 45.8889 38.9407C45.8312 38.3241 45.7715 37.7068 45.7033 36.9877C45.5243 37.1588 45.415 37.2432 45.3285 37.3478C44.2878 38.6109 43.2454 39.8725 42.2146 41.1431C41.806 41.6469 41.4052 42.1596 41.0357 42.694C40.6444 43.2605 40.2095 43.7959 39.9986 44.483C39.7606 45.2622 39.19 45.8507 38.7259 46.4979C38.4464 46.8878 38.1493 47.2668 37.7949 47.7368C39.3714 48.2427 40.8782 48.6355 42.4772 49.0835V49.0831Z" fill="#F54F00"/>
</svg>
