<svg width="61" height="61" viewBox="0 0 61 61" fill="none" xmlns="http://www.w3.org/2000/svg">
<g clip-path="url(#clip0_209_3712)">
<path d="M50.8979 5.22491L40.9123 2.21741C34.0793 0.159302 26.7917 0.159302 19.9591 2.21741L9.97296 5.22491C8.46783 5.6781 7.2575 6.80328 6.69537 8.27133L1.91906 20.744C-1.61808 29.9803 1.31848 40.4434 9.14486 46.4909L22.203 56.5805C27.0517 60.3268 33.8192 60.3268 38.6679 56.5805L51.726 46.4909C59.5524 40.4434 62.489 29.9803 58.9518 20.744L54.176 8.27133C53.6134 6.80328 52.4031 5.6781 50.8979 5.22491Z" fill="#DB3500"/>
<path d="M7.96094 45.5088C8.34225 45.8475 8.73639 46.1758 9.14471 46.4911L22.2029 56.5807C27.052 60.3271 33.8191 60.3271 38.6677 56.5807L51.7259 46.4911C52.1342 46.1753 52.5284 45.8475 52.9101 45.5088H7.96094Z" fill="url(#paint0_linear_209_3712)"/>
<path d="M36.7502 11.969C35.1617 10.2954 32.9191 9.24854 30.4353 9.24854C25.6324 9.24854 21.7254 13.156 21.7254 17.9584V25.1013C21.1422 25.2336 20.56 25.3778 19.9786 25.5367C19.2132 25.7454 18.6836 26.4431 18.6836 27.2368V45.5007C18.6836 46.0601 18.9477 46.5709 19.3712 46.8973L31.793 59.3192C33.9084 59.1049 35.9834 58.3913 37.8309 57.1755C40.1289 55.3353 42.4351 53.506 44.7596 51.7015C45.5777 51.0671 46.4337 50.4729 47.3094 49.9034L51.7259 46.4908C55.6379 43.4682 58.3282 39.3424 59.599 34.8178L36.7502 11.969Z" fill="url(#paint1_linear_209_3712)"/>
<path d="M47.8489 8.92174L39.351 6.36238C33.5365 4.61098 27.3352 4.61098 21.5202 6.36238L13.0227 8.92174C11.7414 9.30717 10.7115 10.2648 10.2331 11.5141L6.16863 22.1278C3.15883 29.988 5.6573 38.892 12.3178 44.0382L23.43 52.624C27.5563 55.8123 33.3149 55.8123 37.4412 52.624L48.5534 44.0382C55.2134 38.892 57.7124 29.988 54.7026 22.1278L50.6381 11.5141C50.1597 10.2648 49.1297 9.30717 47.8489 8.92174Z" fill="url(#paint2_radial_209_3712)"/>
<path d="M37.4412 52.6242L48.5534 44.0384C55.2138 38.8922 57.7128 29.9883 54.7025 22.128L50.638 11.5143C50.1597 10.265 49.1297 9.3074 47.8489 8.92197L39.351 6.36261C36.4437 5.48691 33.4394 5.04883 30.4355 5.04883V55.0156C32.907 55.0156 35.378 54.2186 37.4412 52.6242Z" fill="url(#paint3_linear_209_3712)"/>
<path d="M36.7502 11.969C35.1617 10.2954 32.9191 9.24854 30.4353 9.24854C25.6324 9.24854 21.7254 13.156 21.7254 17.9584V25.1013C21.1422 25.2336 20.56 25.3778 19.9786 25.5367C19.2132 25.7454 18.6836 26.4431 18.6836 27.2368V45.5007C18.6836 46.0601 18.9477 46.5709 19.3712 46.8973L26.9426 54.4687C30.4559 55.5925 34.3931 54.9791 37.4409 52.6239L48.5531 44.0381C52.7417 40.8017 55.2836 36.079 55.8453 31.0646L36.7502 11.969Z" fill="url(#paint4_linear_209_3712)"/>
<path d="M40.892 47.2006C33.966 49.0916 26.9046 49.0916 19.9786 47.2006C19.2132 46.9918 18.6836 46.2942 18.6836 45.5005V27.2366C18.6836 26.4433 19.2132 25.7457 19.9786 25.5369C26.9046 23.6459 33.966 23.6459 40.892 25.5369C41.6574 25.7457 42.187 26.4433 42.187 27.2366V45.5005C42.187 46.2942 41.6574 46.9918 40.892 47.2006Z" fill="url(#paint5_linear_209_3712)"/>
<path d="M40.5334 25.4416C40.3919 25.4045 40.2505 25.3674 40.109 25.3317C40.0138 25.3079 39.9186 25.2845 39.8234 25.2612C39.6856 25.2273 39.5482 25.1944 39.4105 25.1623C39.3139 25.1399 39.2177 25.1175 39.1212 25.0959C38.9834 25.0648 38.8456 25.0346 38.7073 25.0049C38.6121 24.9843 38.5169 24.9641 38.4217 24.944C38.2798 24.9147 38.1374 24.8863 37.9951 24.8584C37.9049 24.841 37.8142 24.8227 37.7241 24.8057C37.568 24.776 37.4119 24.7485 37.2558 24.7206C37.1793 24.7073 37.1029 24.6931 37.0264 24.6798C36.7948 24.64 36.5627 24.6025 36.3302 24.5668C36.326 24.5663 36.3219 24.5659 36.3178 24.5649C36.0894 24.5302 35.861 24.4977 35.633 24.467C35.5561 24.4569 35.4792 24.4478 35.4023 24.4377C35.2462 24.418 35.0901 24.3979 34.934 24.38C34.8434 24.3695 34.7527 24.3599 34.6616 24.3498C34.5188 24.3342 34.376 24.3191 34.2332 24.3049C34.1379 24.2958 34.0423 24.2871 33.9466 24.2784C33.8079 24.2656 33.6692 24.2537 33.5305 24.2427C33.4334 24.2349 33.3364 24.2276 33.2393 24.2207C33.1011 24.2106 32.9624 24.2015 32.8242 24.1928C32.728 24.1868 32.6319 24.1809 32.5358 24.1758C32.3929 24.1681 32.2501 24.1617 32.1073 24.1557C32.0167 24.1516 31.926 24.1475 31.8349 24.1438C31.6784 24.1383 31.5214 24.1342 31.3643 24.1305C31.2879 24.1287 31.2115 24.1259 31.1346 24.1246C30.9016 24.1205 30.6685 24.1182 30.4355 24.1182H30.4351C30.2021 24.1182 29.9691 24.1205 29.7361 24.125C29.6596 24.1264 29.5832 24.1287 29.5063 24.1305C29.3497 24.1346 29.1927 24.1383 29.0362 24.1443C28.9455 24.1475 28.8544 24.1516 28.7638 24.1557C28.621 24.1617 28.4777 24.1681 28.3349 24.1758C28.2392 24.1813 28.1431 24.1868 28.0474 24.1932C27.9087 24.2015 27.7704 24.2106 27.6317 24.2207C27.5347 24.2276 27.4377 24.2349 27.3406 24.2427C27.2019 24.2537 27.0632 24.266 26.9245 24.2784C26.8288 24.2871 26.7336 24.2958 26.6379 24.3049C26.4951 24.3191 26.3523 24.3342 26.2095 24.3498C26.1188 24.3599 26.0282 24.3695 25.9376 24.38C25.781 24.3979 25.6249 24.418 25.4688 24.4377C25.3919 24.4478 25.3155 24.4569 25.2386 24.467C25.0106 24.4977 24.7822 24.5302 24.5542 24.5649C24.5496 24.5654 24.5455 24.5663 24.5409 24.5668C24.3088 24.602 24.0768 24.64 23.8447 24.6794C23.7682 24.6927 23.6922 24.7068 23.6158 24.7201C23.4597 24.748 23.3031 24.776 23.147 24.8053C23.0569 24.8222 22.9667 24.8405 22.8765 24.8584C22.7341 24.8863 22.5918 24.9142 22.4494 24.944C22.3542 24.9637 22.259 24.9843 22.1638 25.0049C22.026 25.0341 21.8882 25.0644 21.7504 25.0955C21.6538 25.1175 21.5572 25.1399 21.4606 25.1623C21.3228 25.1944 21.1855 25.2273 21.0482 25.2607C20.953 25.2841 20.8578 25.3074 20.7625 25.3317C20.6211 25.3669 20.4792 25.404 20.3377 25.4416C20.2476 25.4654 20.1574 25.4887 20.0672 25.513C20.0274 25.5235 19.9875 25.5354 19.9477 25.5459C19.5234 25.6704 19.1746 25.9456 18.9512 26.3035C26.5478 28.5873 34.3233 28.5873 41.9199 26.3035C41.697 25.9456 41.3477 25.6704 40.9234 25.5459C40.8835 25.5349 40.8437 25.5235 40.8039 25.513C40.7137 25.4887 40.6235 25.4654 40.5334 25.4416Z" fill="url(#paint6_linear_209_3712)"/>
<path d="M40.8922 25.5368C34.5475 23.8042 28.0894 23.6605 21.7256 25.1015V25.3244C21.7256 25.8486 21.9934 26.3105 22.3994 26.5805L42.0352 46.2163C42.1331 45.9957 42.1872 45.7531 42.1872 45.5004V27.2365C42.1872 26.4432 41.6575 25.7456 40.8922 25.5368Z" fill="url(#paint7_linear_209_3712)"/>
<path d="M42.1874 27.2366C42.1874 26.4433 41.6578 25.7457 40.8924 25.537C39.3131 25.1057 37.7265 24.7729 36.1362 24.5386V25.3246C36.1362 25.8492 36.404 26.3106 36.8105 26.5807L42.1874 31.958V27.2366Z" fill="url(#paint8_linear_209_3712)"/>
<path d="M40.1478 41.1467L32.7151 33.714C32.0976 33.0571 31.1999 32.6667 30.2125 32.7353C28.6726 32.842 27.4238 34.0876 27.3144 35.6275C27.2434 36.6181 27.6353 37.5185 28.2949 38.1369L29.0374 38.8799C29.2773 39.2456 29.4068 39.6819 29.4068 40.1296V41.4109C29.4068 41.7432 29.5602 42.0467 29.8005 42.2435L35.8032 48.2462C36.8858 48.096 37.967 47.9001 39.0451 47.6584C39.0505 46.9887 39.3522 46.346 39.8892 45.9446C40.6518 45.3742 41.1457 44.4641 41.1457 43.4378C41.1462 42.5333 40.7621 41.7185 40.1478 41.1467Z" fill="url(#paint9_linear_209_3712)"/>
<path d="M37.637 26.8326C36.8038 26.8326 36.1286 26.1574 36.1286 25.3243V17.9584C36.1286 14.8191 33.5748 12.2652 30.4354 12.2652C27.2961 12.2652 24.7422 14.8191 24.7422 17.9584V25.3243C24.7422 26.1574 24.067 26.8326 23.2339 26.8326C22.4008 26.8326 21.7251 26.1574 21.7251 25.3243V17.9584C21.7251 13.1555 25.6326 9.24854 30.4354 9.24854C35.2378 9.24854 39.1453 13.1555 39.1453 17.9584V25.3243C39.1453 26.1574 38.4701 26.8326 37.637 26.8326Z" fill="url(#paint10_linear_209_3712)"/>
<path d="M18.6836 40.4863V45.5002C18.6836 46.294 19.2132 46.9916 19.9786 47.2003C26.9046 49.0914 33.966 49.0914 40.892 47.2003C41.6574 46.9916 42.187 46.294 42.187 45.5002V40.4863H18.6836Z" fill="url(#paint11_linear_209_3712)"/>
<path d="M30.496 41.7718C30.4917 42.5206 30.4629 43.2695 30.4462 44.0179C30.4399 44.3037 30.439 44.5891 30.4343 44.9542C30.2381 44.7223 30.1354 44.5325 30.0526 44.3261C29.9122 43.9787 29.762 43.6351 29.6176 43.2893C29.5105 43.0334 29.407 42.7761 29.3004 42.52C29.1941 42.2634 29.0891 42.0059 28.978 41.7511C28.798 41.3387 28.6107 40.9298 28.4315 40.5168C28.2141 40.0153 28.0044 39.5115 27.787 39.01C27.6388 38.6663 27.4808 38.3264 27.3314 37.983C27.2759 37.8557 27.2348 37.7226 27.1856 37.5928C26.8622 36.7427 26.5373 35.893 26.2159 35.0419C26.1868 34.964 26.1772 34.8783 26.1463 34.7444C26.4132 34.7312 26.6374 34.7227 26.8615 34.7093C27.3848 34.6779 27.9079 34.6432 28.4315 34.6115C28.5169 34.6061 28.6031 34.6048 28.6889 34.6072C28.8338 34.6122 28.9131 34.6733 28.9516 34.8309C29.0667 35.3103 29.2009 35.7855 29.3336 36.2598C29.5155 36.91 29.7139 37.5561 29.8846 38.2091C30.047 38.8302 30.184 39.458 30.3312 40.0836C30.4626 40.6388 30.4989 41.2047 30.4958 41.7719L30.496 41.7718Z" fill="#FF820F"/>
<path d="M33.6555 33.6455C32.9547 37.2916 31.7927 40.7837 30.709 44.303C30.6353 43.6141 30.7435 42.9342 30.7464 42.2518C30.7496 41.5579 30.7642 40.8621 30.8095 40.1692C30.8541 39.4801 30.9335 38.7927 31.0147 38.1069C31.0968 37.417 31.2012 36.73 31.293 36.0415C31.3845 35.3526 31.4726 34.6635 31.5621 33.9783C31.9592 33.8075 32.3291 33.6441 32.7027 33.4905C32.7765 33.4604 32.8709 33.4464 32.9476 33.4629C33.1861 33.5137 33.421 33.5832 33.6555 33.6458L33.6555 33.6455Z" fill="#FF820F"/>
<path d="M26.2063 34.5236C26.2422 34.44 26.2513 34.3734 26.2891 34.3368C26.7516 33.8909 27.2202 33.4518 27.684 33.0068C28.1159 32.592 28.5433 32.1717 28.9746 31.7553C29.0356 31.6966 29.104 31.6464 29.2 31.5658C29.374 31.7721 29.4936 31.9695 29.5808 32.1873C29.6242 32.2953 29.6509 32.4125 29.7047 32.5149C29.8015 32.6985 29.7395 32.8439 29.6177 32.9811C29.5898 33.0122 29.556 33.0423 29.5193 33.0621C29.1353 33.2707 28.7507 33.4767 28.3655 33.6828C28.3186 33.7078 28.2661 33.7226 28.2191 33.7476C27.8701 33.933 27.5028 34.0927 27.1791 34.3154C26.8797 34.5212 26.5672 34.5059 26.2065 34.5235L26.2063 34.5236Z" fill="#FF6500"/>
<path d="M30.6052 39.9563C30.5743 39.9604 30.5425 39.9644 30.5108 39.9684C30.4618 39.7419 30.4119 39.5157 30.3638 39.2886C30.2037 38.5337 29.9842 37.796 29.7685 37.0554C29.5528 36.3156 29.3986 35.5577 29.221 34.8065C29.207 34.7474 29.2032 34.6723 29.2274 34.62C29.3621 34.3305 29.5169 34.051 29.6451 33.7591C29.7476 33.5254 29.8206 33.2791 29.904 33.0466C30.0201 33.0133 30.1128 32.9879 30.2043 32.9603C30.3851 32.9062 30.5405 32.9334 30.6696 33.0839C30.8087 33.2463 30.9465 33.4124 31.1017 33.5592C31.3589 33.8036 31.3725 34.0954 31.3217 34.4185C31.2048 35.1599 31.0985 35.903 30.99 36.6463C30.8925 37.3136 30.7878 37.98 30.7067 38.6494C30.6536 39.0829 30.6378 39.5209 30.605 39.9567L30.6052 39.9563Z" fill="#FFC24F"/>
<path d="M27.572 34.4501C27.5662 34.4277 27.5605 34.4053 27.555 34.3834C28.1499 33.9555 28.8202 33.6649 29.4541 33.3091C29.471 33.3248 29.4877 33.341 29.504 33.3571C29.4911 33.4112 29.4864 33.4693 29.4624 33.5183C29.359 33.7287 29.2484 33.9351 29.1434 34.1442C29.0587 34.313 28.9283 34.3979 28.7364 34.405C28.4077 34.4176 28.0799 34.443 27.7516 34.4605C27.692 34.4636 27.6324 34.4541 27.5722 34.4503L27.572 34.4501Z" fill="#FFA02D"/>
<path d="M33.6503 34.3887C33.6325 34.479 33.6151 34.5697 33.5978 34.6606C33.6213 34.6653 33.6443 34.6704 33.6681 34.6756C33.6922 34.5866 33.7166 34.4975 33.7414 34.4086C33.7104 34.4019 33.6803 34.3954 33.6503 34.3887ZM30.4462 44.0178C30.4628 43.2693 30.4915 42.5205 30.4959 41.7716C30.4988 41.2043 30.4627 40.6385 30.3313 40.0834C30.1841 39.4578 30.0471 38.8299 29.8846 38.2088C29.714 37.5558 29.5157 36.9096 29.3337 36.2595C29.201 35.7852 29.0668 35.31 28.9517 34.8307C28.9132 34.673 28.8339 34.612 28.689 34.607C28.6032 34.6045 28.5169 34.6059 28.4316 34.6112C27.908 34.643 27.3849 34.6777 26.8616 34.7091C26.6374 34.7223 26.4133 34.7309 26.1464 34.7442C26.1773 34.878 26.1869 34.9637 26.216 35.0416C26.5373 35.8926 26.8622 36.7423 27.1857 37.5926C27.2349 37.7224 27.276 37.8555 27.3315 37.9827C27.4809 38.3262 27.6389 38.6661 27.7871 39.0097C28.0045 39.5113 28.2142 40.015 28.4316 40.5165C28.6107 40.9296 28.798 41.3384 28.9781 41.7508C29.0893 42.0058 29.1942 42.2632 29.3005 42.5197C29.4072 42.776 29.5107 43.0333 29.6177 43.289C29.7621 43.6348 29.9123 43.9784 30.0527 44.3258C30.1355 44.5323 30.2382 44.7221 30.4344 44.954C30.4391 44.5888 30.4402 44.3033 30.4463 44.0177L30.4462 44.0178ZM30.7087 44.303C31.7924 40.7836 32.9542 37.2917 33.6552 33.6455C33.4207 33.5829 33.1858 33.5135 32.9473 33.4626C32.8707 33.4463 32.7762 33.4602 32.7024 33.4903C32.3288 33.6439 31.9588 33.8074 31.5619 33.9781C31.4724 34.6634 31.3844 35.3525 31.2927 36.0412C31.2009 36.7297 31.0965 37.4166 31.0145 38.1066C30.9334 38.7926 30.854 39.4797 30.8092 40.1689C30.7639 40.8618 30.7493 41.5576 30.7461 42.2515C30.7431 42.9341 30.635 43.6138 30.7087 44.3027L30.7087 44.303ZM28.9742 31.7549C28.5428 32.1713 28.1154 32.5916 27.6836 33.0064C27.2197 33.4514 26.7511 33.8905 26.2887 34.3365C26.2508 34.373 26.2418 34.4396 26.2059 34.5232C26.5668 34.5056 26.8791 34.5209 27.1785 34.3151C27.5021 34.0923 27.8695 33.9327 28.2185 33.7473C28.2655 33.7223 28.318 33.7076 28.3649 33.6825C28.7501 33.4764 29.1347 33.2704 29.5187 33.0618C29.5556 33.0421 29.5894 33.0119 29.6171 32.9808C29.7388 32.8435 29.8008 32.6981 29.7041 32.5146C29.6503 32.4122 29.6237 32.2952 29.5802 32.187C29.493 31.9692 29.3734 31.7718 29.1994 31.5656C29.1034 31.6461 29.035 31.6964 28.974 31.755L28.9742 31.7549ZM26.9235 33.5296C27.1951 33.2869 27.4591 33.0346 27.721 32.7811C28.1516 32.3646 28.583 31.9488 29.0038 31.5226C29.1603 31.3644 29.3115 31.3028 29.5428 31.3462C29.8225 31.3987 30.1141 31.3855 30.4004 31.4078C30.7656 31.4371 31.1098 31.5282 31.4276 31.7255C31.5697 31.8138 31.746 31.8478 31.9079 31.9014C32.3451 32.0449 32.7827 32.189 33.2218 32.3281C33.4979 32.4146 33.7793 32.4841 34.0539 32.575C34.3743 32.6802 34.3948 32.74 34.307 33.0635C34.2422 33.301 34.1979 33.5441 34.1389 33.7832C34.1031 33.9287 34.0695 34.0773 34.0116 34.2153C33.6186 35.1552 33.3775 36.1445 33.0684 37.1116C32.9743 37.4066 32.8759 37.7012 32.7933 37.9999C32.4366 39.2891 32.1016 40.5851 31.7264 41.8692C31.399 42.9876 31.0296 44.0944 30.6725 45.2041C30.6427 45.296 30.5626 45.3714 30.5022 45.4597C30.1622 45.2581 30.0459 44.9377 29.9149 44.6386C29.5141 43.7255 29.1227 42.8071 28.7378 41.8867C28.4157 41.1163 28.1074 40.3395 27.7931 39.566C27.5391 38.94 27.283 38.3151 27.0313 37.6888C26.7796 37.0624 26.535 36.4332 26.2813 35.8077C26.1404 35.4606 25.9932 35.1155 25.8352 34.7757C25.7721 34.6407 25.7649 34.5327 25.8806 34.4325C26.2281 34.1315 26.5803 33.8358 26.9232 33.5296L26.9235 33.5296ZM30.5107 39.9683C30.5424 39.9644 30.5742 39.9603 30.6051 39.9563C30.6378 39.5205 30.6537 39.0825 30.7068 38.649C30.788 37.9798 30.8926 37.3132 30.9901 36.6459C31.0984 35.9027 31.2048 35.1595 31.3218 34.4181C31.3726 34.095 31.359 33.8032 31.1017 33.5588C30.9467 33.4121 30.8089 33.246 30.6696 33.0835C30.5406 32.933 30.3852 32.9058 30.2044 32.9599C30.1128 32.9878 30.0202 33.0131 29.904 33.0462C29.8207 33.2787 29.7475 33.5248 29.6452 33.7587C29.517 34.0506 29.3622 34.3301 29.2274 34.6196C29.2032 34.6719 29.2072 34.7471 29.2211 34.8061C29.3985 35.5574 29.5529 36.3152 29.7686 37.055C29.9842 37.7956 30.2039 38.5334 30.3639 39.2882C30.412 39.5153 30.4618 39.7414 30.5109 39.968L30.5107 39.9683ZM27.5553 34.3833C27.5609 34.4053 27.5665 34.4276 27.5724 34.45C27.6325 34.454 27.6922 34.4634 27.7519 34.4602C28.08 34.4426 28.4081 34.4172 28.7366 34.4047C28.9287 34.3978 29.0589 34.3128 29.1436 34.144C29.2487 33.9349 29.3592 33.7285 29.4626 33.5181C29.4867 33.4692 29.4914 33.411 29.5042 33.3569C29.4877 33.3409 29.4711 33.3246 29.4543 33.3089C28.8204 33.6647 28.1502 33.9553 27.5552 34.3832L27.5553 34.3833ZM29.5713 31.594C29.7566 31.9938 29.9248 32.3574 30.0958 32.7256C30.2153 32.7006 30.296 32.6841 30.4035 32.6618C30.3196 32.3721 30.2403 32.1279 30.18 31.8796C30.1159 31.6168 30.1113 31.6035 29.8462 31.5935C29.7663 31.5908 29.6864 31.5936 29.5713 31.594ZM30.9887 32.94C30.9686 32.9708 30.9485 33.0015 30.9285 33.0323C31.1527 33.2515 31.377 33.4709 31.5832 33.6721C32.1212 33.5746 32.3175 33.4997 32.4615 33.3327C31.963 33.2001 31.4757 33.07 30.9886 32.9402L30.9887 32.94ZM30.5957 32.5041C30.6697 32.675 30.8719 32.6373 31.0216 32.6813C31.104 32.7055 31.1869 32.7293 31.269 32.755C31.6876 32.8851 32.1069 33.0159 32.5252 33.1466C32.9792 33.2885 33.3588 33.0993 33.7289 32.8736C33.7399 32.8668 33.7366 32.836 33.7398 32.8168C32.9141 32.3625 30.8728 31.7175 30.4229 31.7745C30.3704 32.0416 30.496 32.2746 30.5957 32.5039L30.5957 32.5041ZM33.3079 33.2726C33.4912 33.3406 33.6047 33.3826 33.797 33.4541C33.7783 33.3026 33.7683 33.2179 33.7527 33.0887C33.6001 33.152 33.4901 33.1974 33.3079 33.2726Z" fill="#DB3500"/>
<path d="M30.0958 32.7259C29.9248 32.3576 29.7566 31.994 29.5713 31.5943C29.6862 31.5939 29.7661 31.5912 29.8462 31.5938C30.1113 31.6038 30.1159 31.617 30.18 31.8798C30.2403 32.1281 30.3196 32.3724 30.4035 32.662C30.2959 32.6844 30.2155 32.7007 30.0958 32.7259Z" fill="#E84200"/>
<path d="M30.9287 33.0326C30.9488 33.0019 30.969 32.9712 30.989 32.9403C31.476 33.07 31.9634 33.2003 32.4619 33.3329C32.3179 33.4999 32.1215 33.5746 31.5836 33.6723C31.3773 33.4711 31.1532 33.2519 30.9289 33.0325L30.9287 33.0326Z" fill="#FFA02D"/>
<path d="M31.0212 32.6821C30.8716 32.6379 30.6695 32.6758 30.5953 32.5049C30.4957 32.2756 30.3699 32.0426 30.4225 31.7756C30.8725 31.7187 32.9138 32.3638 33.7394 32.8179C33.7361 32.837 33.7395 32.8679 33.7285 32.8746C33.3583 33.1003 32.9788 33.2896 32.5248 33.1476C32.1064 33.0168 31.6872 32.8861 31.2686 32.7561C31.1865 32.7304 31.1036 32.7065 31.0212 32.6824L31.0212 32.6821Z" fill="#FF6500"/>
<path d="M33.6683 34.6758C33.6445 34.6706 33.6214 34.6655 33.5979 34.6607C33.6154 34.57 33.6328 34.4793 33.6504 34.3889C33.6806 34.3955 33.7107 34.4019 33.7415 34.4087C33.7167 34.4976 33.6923 34.5867 33.6683 34.6758Z" fill="#FF820F"/>
<path d="M33.7969 33.4544C33.6045 33.3829 33.4911 33.3409 33.3078 33.2729C33.4898 33.1979 33.5999 33.1524 33.7526 33.089C33.7681 33.2182 33.7782 33.3029 33.7969 33.4544Z" fill="#FF820F"/>
<path d="M31.0389 34.1218C30.9434 35.2836 30.8092 36.4412 30.6361 37.5939C30.6237 37.6767 30.7523 37.6966 30.7647 37.6137C30.9377 36.4608 31.072 35.3033 31.1675 34.1416C31.1743 34.0584 31.0458 34.0382 31.0389 34.1218Z" fill="#FFD360"/>
<path d="M30.7384 33.6409C30.6276 34.2438 30.531 34.849 30.4492 35.4567C30.4381 35.5397 30.5666 35.5596 30.5778 35.4764C30.6597 34.8689 30.7561 34.2635 30.8669 33.6606C30.8821 33.5781 30.7535 33.5586 30.7384 33.6409Z" fill="#FFD360"/>
<path d="M30.3991 33.0628C30.3137 33.0803 30.2282 33.0979 30.1425 33.1154C30.0611 33.1321 30.074 33.2616 30.156 33.2448C30.2414 33.2272 30.3269 33.2097 30.4126 33.1921C30.494 33.1755 30.4811 33.046 30.3991 33.0628Z" fill="#FFD360"/>
<path d="M30.5172 33.2034C30.4834 33.2282 30.5219 33.2807 30.5557 33.2559C30.5895 33.2311 30.551 33.1786 30.5172 33.2034Z" fill="#FFED7A"/>
<path d="M30.4659 33.1336C30.4322 33.1584 30.4707 33.2109 30.5045 33.1861C30.5382 33.1613 30.4997 33.1088 30.4659 33.1336Z" fill="#FFED7A"/>
<path d="M30.3229 33.1038C30.2891 33.1286 30.3276 33.1811 30.3614 33.1563C30.3952 33.1315 30.3566 33.079 30.3229 33.1038Z" fill="#FFED7A"/>
<path d="M31.109 33.992C31.0752 34.0168 31.1137 34.0693 31.1475 34.0445C31.1813 34.0197 31.1428 33.9672 31.109 33.992Z" fill="#FFED7A"/>
<path d="M30.9278 33.7083C30.8941 33.7331 30.9326 33.7856 30.9664 33.7608C31.0001 33.736 30.9616 33.6835 30.9278 33.7083Z" fill="#FFED7A"/>
<path d="M30.5475 39.8211C30.5137 39.8459 30.5522 39.8984 30.586 39.8736C30.6198 39.8488 30.5813 39.7963 30.5475 39.8211Z" fill="#FFED7A"/>
<path d="M30.5192 39.6536C30.4854 39.6784 30.5239 39.7309 30.5577 39.7061C30.5915 39.6813 30.5529 39.6288 30.5192 39.6536Z" fill="#FFED7A"/>
<path d="M29.2799 34.8509C29.2461 34.8756 29.2846 34.9281 29.3184 34.9034C29.3522 34.8786 29.3137 34.8261 29.2799 34.8509Z" fill="#FFED7A"/>
<path d="M29.3204 34.6863C29.2867 34.7111 29.3252 34.7636 29.3589 34.7388C29.3927 34.714 29.3542 34.6615 29.3204 34.6863Z" fill="#FFED7A"/>
<path d="M29.381 33.4319C29.3472 33.4567 29.3857 33.5092 29.4195 33.4844C29.4533 33.4596 29.4148 33.4071 29.381 33.4319Z" fill="#FFED7A"/>
<path d="M32.0675 33.3562C32.0337 33.381 32.0722 33.4335 32.106 33.4087C32.1398 33.3839 32.1013 33.3314 32.0675 33.3562Z" fill="#FFED7A"/>
<path d="M29.8458 33.0336L30.0108 33.1593L30.1601 33.1948L30.1405 33.3253L30.2129 33.5032L30.048 33.3774L29.8987 33.3419L29.9183 33.2113L29.8458 33.0336Z" fill="#FFED7A"/>
<path d="M30.9633 33.6558L31.0589 33.7289L31.1456 33.7495L31.1343 33.8252L31.1763 33.9284L31.0805 33.8554L30.9938 33.8348L31.0053 33.759L30.9633 33.6558Z" fill="#FFED7A"/>
<path d="M30.0569 31.6576C29.9445 31.6479 29.8345 31.6583 29.7258 31.6886C29.6855 31.6998 29.709 31.7605 29.749 31.7493C29.8465 31.7222 29.9462 31.713 30.0471 31.7219C30.0886 31.7256 30.0987 31.6613 30.0569 31.6576Z" fill="#DB3500"/>
<path d="M30.0905 31.7917C30.0414 31.7918 29.9922 31.792 29.9431 31.7921C29.9012 31.7923 29.9084 31.8568 29.9498 31.8567L30.0973 31.8563C30.1391 31.8561 30.132 31.7916 30.0905 31.7917Z" fill="#DB3500"/>
<path d="M30.0602 31.9392C30.0264 31.964 30.0649 32.0165 30.0987 31.9917C30.1325 31.9669 30.0939 31.9145 30.0602 31.9392Z" fill="#DB3500"/>
<path d="M30.1202 32.6072C30.0865 32.632 30.125 32.6845 30.1588 32.6597C30.1925 32.6349 30.154 32.5824 30.1202 32.6072Z" fill="#DB3500"/>
<path d="M27.2395 33.5168C27.022 33.7806 26.7829 34.0214 26.5205 34.2407C26.4885 34.2675 26.5268 34.32 26.5589 34.2931C26.8259 34.07 27.0691 33.8255 27.2906 33.557C27.3172 33.5247 27.2663 33.4844 27.2397 33.5167L27.2395 33.5168Z" fill="#DB3500"/>
<path d="M26.7593 34.2004C26.7141 34.2266 26.6816 34.2625 26.6566 34.3081C26.6366 34.3447 26.6963 34.3703 26.7162 34.3339C26.7358 34.2982 26.7628 34.2731 26.7977 34.2528C26.834 34.2318 26.7951 34.1795 26.7593 34.2004Z" fill="#DB3500"/>
<path d="M31.0703 31.9747C30.8913 31.9275 30.7125 31.8802 30.5335 31.8331C30.4931 31.8223 30.4836 31.8868 30.5236 31.8973C30.7026 31.9445 30.8815 31.9918 31.0605 32.039C31.1009 32.0497 31.1104 31.9852 31.0703 31.9747Z" fill="#DB3500"/>
<path d="M30.7823 32.0451C30.7187 32.0127 30.6509 31.9937 30.5798 31.9882C30.5382 31.9851 30.5281 32.0493 30.5699 32.0525C30.636 32.0575 30.6974 32.0748 30.7564 32.1047C30.7937 32.1236 30.8195 32.064 30.7823 32.0451Z" fill="#DB3500"/>
<path d="M30.3458 44.6199C30.312 44.6447 30.3506 44.6972 30.3843 44.6724C30.4181 44.6476 30.3796 44.5951 30.3458 44.6199Z" fill="#DB3500"/>
<path d="M30.256 44.4973C30.2222 44.5221 30.2607 44.5746 30.2945 44.5498C30.3283 44.5251 30.2898 44.4726 30.256 44.4973Z" fill="#DB3500"/>
<path d="M30.1598 44.3665C30.126 44.3913 30.1645 44.4438 30.1983 44.419C30.2321 44.3942 30.1936 44.3417 30.1598 44.3665Z" fill="#DB3500"/>
</g>
<defs>
<linearGradient id="paint0_linear_209_3712" x1="30.4354" y1="47.6799" x2="30.4354" y2="58.445" gradientUnits="userSpaceOnUse">
<stop offset="0.0029" stop-color="#C2E0FF" stop-opacity="0"/>
<stop offset="0.0763" stop-color="#BFDCFD" stop-opacity="0.07451"/>
<stop offset="1" stop-color="#9EB2E7"/>
</linearGradient>
<linearGradient id="paint1_linear_209_3712" x1="50.8762" y1="40.8176" x2="-6.36443" y2="21.1702" gradientUnits="userSpaceOnUse">
<stop stop-color="#54498B" stop-opacity="0"/>
<stop offset="0.034" stop-color="#534889" stop-opacity="0.035294"/>
<stop offset="1" stop-color="#3B395F"/>
</linearGradient>
<radialGradient id="paint2_radial_209_3712" cx="0" cy="0" r="1" gradientUnits="userSpaceOnUse" gradientTransform="translate(17.4901 7.92699) scale(49.8079 49.8079)">
<stop stop-color="#FF6E3A"/>
<stop offset="0.2085" stop-color="#FF6A3C"/>
<stop offset="0.396" stop-color="#FF5F44"/>
<stop offset="0.5755" stop-color="#FF4D50"/>
<stop offset="0.7501" stop-color="#FF3361"/>
<stop offset="0.9195" stop-color="#FF1278"/>
<stop offset="1" stop-color="#FF0084"/>
</radialGradient>
<linearGradient id="paint3_linear_209_3712" x1="39.0501" y1="31.5393" x2="3.91278" y2="23.9314" gradientUnits="userSpaceOnUse">
<stop stop-color="#FF0084" stop-opacity="0"/>
<stop offset="0.0737" stop-color="#F4087E" stop-opacity="0.07451"/>
<stop offset="0.3347" stop-color="#D2216B" stop-opacity="0.333333"/>
<stop offset="0.583" stop-color="#BA335E" stop-opacity="0.584314"/>
<stop offset="0.8111" stop-color="#AB3D56" stop-opacity="0.811765"/>
<stop offset="1" stop-color="#A64153"/>
</linearGradient>
<linearGradient id="paint4_linear_209_3712" x1="45.5261" y1="46.9068" x2="7.14618" y2="8.52685" gradientUnits="userSpaceOnUse">
<stop stop-color="#FF0084" stop-opacity="0"/>
<stop offset="0.0737" stop-color="#F4087E" stop-opacity="0.07451"/>
<stop offset="0.3347" stop-color="#D2216B" stop-opacity="0.333333"/>
<stop offset="0.583" stop-color="#BA335E" stop-opacity="0.584314"/>
<stop offset="0.8111" stop-color="#AB3D56" stop-opacity="0.811765"/>
<stop offset="1" stop-color="#A64153"/>
</linearGradient>
<linearGradient id="paint5_linear_209_3712" x1="22.4651" y1="31.5956" x2="43.6304" y2="44.2708" gradientUnits="userSpaceOnUse">
<stop stop-color="#FFC738"/>
<stop offset="0.4286" stop-color="#FFBB23"/>
<stop offset="1" stop-color="#FFA700"/>
</linearGradient>
<linearGradient id="paint6_linear_209_3712" x1="30.4356" y1="24.459" x2="30.4356" y2="27.3687" gradientUnits="userSpaceOnUse">
<stop stop-color="#FFC738"/>
<stop offset="0.4286" stop-color="#FFBB23"/>
<stop offset="1" stop-color="#FFA700"/>
</linearGradient>
<linearGradient id="paint7_linear_209_3712" x1="37.0907" y1="34.9172" x2="26.8694" y2="17.6532" gradientUnits="userSpaceOnUse">
<stop stop-color="#FFA700" stop-opacity="0"/>
<stop offset="0.0206" stop-color="#FEA600" stop-opacity="0.019608"/>
<stop offset="0.6348" stop-color="#EC8C00" stop-opacity="0.635294"/>
<stop offset="1" stop-color="#E58200"/>
</linearGradient>
<linearGradient id="paint8_linear_209_3712" x1="42.2992" y1="29.4341" x2="37.3655" y2="24.3919" gradientUnits="userSpaceOnUse">
<stop stop-color="#FFA700" stop-opacity="0"/>
<stop offset="0.0206" stop-color="#FEA600" stop-opacity="0.019608"/>
<stop offset="0.6348" stop-color="#EC8C00" stop-opacity="0.635294"/>
<stop offset="1" stop-color="#E58200"/>
</linearGradient>
<linearGradient id="paint9_linear_209_3712" x1="35.7707" y1="42.4937" x2="28.2527" y2="34.9757" gradientUnits="userSpaceOnUse">
<stop stop-color="#FFA700" stop-opacity="0"/>
<stop offset="0.0206" stop-color="#FEA600" stop-opacity="0.019608"/>
<stop offset="0.6348" stop-color="#EC8C00" stop-opacity="0.635294"/>
<stop offset="1" stop-color="#E58200"/>
</linearGradient>
<linearGradient id="paint10_linear_209_3712" x1="30.4355" y1="22.6519" x2="30.4355" y2="28.2101" gradientUnits="userSpaceOnUse">
<stop stop-color="#3B395F"/>
<stop offset="0.0633" stop-color="#37355A"/>
<stop offset="0.4033" stop-color="#232543"/>
<stop offset="0.7232" stop-color="#171B35"/>
<stop offset="1" stop-color="#131830"/>
</linearGradient>
<linearGradient id="paint11_linear_209_3712" x1="30.4354" y1="44.7728" x2="30.4354" y2="48.9606" gradientUnits="userSpaceOnUse">
<stop stop-color="#FFA700" stop-opacity="0"/>
<stop offset="0.0206" stop-color="#FEA600" stop-opacity="0.019608"/>
<stop offset="0.6348" stop-color="#EC8C00" stop-opacity="0.635294"/>
<stop offset="1" stop-color="#E58200"/>
</linearGradient>
<clipPath id="clip0_209_3712">
<rect width="60" height="60" fill="white" transform="translate(0.435547 0.0878906)"/>
</clipPath>
</defs>
</svg>
