<svg width="62" height="61" viewBox="0 0 62 61" fill="none" xmlns="http://www.w3.org/2000/svg">
<path d="M47.1929 27.4245L47.3978 28.0047L49.2965 26.9072L47.1929 27.4245Z" fill="url(#paint0_linear_209_3809)"/>
<path d="M47.625 28.67L47.4424 28.0797L49.2965 26.9072L49.901 26.6455L47.625 28.67Z" fill="url(#paint1_linear_209_3809)"/>
<path d="M48.4569 30.159L47.7266 28.7694L48.5928 27.7754L49.9012 26.6455L48.4569 30.159Z" fill="url(#paint2_linear_209_3809)"/>
<path d="M55.1506 22.0813C54.83 22.5499 54.5258 22.767 54.2641 22.8542C53.9659 23.4668 53.5074 24.1667 52.8096 24.8402C53.3127 24.7509 54.2093 24.5582 54.3472 24.3189C54.6657 24.2296 55.2844 21.8866 55.1506 22.0813Z" fill="url(#paint3_linear_209_3809)"/>
<path d="M52.4044 23.5579C52.9034 22.8844 53.3315 22.1115 53.6276 21.2311C53.6134 20.6184 53.4329 18.5128 53.4329 18.5128C53.4329 18.5128 51.6498 17.1394 50.0127 16.7783C51.1365 18.0705 52.733 20.9024 52.4044 23.5579Z" fill="url(#paint4_linear_209_3809)"/>
<path d="M48.0024 27.041C48.0024 27.041 48.2804 25.0428 49.5077 23.9434C50.5564 23.0731 50.2278 22.4341 50.2278 22.4341C50.2278 22.4341 49.7044 23.3267 49.0756 23.3936C48.8788 23.4139 48.6922 23.5965 48.5278 23.8906C48.1668 24.5296 48.0552 25.8827 48.0024 27.041Z" fill="url(#paint5_linear_209_3809)"/>
<path d="M48.4905 23.9253C48.6548 23.6332 48.876 23.4729 49.0727 23.4526C49.7036 23.3857 50.1905 22.4688 50.1905 22.4688C50.1905 22.4688 49.6833 23.554 48.2877 23.4668C48.1741 23.4932 47.8475 23.5906 47.7785 24.0713C47.7257 24.1646 48.4905 23.9253 48.4905 23.9253Z" fill="url(#paint6_linear_209_3809)"/>
<path d="M48.9149 26.6025L48 27.0651C48 27.0651 48.2414 25.2211 49.3754 24.0526C49.3592 24.0161 50.5155 23.2757 50.2274 22.4318C50.2314 22.3243 50.7853 23.4785 49.3815 24.7261C48.6877 25.3428 48.9149 26.6025 48.9149 26.6025Z" fill="url(#paint7_linear_209_3809)"/>
<path d="M48.915 26.6031C48.915 26.6031 48.6148 25.4022 49.3796 24.7246C49.3796 24.7246 49.3877 25.3312 49.4688 25.605C49.5763 25.9661 49.7893 26.0452 49.7893 26.0452L48.915 26.6031Z" fill="url(#paint8_linear_209_3809)"/>
<path d="M50.0004 32.4229L48.6758 30.6053L48.8442 29.1001L49.901 26.6455L50.0004 32.4229Z" fill="url(#paint9_linear_209_3809)"/>
<path d="M54.1132 24.7871C54.1108 24.7895 54.1108 24.7919 54.1084 24.7943C54.1108 24.7919 54.1132 24.7895 54.1132 24.7871Z" fill="url(#paint10_linear_209_3809)"/>
<path d="M52.6252 25.0145C52.3838 25.2336 52.116 25.4466 51.8178 25.6535C51.8827 25.9253 51.7752 26.4731 50.3491 27.1384C50.3491 27.1384 52.8118 26.8159 54.1081 24.7954C54.0432 24.8542 53.2236 25.0997 52.6252 25.0145Z" fill="url(#paint11_linear_209_3809)"/>
<path opacity="0.13" d="M53.4328 18.5146L55.151 22.0809C55.151 22.0809 54.5587 26.1787 47.201 27.4141C47.1523 27.4141 53.2827 24.8418 53.4328 18.5146Z" fill="#141413"/>
<path d="M54.0535 18.7725L54.8244 21.0364C54.8244 21.0364 54.4633 26.1667 47.2009 27.4122C47.1523 27.4142 53.9034 25.1017 54.0535 18.7725Z" fill="url(#paint12_linear_209_3809)"/>
<g clip-path="url(#clip0_209_3809)">
<path d="M44.5035 33.6138C44.5473 33.6384 44.5909 33.6624 44.635 33.6859C44.8179 33.5637 45.0096 33.4525 45.1835 33.3181C46.3457 32.4212 47.5109 31.527 48.6588 30.6133C48.8436 30.4666 49.0003 30.2431 49.0855 30.0228C49.5351 28.8654 49.9438 27.6919 50.3944 26.5348C50.7904 25.5167 51.2158 24.5109 51.6399 23.5055C51.9383 22.7979 52.1094 22.0772 52.0505 21.3013C52.0223 20.9278 52.0822 20.5489 52.0841 20.1722C52.0872 19.2274 52.0849 18.2834 52.0749 17.3386C52.0714 16.9825 52.0528 16.6254 52.0173 16.2716C51.9968 16.0608 51.932 15.8668 51.6885 15.7789C51.475 15.701 51.2783 15.5794 50.9781 15.4289C50.0311 16.3078 49.1222 17.1669 48.1951 18.0073C47.4795 18.6557 46.7547 19.2943 46.0089 19.9078C45.6938 20.1676 45.5471 20.4372 45.5316 20.858C45.4791 22.2584 45.3811 23.658 45.2888 25.0565C45.1816 26.6895 45.0647 28.3219 44.9454 29.9551C44.9286 30.1844 44.8721 30.4111 44.8452 30.6411C44.7292 31.6317 44.6174 32.623 44.5041 33.6143L44.5035 33.6138Z" fill="#FFC24F" fill-opacity="0.7"/>
<path opacity="0.7" d="M45.6012 33.4743C45.5079 33.5491 45.4394 33.654 45.2824 33.8331C46.0552 33.8115 46.6783 33.7728 47.3016 33.7828C48.2009 33.7972 49.1004 33.8537 50.0002 33.8789C51.0554 33.9083 52.0635 33.7301 53.0592 33.137C51.9487 32.2205 50.8712 31.332 49.7382 30.3976C49.5171 30.5968 49.3417 30.758 49.1633 30.9139C49.0891 30.9786 48.9971 31.0947 48.929 31.0848C48.5817 31.033 48.3829 31.2848 48.162 31.4536C47.298 32.1137 46.451 32.7955 45.6016 33.4744L45.6012 33.4743Z" fill="#F54F00"/>
<path opacity="0.7" d="M52.9116 32.3603C53.1423 32.5658 53.3317 32.8993 53.6949 32.7977C54.0922 32.6863 54.4669 32.4976 54.8493 32.3347C54.9009 32.3121 54.9473 32.2502 54.971 32.1955C55.4487 31.0835 55.9258 29.9713 56.3987 28.8566C56.808 27.892 57.178 26.9075 57.628 25.9622C58.1708 24.8224 58.3781 23.6177 58.5401 22.3237C57.9463 22.8168 57.4116 23.2446 56.8962 23.695C56.6475 23.9134 56.449 24.1598 56.3206 24.496C56.0516 25.2003 55.7114 25.8795 55.3737 26.5549C54.8776 27.5483 54.357 28.5272 53.8517 29.5149C53.4221 30.3515 52.9995 31.1911 52.5648 32.049C52.7016 32.1712 52.8062 32.2668 52.9112 32.3602L52.9116 32.3603Z" fill="#F54F00"/>
<path opacity="0.7" d="M52.0773 31.761C52.2515 31.5083 52.4361 31.2898 52.566 31.044C53.2135 29.8181 53.841 28.5819 54.4855 27.3545C54.7783 26.7989 55.1075 26.2611 55.3993 25.7052C55.5443 25.4307 55.6412 25.131 55.7836 24.7873C54.6839 24.1897 53.6763 23.6412 52.6092 23.0608C51.6917 25.3884 50.8027 27.6439 49.8992 29.9359C50.6377 30.555 51.3246 31.1304 52.0777 31.7611L52.0773 31.761Z" fill="#FF820F"/>
<path opacity="0.8" d="M55.4408 24.0153C55.678 24.132 55.8671 24.1201 56.0487 23.8965C56.206 23.7046 56.4081 23.5492 56.6295 23.3403C56.3746 22.944 56.143 22.5538 55.8768 22.1872C55.8083 22.0911 55.6166 21.9994 55.5149 22.0273C54.754 22.2336 54.002 22.4694 53.1321 22.7303C53.3607 22.9143 53.4834 23.0526 53.6372 23.1305C54.2332 23.4359 54.8401 23.72 55.4407 24.0157L55.4408 24.0153Z" fill="#FF820F"/>
<path opacity="0.7" d="M52.6305 22.4154C52.9327 22.3446 53.155 22.3032 53.3714 22.2398C53.9134 22.0812 54.4474 21.8956 54.9927 21.754C55.4468 21.6367 55.778 21.4236 55.9696 20.9689C56.3097 20.1582 56.6964 19.3658 57.049 18.5605C57.7826 16.8885 58.5071 15.2134 59.2339 13.5396C59.2658 13.4672 59.2824 13.3902 59.3346 13.221C58.147 13.317 57.0633 13.5735 55.9695 13.8068C54.8677 14.0414 53.7405 14.156 52.541 14.3349C52.4915 15.0644 52.395 15.7685 52.4058 16.4712C52.4319 18.1255 52.5073 19.7805 52.5649 21.4346C52.5755 21.7252 52.6034 22.0162 52.6305 22.4154Z" fill="#FFA02D"/>
<path opacity="0.7" d="M56.7818 22.7647C56.9726 22.9345 57.1259 22.9592 57.32 22.7637C57.7144 22.3647 58.1203 21.9764 58.5321 21.5948C58.8565 21.295 59.0426 20.9282 59.0697 20.495C59.1075 19.9115 59.1125 19.3258 59.1365 18.742C59.1448 18.5541 59.1703 18.3681 59.185 18.1807C59.2772 16.9342 59.3683 15.6874 59.4595 14.4402C59.4164 14.4257 59.3733 14.4124 59.3302 14.3979C59.0753 14.9373 58.8158 15.4745 58.5671 16.0155C58.2079 16.7952 57.8389 17.5703 57.5054 18.3599C57.1712 19.1517 56.875 19.9598 56.5626 20.7612C56.5252 20.8592 56.4985 20.9621 56.4546 21.057C56.1315 21.7593 56.2345 22.277 56.7822 22.7644L56.7818 22.7647Z" fill="#E84200"/>
<path opacity="0.9" d="M59.0591 22.6363C59.1828 21.473 59.4838 20.3391 59.516 19.1561C59.5615 17.5009 59.7306 15.848 59.8593 14.1956C59.8998 13.678 59.9827 13.1637 60.052 12.6056C59.8765 12.5818 59.7287 12.523 59.6011 12.5508C58.4778 12.8004 57.3669 13.104 56.2367 13.3137C55.3316 13.4816 54.4076 13.5652 53.4878 13.6382C52.7517 13.6979 52.1024 13.7884 51.504 14.3616C50.7217 15.1092 49.7622 15.6673 48.9147 16.3512C48.1499 16.9674 47.4076 17.6187 46.7016 18.3022C46.3161 18.6752 46.0257 19.1468 45.6913 19.573C45.6524 19.6227 45.6169 19.6919 45.5655 19.7111C45.0208 19.9137 45.1101 20.329 45.1221 20.7866C45.1437 21.6019 45.0722 22.4202 45.0219 23.2363C44.9422 24.5351 44.8534 25.8324 44.7581 27.1294C44.7011 27.9045 44.6303 28.6776 44.5553 29.4503C44.433 30.7044 44.3066 31.9575 44.1748 33.2099C44.1578 33.3762 44.0987 33.5381 44.0688 33.7032C43.9926 34.1281 44.2592 34.4296 44.6949 34.4131C45.6177 34.379 46.5398 34.3099 47.4613 34.3136C48.4901 34.319 49.5179 34.4044 50.5476 34.4232C50.8948 34.4303 51.2588 34.3878 51.5899 34.2842C52.0272 34.1483 52.4236 33.863 52.8648 33.7629C53.4512 33.6308 53.913 33.2233 54.4722 33.0985C55.1562 32.9462 55.4051 32.4921 55.6237 31.9162C56.2099 30.3682 56.8131 28.8265 57.4394 27.293C57.7481 26.5372 58.1243 25.8094 58.4607 25.064C58.5631 24.8364 58.657 24.5996 58.7119 24.3574C58.8441 23.7874 58.9963 23.2159 59.0586 22.6355L59.0591 22.6363ZM59.0696 20.4949C59.0422 20.928 58.856 21.2951 58.532 21.5947C58.1203 21.976 57.7143 22.3646 57.32 22.7635C57.1258 22.959 56.9726 22.9344 56.7818 22.7646C56.234 22.2771 56.131 21.7594 56.4541 21.0571C56.4981 20.9619 56.5248 20.859 56.5621 20.7613C56.875 19.9597 57.1708 19.1518 57.5049 18.3601C57.8384 17.5704 58.2074 16.7954 58.5666 16.0156C58.8153 15.4746 59.0748 14.9375 59.3297 14.3981C59.3728 14.4125 59.4159 14.4259 59.459 14.4403C59.3679 15.6871 59.2768 16.934 59.1845 18.1809C59.1698 18.3682 59.1443 18.5542 59.136 18.7422C59.1121 19.3259 59.1073 19.9117 59.0692 20.4951L59.0696 20.4949ZM44.6347 33.6859C44.5906 33.6625 44.547 33.6384 44.5032 33.6138C44.6161 32.6224 44.7283 31.6312 44.8443 30.6406C44.8712 30.4106 44.9277 30.1839 44.9445 29.9546C45.0638 28.3214 45.1807 26.689 45.2879 25.056C45.3803 23.6571 45.4782 22.2579 45.5307 20.8575C45.5462 20.4367 45.6929 20.1671 46.008 19.9073C46.7537 19.2938 47.4785 18.6555 48.1941 18.0068C49.1213 17.1663 50.0302 16.3073 50.9772 15.4283C51.2774 15.5789 51.4741 15.7004 51.6875 15.7784C51.931 15.8663 51.9962 16.0604 52.0164 16.2711C52.0519 16.6249 52.0706 16.9816 52.0739 17.3381C52.0837 18.2829 52.0863 19.2269 52.0832 20.1716C52.0813 20.5484 52.0214 20.9273 52.0496 21.3008C52.1085 22.0766 51.9373 22.7977 51.639 23.505C51.2148 24.5104 50.7894 25.5165 50.3935 26.5343C49.9429 27.6914 49.5342 28.8649 49.0846 30.0223C48.9994 30.2426 48.8427 30.4661 48.6579 30.6128C47.5097 31.5264 46.3449 32.4204 45.1826 33.3176C45.0087 33.452 44.817 33.5632 44.6341 33.6854L44.6347 33.6859ZM45.2825 33.8331C45.4397 33.6544 45.508 33.549 45.6013 33.4742C46.4508 32.7953 47.2977 32.1136 48.1617 31.4534C48.3827 31.2846 48.5815 31.0328 48.9288 31.0846C48.9969 31.0945 49.0889 30.9781 49.163 30.9138C49.3415 30.7578 49.5168 30.5966 49.7379 30.3974C50.8709 31.3318 51.9484 32.2203 53.059 33.1368C52.0632 33.7302 51.0554 33.9086 50 33.8787C49.1001 33.8535 48.2007 33.797 47.3013 33.7826C46.6781 33.7726 46.055 33.8113 45.2822 33.833L45.2825 33.8331ZM53.6948 32.7981C53.3316 32.8997 53.1418 32.5661 52.9115 32.3607C52.8064 32.2672 52.7019 32.1717 52.565 32.0495C53.0001 31.1916 53.4227 30.3521 53.852 29.5154C54.3576 28.5278 54.8783 27.5485 55.374 26.5554C55.7117 25.8799 56.0515 25.2006 56.3209 24.4965C56.4492 24.1602 56.6477 23.9139 56.8965 23.6955C57.4118 23.2451 57.9466 22.8173 58.5404 22.3241C58.3785 23.6178 58.1711 24.8229 57.6283 25.9627C57.1783 26.9079 56.8086 27.8926 56.399 28.8571C55.9258 29.9714 55.4491 31.0836 54.9712 32.196C54.9472 32.2505 54.9008 32.3125 54.8495 32.3351C54.4672 32.4981 54.0923 32.6871 53.6952 32.7982L53.6948 32.7981ZM52.5662 31.0442C52.4363 31.29 52.2516 31.5085 52.0775 31.7612C51.3244 31.1305 50.6376 30.5551 49.8991 29.936C50.8029 27.644 51.6919 25.3885 52.609 23.0609C53.6761 23.6413 54.6841 24.1899 55.7834 24.7874C55.6414 25.1312 55.5441 25.4308 55.3991 25.7053C55.1073 26.2612 54.7782 26.7989 54.4854 27.3545C53.8407 28.5823 53.2133 29.8185 52.5659 31.0441L52.5662 31.0442ZM56.0488 23.8962C55.8671 24.1199 55.678 24.1317 55.4409 24.0151C54.8403 23.7194 54.2333 23.4353 53.6374 23.1299C53.4836 23.052 53.3608 22.9137 53.1323 22.7297C54.0018 22.4687 54.7542 22.233 55.5151 22.0267C55.6168 21.9988 55.8084 22.0905 55.877 22.1866C56.1428 22.5531 56.3744 22.9434 56.6297 23.3397C56.4082 23.5487 56.2062 23.704 56.0489 23.8959L56.0488 23.8962ZM53.3712 22.2396C53.1548 22.303 52.9321 22.3443 52.6303 22.4152C52.6032 22.016 52.5752 21.725 52.5647 21.4344C52.5066 19.7806 52.4317 18.1253 52.4056 16.471C52.3951 15.7684 52.4912 15.0642 52.5408 14.3347C53.7402 14.1561 54.8674 14.0412 55.9693 13.8066C57.0631 13.5733 58.1468 13.3168 59.3343 13.2208C59.2818 13.39 59.2652 13.467 59.2336 13.5394C58.5072 15.2133 57.7824 16.8883 57.0488 18.5603C56.6958 19.3655 56.3095 20.158 55.9694 20.9687C55.7778 21.4234 55.4465 21.6365 54.9925 21.7538C54.4472 21.8954 53.9135 22.0811 53.3712 22.2396ZM51.9568 15.465C51.6874 15.2594 51.5545 15.1588 51.3903 15.0335C51.5563 14.8743 51.6694 14.7655 51.9054 14.5387C51.9263 14.9037 51.9374 15.1044 51.9568 15.465Z" fill="#DB3500"/>
<path d="M51.3902 15.0335C51.5544 15.1587 51.687 15.2593 51.9568 15.465C51.9369 15.1046 51.9259 14.9036 51.9053 14.5387C51.6694 14.7655 51.5566 14.8744 51.3902 15.0335Z" fill="#FF820F"/>
<path d="M45.8573 22.0484C45.8368 22.1277 45.7136 22.0958 45.7341 22.0165C45.7546 21.9372 45.8779 21.9691 45.8573 22.0484Z" fill="#FFD865"/>
</g>
<path d="M28.8552 21.0917L29.4665 21.0223L28.8233 18.9256L28.8552 21.0917Z" fill="url(#paint13_linear_209_3809)"/>
<path d="M30.1657 20.9504L29.5495 20.9958L28.8231 18.9258L28.7038 18.2779L30.1657 20.9504Z" fill="url(#paint14_linear_209_3809)"/>
<path d="M31.8036 20.4741L30.2855 20.8738L29.5114 19.8065L28.704 18.2778L31.8036 20.4741Z" fill="url(#paint15_linear_209_3809)"/>
<path d="M25.4352 12.1374C25.8199 12.5549 25.9631 12.9001 25.9893 13.1747C26.5194 13.6029 27.0985 14.2067 27.5981 15.038C27.6241 14.5277 27.6376 13.6107 27.4353 13.4225C27.4198 13.0921 25.2755 11.9632 25.4352 12.1374Z" fill="url(#paint16_linear_209_3809)"/>
<path d="M26.2572 15.1454C25.7129 14.5079 25.0558 13.9173 24.2644 13.4311C23.6642 13.3074 21.5718 13.0106 21.5718 13.0106C21.5718 13.0106 19.8332 14.4399 19.1138 15.9541C20.6253 15.149 23.7433 14.229 26.2572 15.1454Z" fill="url(#paint17_linear_209_3809)"/>
<path d="M28.6636 20.2169C28.6636 20.2169 26.7789 19.4974 25.983 18.0546C25.3704 16.8373 24.6739 17.0141 24.6739 17.0141C24.6739 17.0141 25.4262 17.7245 25.3503 18.3523C25.3259 18.5486 25.4619 18.7715 25.7116 18.9976C26.2532 19.4929 27.5467 19.9054 28.6636 20.2169Z" fill="url(#paint18_linear_209_3809)"/>
<path d="M25.737 19.0412C25.4892 18.8155 25.3827 18.5641 25.4071 18.3678C25.4835 17.738 24.6993 17.0577 24.6993 17.0577C24.6993 17.0577 25.643 17.7955 25.2447 19.136C25.2449 19.2526 25.2665 19.5927 25.7195 19.7679C25.7986 19.8402 25.737 19.0412 25.737 19.0412Z" fill="url(#paint19_linear_209_3809)"/>
<path d="M28.4415 19.229L28.6869 20.2243C28.6869 20.2243 26.9441 19.5751 26.0601 18.2078C26.0208 18.2154 25.5589 16.9224 24.6719 17.0136C24.568 16.9856 25.8171 16.705 26.7177 18.353C27.1629 19.1676 28.4415 19.229 28.4415 19.229Z" fill="url(#paint20_linear_209_3809)"/>
<path d="M28.4412 19.2289C28.4412 19.2289 27.2035 19.2518 26.715 18.3545C26.715 18.3545 27.3079 18.4827 27.593 18.4652C27.969 18.4414 28.0939 18.2516 28.0939 18.2516L28.4412 19.2289Z" fill="url(#paint21_linear_209_3809)"/>
<path d="M34.356 19.4778L32.2874 20.3606L30.8584 19.8587L28.7038 18.2777L34.356 19.4778Z" fill="url(#paint22_linear_209_3809)"/>
<path d="M27.839 13.7561C27.8407 13.759 27.8431 13.7595 27.8449 13.7623C27.8431 13.7595 27.8413 13.7566 27.839 13.7561Z" fill="url(#paint23_linear_209_3809)"/>
<path d="M27.7264 15.2565C27.8857 15.5409 28.0332 15.8497 28.1679 16.1867C28.4473 16.1845 28.9569 16.4122 29.2852 17.9513C29.2852 17.9513 29.5237 15.479 27.8458 13.7623C27.8886 13.8387 27.9438 14.6925 27.7264 15.2565Z" fill="url(#paint24_linear_209_3809)"/>
<path opacity="0.13" d="M21.5744 13.0109L25.4353 12.1372C25.4353 12.1372 29.2955 13.6344 28.8476 21.0816C28.8367 21.129 27.7063 14.5777 21.5744 13.0109Z" fill="#141413"/>
<path d="M21.9647 12.4637L24.3439 12.2207C24.3439 12.2207 29.2622 13.7243 28.8456 21.0809C28.8366 21.1288 28.0986 14.0308 21.9647 12.4637Z" fill="url(#paint25_linear_209_3809)"/>
<g clip-path="url(#clip1_209_3809)">
<path d="M34.2819 25.1016C34.3156 25.0644 34.3489 25.0273 34.3816 24.9896C34.3036 24.784 34.2383 24.5722 34.1463 24.3725C33.5333 23.0386 32.9235 21.7024 32.2908 20.3787C32.1893 20.1657 32.0067 19.9628 31.8111 19.8303C30.7842 19.1324 29.7325 18.4707 28.706 17.7718C27.8028 17.1574 26.9181 16.5171 26.0336 15.878C25.4111 15.4284 24.7472 15.0999 23.9779 14.9831C23.6075 14.9268 23.2518 14.7833 22.8851 14.6969C21.9651 14.4818 21.0448 14.2721 20.1218 14.0697C19.774 13.9932 19.4218 13.9311 19.0691 13.8863C18.8591 13.859 18.6555 13.8786 18.5152 14.0961C18.3913 14.2867 18.2287 14.4511 18.0146 14.7098C18.6585 15.8299 19.2916 16.9085 19.9024 18.0007C20.3736 18.8435 20.8332 19.6932 21.2636 20.5576C21.446 20.9231 21.6759 21.1265 22.0825 21.2361C23.4353 21.6016 24.7772 22.0113 26.1192 22.4152C27.6865 22.8863 29.251 23.3666 30.8157 23.8496C31.0354 23.9174 31.2436 24.0234 31.4617 24.1012C32.401 24.4367 33.3419 24.7682 34.2825 25.1011L34.2819 25.1016Z" fill="#FFC24F" fill-opacity="0.7"/>
<path opacity="0.7" d="M34.3923 24.0002C34.4442 24.1079 34.5311 24.1983 34.6704 24.3914C34.8228 23.6335 34.9249 23.0176 35.0746 22.4125C35.2905 21.5393 35.5476 20.6756 35.7741 19.8043C36.0397 18.7827 36.0923 17.7603 35.7378 16.6568C34.5955 17.5333 33.4877 18.3838 32.3229 19.2782C32.4673 19.5383 32.585 19.7454 32.6969 19.9543C32.7433 20.0411 32.8358 20.1568 32.8108 20.2209C32.6824 20.5477 32.8831 20.798 32.998 21.0512C33.4473 22.0413 33.9216 23.0197 34.3925 23.9999L34.3923 24.0002Z" fill="#F54F00"/>
<path opacity="0.7" d="M34.9479 16.6267C35.1999 16.4481 35.5675 16.3383 35.55 15.9616C35.5306 15.5495 35.4308 15.1419 35.3579 14.7327C35.3475 14.6774 35.2976 14.6182 35.2496 14.5829C34.2732 13.8677 33.2965 13.1531 32.3165 12.442C31.4684 11.8267 30.592 11.245 29.7719 10.5943C28.7831 9.80946 27.6557 9.33701 26.431 8.8887C26.7782 9.57801 27.0751 10.1952 27.3983 10.7985C27.5553 11.0899 27.7508 11.3386 28.0497 11.5392C28.6755 11.9594 29.261 12.4434 29.8434 12.9241C30.7 13.6306 31.5371 14.3577 32.3862 15.0718C33.105 15.6782 33.8282 16.2786 34.5667 16.8948C34.7165 16.7889 34.8331 16.7085 34.9478 16.627L34.9479 16.6267Z" fill="#F54F00"/>
<path opacity="0.7" d="M34.1771 17.3049C33.9699 17.0784 33.7985 16.8494 33.5881 16.6677C32.5389 15.7615 31.475 14.8725 30.4237 13.9689C29.948 13.5588 29.4978 13.1173 29.0217 12.7082C28.7867 12.5053 28.5164 12.3435 28.2135 12.1276C27.3842 13.0651 26.6235 13.9238 25.8184 14.8334C27.8806 16.25 29.8789 17.6226 31.9096 19.0176C32.6787 18.437 33.3936 17.8969 34.1772 17.3045L34.1771 17.3049Z" fill="#FF820F"/>
<path opacity="0.8" d="M27.3838 12.288C27.5507 12.0831 27.5816 11.8961 27.4044 11.6689C27.2528 11.4726 27.1467 11.2408 26.9928 10.9781C26.5495 11.1376 26.1172 11.2756 25.7002 11.4527C25.5912 11.4979 25.4588 11.6641 25.4631 11.7694C25.4934 12.5572 25.5543 13.343 25.6133 14.2493C25.8439 14.0679 26.0062 13.9793 26.1166 13.8469C26.548 13.3347 26.9611 12.8071 27.3841 12.2882L27.3838 12.288Z" fill="#FF820F"/>
<path opacity="0.7" d="M25.1937 14.6677C25.1925 14.3574 25.2021 14.1314 25.1889 13.9063C25.156 13.3426 25.095 12.7805 25.0794 12.2174C25.0671 11.7486 24.9338 11.3779 24.5337 11.0891C23.8201 10.5757 23.1347 10.021 22.4291 9.49662C20.9645 8.40637 19.4947 7.3243 18.0268 6.24035C17.9635 6.19303 17.8922 6.15955 17.739 6.07068C17.5659 7.24946 17.5726 8.36308 17.5544 9.48138C17.5357 10.6078 17.3942 11.7319 17.2993 12.9409C17.9991 13.153 18.6636 13.4051 19.3507 13.5523C20.9687 13.8982 22.5984 14.1963 24.2232 14.5114C24.5087 14.5664 24.7986 14.6045 25.1937 14.6677Z" fill="#FFA02D"/>
<path opacity="0.7" d="M26.4661 10.7005C26.6745 10.5527 26.7329 10.4089 26.586 10.1758C26.2857 9.70197 25.9985 9.21929 25.7191 8.73229C25.4997 8.34885 25.184 8.08518 24.768 7.96152C24.2079 7.7937 23.6382 7.65728 23.0748 7.50288C22.8935 7.45258 22.7179 7.38603 22.5387 7.32958C21.3446 6.95993 20.1501 6.59123 18.9553 6.22237C18.9315 6.26116 18.9088 6.30012 18.885 6.33891C19.3535 6.7084 19.8186 7.08181 20.29 7.44564C20.9692 7.97073 21.6416 8.50427 22.3362 9.00661C23.0328 9.50993 23.7538 9.98002 24.4645 10.4644C24.5516 10.5229 24.646 10.5719 24.7285 10.636C25.3404 11.1085 25.868 11.1244 26.466 10.7001L26.4661 10.7005Z" fill="#E84200"/>
<path opacity="0.9" d="M26.8524 8.45286C25.7465 8.07115 24.7092 7.52322 23.5636 7.22635C21.9608 6.81038 20.3881 6.27454 18.8068 5.7782C18.3115 5.62252 17.8289 5.42628 17.3006 5.23343C17.238 5.3991 17.1476 5.52991 17.146 5.66055C17.137 6.81118 17.1835 7.96191 17.1341 9.11031C17.0945 10.0301 16.9686 10.9492 16.8332 11.8619C16.7261 12.5926 16.6686 13.2457 17.0928 13.9574C17.6457 14.8876 17.9742 15.948 18.4503 16.9273C18.8791 17.8109 19.3472 18.6805 19.8547 19.5219C20.1317 19.9813 20.526 20.3702 20.8663 20.7918C20.9059 20.8408 20.9654 20.8909 20.9726 20.9454C21.0478 21.5216 21.4725 21.5279 21.9211 21.6189C22.7204 21.7809 23.5018 22.0342 24.2857 22.2665C25.5335 22.6357 26.7777 23.0134 28.0202 23.3975C28.7628 23.6271 29.5003 23.8695 30.2364 24.1161C31.4311 24.5169 32.6238 24.9214 33.8146 25.3309C33.9728 25.3848 34.1174 25.4788 34.2716 25.545C34.6685 25.7147 35.0221 25.5225 35.1038 25.0943C35.2778 24.1873 35.4175 23.2733 35.6279 22.3761C35.8642 21.3748 36.1781 20.3924 36.4276 19.3932C36.5124 19.0565 36.5528 18.6922 36.5261 18.3463C36.4919 17.8897 36.3029 17.4393 36.3044 16.9869C36.3073 16.3858 36.0139 15.8444 36.0178 15.2713C36.0229 14.5707 35.6363 14.2261 35.1241 13.8838C33.7473 12.9651 32.3803 12.0312 31.0266 11.0766C30.3593 10.6061 29.7346 10.0762 29.0838 9.58102C28.885 9.43006 28.6752 9.28542 28.4516 9.17752C27.9258 8.9208 27.4031 8.64416 26.8514 8.45317L26.8524 8.45286ZM24.768 7.96183C25.1838 8.0858 25.4998 8.34963 25.719 8.7326C25.9981 9.21943 26.2857 9.70228 26.5859 10.1761C26.7329 10.4092 26.6744 10.553 26.4661 10.7008C25.8682 11.1252 25.3405 11.1093 24.7287 10.6368C24.6458 10.5726 24.5514 10.5235 24.4647 10.4652C23.7537 9.98033 23.0329 9.51072 22.3364 9.0074C21.6417 8.50506 20.9693 7.97152 20.2901 7.44643C19.8188 7.0826 19.3536 6.70919 18.8852 6.3397C18.9089 6.30091 18.9316 6.26195 18.9554 6.22316C20.1499 6.59186 21.3444 6.96056 22.5388 7.33037C22.718 7.38682 22.8936 7.45337 23.0749 7.50367C23.6384 7.65807 24.2082 7.79417 24.7681 7.96231L24.768 7.96183ZM34.3817 24.9897C34.349 25.0274 34.3157 25.0644 34.282 25.1016C33.3412 24.769 32.4004 24.4372 31.4612 24.1017C31.2431 24.0239 31.0348 23.918 30.8152 23.8501C29.2504 23.3672 27.686 22.8868 26.1187 22.4157C24.7763 22.0117 23.4348 21.6021 22.0819 21.2366C21.6754 21.127 21.4455 20.9236 21.2631 20.5582C20.8327 19.6937 20.3734 18.8442 19.9019 18.0012C19.291 16.909 18.6579 15.8304 18.014 14.7103C18.2281 14.4516 18.3907 14.2872 18.5146 14.0967C18.6549 13.8791 18.8587 13.8592 19.0685 13.8868C19.4213 13.9316 19.7731 13.9935 20.1212 14.0703C21.0441 14.2729 21.9646 14.4823 22.8846 14.6974C23.2512 14.7838 23.607 14.9273 23.9773 14.9836C24.7466 15.1004 25.4109 15.4291 26.0331 15.8785C26.9176 16.5176 27.8025 17.1581 28.7055 17.7724C29.7319 18.4712 30.7837 19.1329 31.8106 19.8308C32.0062 19.9634 32.1888 20.1662 32.2902 20.3792C32.9228 21.7033 33.5324 23.039 34.1458 24.373C34.2377 24.5727 34.303 24.7845 34.3811 24.9901L34.3817 24.9897ZM34.6705 24.3914C34.5317 24.1981 34.4443 24.1079 34.3924 24.0002C33.9216 23.02 33.4473 22.0416 32.998 21.0515C32.8831 20.7983 32.6824 20.548 32.8108 20.2212C32.8358 20.157 32.743 20.0412 32.6969 19.9545C32.585 19.7457 32.4673 19.5386 32.3228 19.2784C33.4877 18.3841 34.5954 17.5336 35.7378 16.6571C36.0926 17.7607 36.0401 18.7829 35.7741 19.8046C35.5475 20.6758 35.2905 21.5396 35.0746 22.4128C34.9249 23.0179 34.8228 23.6338 34.6704 24.3917L34.6705 24.3914ZM35.5505 15.9615C35.568 16.3382 35.2003 16.4482 34.9485 16.6266C34.8338 16.708 34.7172 16.7885 34.5674 16.8944C33.8291 16.2778 33.1059 15.6775 32.3869 15.0714C31.538 14.3569 30.7006 13.6297 29.8441 12.9237C29.2617 12.443 28.6761 11.9593 28.0504 11.5388C27.7515 11.3382 27.556 11.0894 27.399 10.798C27.0758 10.1947 26.7789 9.57757 26.4317 8.88826C27.6561 9.33641 28.7838 9.80902 29.7727 10.5939C30.5927 11.2446 31.4693 11.8259 32.3172 12.4416C33.2968 13.1528 34.2736 13.8671 35.2503 14.5825C35.2981 14.6181 35.3481 14.6773 35.3586 14.7323C35.4315 15.1415 35.5316 15.5492 35.5507 15.9611L35.5505 15.9615ZM33.588 16.6675C33.7984 16.8493 33.9698 17.0783 34.177 17.3047C33.3934 17.897 32.6785 18.4372 31.9093 19.0178C29.8788 17.6225 27.8804 16.2499 25.8181 14.8336C26.6232 13.924 27.3841 13.0649 28.2132 12.1278C28.5163 12.3434 28.7864 12.5055 29.0214 12.7084C29.4976 13.1175 29.9477 13.559 30.4234 13.9691C31.4751 14.8729 32.5389 15.7618 33.5879 16.6679L33.588 16.6675ZM27.4043 11.6692C27.5815 11.8964 27.5506 12.0833 27.3837 12.2882C26.9607 12.8072 26.5476 13.3348 26.1162 13.8469C26.0058 13.9793 25.8434 14.0679 25.6128 14.2493C25.5537 13.3434 25.493 12.5573 25.4627 11.7695C25.4584 11.6641 25.5907 11.498 25.6998 11.4528C26.1166 11.276 26.5489 11.1379 26.9924 10.9782C27.1463 11.2409 27.2524 11.4726 27.404 11.669L27.4043 11.6692ZM25.1889 13.9065C25.2021 14.1316 25.1923 14.3579 25.1937 14.6679C24.7986 14.6047 24.5087 14.5666 24.2232 14.5116C22.5985 14.197 20.9687 13.8984 19.3507 13.5524C18.6638 13.405 17.9991 13.1532 17.2993 12.9411C17.3945 11.7322 17.5357 10.608 17.5544 9.48158C17.5726 8.36328 17.5659 7.24966 17.739 6.07088C17.892 6.16006 17.9633 6.19354 18.0268 6.24054C19.4949 7.32418 20.9644 8.40657 22.4291 9.49681C23.1345 10.0215 23.82 10.5759 24.5337 11.0893C24.9338 11.3781 25.0671 11.7488 25.0794 12.2176C25.095 12.7807 25.1562 13.3424 25.1889 13.9065ZM18.2697 13.7639C18.0089 13.9803 17.8809 14.0872 17.722 14.2191C17.6042 14.0216 17.5235 13.8869 17.3555 13.6061C17.7159 13.6677 17.9139 13.7019 18.2697 13.7639Z" fill="#DB3500"/>
<path d="M17.7221 14.219C17.881 14.0871 18.0088 13.9805 18.2697 13.7638C17.9141 13.7023 17.7158 13.6679 17.3555 13.606C17.5236 13.8868 17.6044 14.0212 17.7221 14.219Z" fill="#FF820F"/>
<path d="M23.3159 21.1864C23.3885 21.2242 23.3298 21.3371 23.2571 21.2993C23.1845 21.2615 23.2432 21.1486 23.3159 21.1864Z" fill="#FFD865"/>
<g clip-path="url(#clip2_209_3809)">
<path d="M43.9666 17.504C44.1765 17.1624 44.1625 17.0923 43.9823 16.7274C43.8882 16.5376 43.7925 16.3488 43.7063 16.1554C43.5955 15.9072 43.4945 15.6549 43.3881 15.4045C43.3282 15.2636 43.2722 15.1194 43.139 15.0157C43.1128 15.0253 43.0995 15.0267 43.0911 15.0339C42.8054 15.2819 42.5201 15.5304 42.2353 15.779C42.2218 15.7906 42.2113 15.8055 42.1999 15.819C42.0168 16.0286 41.8413 16.2454 41.6479 16.4448C41.544 16.5521 41.5034 16.6683 41.4928 16.8096C41.4826 16.9449 41.4582 17.0791 41.4434 17.2139C41.4389 17.2531 41.4394 17.2952 41.4494 17.3327C41.5202 17.596 41.6264 17.8405 41.7679 18.078C41.9194 18.3329 42.0742 18.5824 42.2587 18.814C42.314 18.883 42.3661 18.955 42.4125 19.0304C42.5544 19.262 42.692 19.4967 42.8339 19.7285C42.8569 19.7661 42.893 19.7959 42.9386 19.847C42.9659 19.7786 42.9865 19.7309 43.0041 19.6819C43.0741 19.4866 43.1326 19.2864 43.2145 19.0962C43.3459 18.7911 43.4897 18.4916 43.633 18.1919C43.7426 17.9619 43.8312 17.7241 43.9667 17.5038L43.9666 17.504ZM41.5048 19.2794C41.8828 19.5262 42.2984 19.6483 42.7312 19.798C42.7153 19.7497 42.7126 19.7268 42.7015 19.7091C42.4243 19.269 42.1386 18.8349 41.836 18.4112C41.6719 18.1821 41.4594 18.0511 41.1767 17.9451C41.2907 18.4096 41.3987 18.8489 41.5048 19.2794ZM43.228 19.7861C43.4696 19.6264 43.7101 19.4646 43.9492 19.3006C43.9918 19.2716 44.0626 19.224 44.0575 19.1958C44.0369 19.0735 44.1381 18.9939 44.1433 18.8792C44.1552 18.6034 44.1875 18.3285 44.1611 18.0519C44.1566 18.0054 44.1613 17.9577 44.1637 17.9106C44.1722 17.7304 44.1816 17.5499 44.1908 17.3698C44.1763 17.3669 44.1618 17.3639 44.1476 17.3611C43.7454 18.1604 43.3273 18.9526 43.0639 19.8538C43.1451 19.821 43.1911 19.8106 43.2281 19.7859L43.228 19.7861ZM43.799 19.5311C43.5366 19.7008 43.2677 19.8614 43.0015 20.0261C42.9769 20.0415 42.9523 20.0574 42.9109 20.0834C42.7076 19.8301 42.4178 19.773 42.1417 19.6888C42.0969 19.6751 42.0532 19.657 42.0094 19.6402C41.877 19.5896 41.747 19.5325 41.6121 19.4889C41.4689 19.443 41.3771 19.3318 41.3495 19.1855C41.3071 18.9591 41.2549 18.7343 41.1993 18.5103C41.1469 18.2987 41.0897 18.0878 41.0254 17.8796C40.9643 17.681 41.0142 17.4812 41.0023 17.2826C40.9912 17.0943 40.9677 16.9065 40.9447 16.7188C40.9235 16.5467 40.9316 16.3925 41.0246 16.2279C41.1724 15.9657 41.2828 15.6818 41.3992 15.403C41.4741 15.2234 41.5166 15.0294 41.602 14.8556C41.6547 14.7477 41.7569 14.6629 41.8424 14.5729C42.1234 14.2769 42.4048 13.9812 42.6904 13.6896C42.8963 13.4798 42.9075 13.4916 43.0741 13.688C43.275 13.9242 43.5174 14.1134 43.7563 14.3079C43.9438 14.4608 44.1192 14.6293 44.2933 14.7975C44.506 15.0033 44.5637 15.2786 44.5987 15.5556C44.6725 16.1376 44.7996 16.7077 44.9662 17.2696C44.988 17.3432 45.0012 17.4198 45.0236 17.4934C45.0386 17.5426 45.0567 17.5933 45.0853 17.6354C45.1592 17.7442 45.1576 17.7681 45.0821 17.8595C45.034 17.9177 44.9912 17.9832 44.9585 18.0517C44.864 18.2493 44.7714 18.4484 44.6866 18.6503C44.6323 18.779 44.5982 18.9157 44.5457 19.0449C44.5253 19.095 44.4851 19.1662 44.4434 19.1746C44.188 19.2246 44.0057 19.3978 43.7989 19.5314L43.799 19.5311ZM41.2381 17.8212C41.3252 17.8818 41.427 17.9215 41.5339 17.9757C41.5256 17.8003 41.2849 17.2383 41.1004 17.0157C41.105 17.1557 41.109 17.2961 41.1149 17.4362C41.118 17.5126 41.112 17.5924 41.1326 17.6643C41.1495 17.7229 41.1891 17.787 41.2381 17.8212L41.2381 17.8212ZM44.246 19.0987C44.4293 19.036 44.4086 18.99 44.3923 18.8472C44.3828 18.766 44.3579 18.686 44.3536 18.6047C44.3419 18.3928 44.3389 18.1808 44.33 17.9691C44.3278 17.9199 44.3165 17.8712 44.3095 17.8224C44.3016 17.8231 44.2934 17.8236 44.2854 17.8243C44.2723 18.2448 44.2594 18.6653 44.246 19.0987ZM44.4829 18.7631C44.4921 18.7658 44.5009 18.7686 44.5099 18.7716C44.5315 18.7336 44.5564 18.6967 44.5736 18.6569C44.6065 18.5809 44.6326 18.5017 44.6654 18.4252C44.7469 18.2354 44.8282 18.0454 44.9146 17.8579C44.9486 17.7839 44.9526 17.7211 44.8863 17.6675C44.7358 17.5454 44.5926 17.4124 44.382 17.3149C44.4168 17.8149 44.45 18.2889 44.483 18.763L44.4829 18.7631ZM41.3192 17.0111C41.4002 16.8794 41.5295 15.5949 41.5184 15.4343C41.3826 15.7344 41.24 16.0475 41.0988 16.3615C41.0868 16.3881 41.0671 16.4239 41.0759 16.4451C41.1538 16.6332 41.1804 16.8444 41.3192 17.0111ZM44.4696 17.2372C44.6074 17.3094 44.7287 17.4126 44.8932 17.5268C44.8683 17.3896 44.8565 17.2918 44.8325 17.1972C44.7398 16.8308 44.6411 16.4658 44.5488 16.0993C44.4954 15.8871 44.4442 15.6742 44.4013 15.4594C44.3705 15.3041 44.2805 15.2222 44.1297 15.1969C44.0889 15.1899 44.0475 15.1856 44.0067 15.1772C43.8623 15.1471 43.7184 15.1153 43.5734 15.0856C43.5262 15.0757 43.4777 15.0705 43.3961 15.058C43.4745 15.23 43.5406 15.3665 43.5995 15.5057C43.7761 15.9238 43.9458 16.3449 44.1262 16.7613C44.2048 16.9427 44.2707 17.1333 44.4694 17.2373L44.4696 17.2372ZM41.5966 15.9044C41.5862 16.0234 41.5922 16.1438 41.5906 16.2606C42.0386 15.8401 42.4781 15.4273 42.946 14.9879C42.8403 14.9902 42.7718 14.9907 42.7036 14.9935C42.5145 15.0018 42.3255 15.0098 42.1365 15.0207C42.0367 15.0266 41.9364 15.0336 41.8375 15.0488C41.7098 15.0682 41.6863 15.0933 41.6714 15.2175C41.6441 15.4462 41.6164 15.675 41.5965 15.9044L41.5966 15.9044ZM41.8564 14.9198C42.2448 14.905 42.5978 14.8915 42.9505 14.878C42.9717 14.825 43.0114 14.7728 43.0092 14.722C43.0029 14.5721 42.9869 14.4214 42.9619 14.2733C42.9406 14.1464 42.9037 14.0217 42.8693 13.8973C42.8574 13.8542 42.8315 13.8148 42.7994 13.7462C42.7136 13.8419 42.6392 13.916 42.5747 13.9977C42.4615 14.1419 42.3564 14.2921 42.2439 14.4365C42.1229 14.5922 41.9972 14.7445 41.8566 14.9197L41.8564 14.9198ZM43.1862 14.7099C43.2052 14.809 43.2836 14.8799 43.3888 14.9097C43.4681 14.9321 43.5452 14.9632 43.6255 14.9824C43.8148 15.0282 44.0049 15.0711 44.1955 15.1102C44.2259 15.1166 44.2612 15.098 44.3031 15.0891C44.2934 15.0509 44.2945 15.0169 44.2782 14.9976C44.1762 14.8749 44.0791 14.7463 43.9635 14.6376C43.7879 14.4726 43.5977 14.3227 43.4155 14.1644C43.2694 14.037 43.1257 13.9066 42.95 13.7499C42.9694 13.8577 42.974 13.9293 42.9953 13.9956C43.0702 14.2309 43.1395 14.4667 43.1861 14.7099L43.1862 14.7099Z" fill="#DB3500"/>
</g>
</g>
<g clip-path="url(#clip3_209_3809)">
<path d="M18.1265 45.3872L18.4175 46.2115L21.115 44.6523L18.1265 45.3872Z" fill="url(#paint26_linear_209_3809)"/>
<path d="M18.7403 47.1569L18.481 46.3183L21.115 44.6525L21.9738 44.2808L18.7403 47.1569Z" fill="url(#paint27_linear_209_3809)"/>
<path d="M19.9218 49.2722L18.8843 47.2981L20.1149 45.886L21.9737 44.2808L19.9218 49.2722Z" fill="url(#paint28_linear_209_3809)"/>
<path d="M29.4322 37.7966C28.9768 38.4623 28.5445 38.7707 28.1728 38.8946C27.7491 39.7649 27.0978 40.7592 26.1064 41.716C26.8212 41.5892 28.095 41.3154 28.2909 40.9753C28.7434 40.8485 29.6224 37.5199 29.4322 37.7966Z" fill="url(#paint29_linear_209_3809)"/>
<path d="M25.5301 39.8945C26.239 38.9377 26.8471 37.8397 27.2679 36.589C27.2477 35.7186 26.9912 32.7272 26.9912 32.7272C26.9912 32.7272 24.458 30.7762 22.1323 30.2632C23.7289 32.099 25.997 36.1221 25.5301 39.8945Z" fill="url(#paint30_linear_209_3809)"/>
<path d="M19.2764 44.8427C19.2764 44.8427 19.6712 42.004 21.4147 40.442C22.9047 39.2057 22.4378 38.2979 22.4378 38.2979C22.4378 38.2979 21.6943 39.5659 20.8009 39.661C20.5214 39.6898 20.2562 39.9492 20.0228 40.3671C19.5098 41.2749 19.3513 43.1971 19.2764 44.8427Z" fill="url(#paint31_linear_209_3809)"/>
<path d="M19.9708 40.4164C20.2043 40.0014 20.5184 39.7737 20.7979 39.7449C21.6942 39.6498 22.3859 38.3472 22.3859 38.3472C22.3859 38.3472 21.6654 39.889 19.6826 39.7651C19.5212 39.8025 19.0573 39.9409 18.9593 40.6239C18.8843 40.7564 19.9708 40.4164 19.9708 40.4164Z" fill="url(#paint32_linear_209_3809)"/>
<path d="M20.5732 44.2202L19.2734 44.8773C19.2734 44.8773 19.6164 42.2577 21.2274 40.5977C21.2043 40.5458 22.847 39.4939 22.4378 38.295C22.4435 38.1423 23.2303 39.7821 21.236 41.5545C20.2504 42.4306 20.5732 44.2202 20.5732 44.2202Z" fill="url(#paint33_linear_209_3809)"/>
<path d="M20.5732 44.2204C20.5732 44.2204 20.1467 42.5143 21.2332 41.5518C21.2332 41.5518 21.2447 42.4134 21.36 42.8025C21.5127 43.3155 21.8153 43.4279 21.8153 43.4279L20.5732 44.2204Z" fill="url(#paint34_linear_209_3809)"/>
<path d="M22.1148 52.4884L20.2329 49.9062L20.4721 47.7679L21.9736 44.2808L22.1148 52.4884Z" fill="url(#paint35_linear_209_3809)"/>
<path d="M27.9581 41.6411C27.9546 41.6446 27.9546 41.648 27.9512 41.6514C27.9546 41.648 27.9581 41.6446 27.9581 41.6411Z" fill="url(#paint36_linear_209_3809)"/>
<path d="M25.8443 41.9641C25.5014 42.2753 25.121 42.5779 24.6973 42.8719C24.7896 43.2581 24.6368 44.0362 22.6108 44.9814C22.6108 44.9814 26.1095 44.5232 27.951 41.6528C27.8588 41.7364 26.6945 42.0851 25.8443 41.9641Z" fill="url(#paint37_linear_209_3809)"/>
<path opacity="0.13" d="M26.9913 32.73L29.4323 37.7964C29.4323 37.7964 28.5908 43.6178 18.1381 45.3729C18.0689 45.3729 26.7781 41.7186 26.9913 32.73Z" fill="#141413"/>
<path d="M27.8731 33.0962L28.9683 36.3124C28.9683 36.3124 28.4553 43.6007 18.1381 45.3702C18.0689 45.3731 27.6599 42.0877 27.8731 33.0962Z" fill="url(#paint38_linear_209_3809)"/>
<path opacity="0.8" d="M38.6181 39.2105C38.5807 40.1629 38.3452 40.5645 37.4279 40.7914C35.864 41.1801 34.2816 41.4975 32.6972 41.792C31.6241 41.9909 30.5339 42.1023 29.4509 42.2475C29.3455 42.2618 29.2369 42.2336 28.9975 42.2141C28.7262 41.5071 28.3653 40.7783 28.1658 40.0066C27.8817 38.9045 27.7182 37.7682 27.4953 36.6482C27.397 36.1562 27.4973 35.8496 28.0119 35.5931C29.1627 35.0205 30.2548 34.3297 31.3907 33.7234C31.6254 33.5993 31.9554 33.5631 32.2205 33.608C32.6145 33.6764 33.0209 33.7959 33.3663 33.9937C34.8285 34.8311 36.2702 35.7034 37.7192 36.564C38.3018 36.9089 38.6338 37.3966 38.6124 38.1014C38.601 38.47 38.634 38.8417 38.6181 39.2105Z" fill="#FF820F"/>
<path opacity="0.8" d="M37.6841 41.3653C37.6273 41.7473 37.659 41.9929 37.5532 42.1405C37.3438 42.4342 37.0825 42.7026 36.8036 42.9333C34.5696 44.787 32.3144 46.615 30.0914 48.479C29.138 49.2765 28.2478 50.1495 27.3121 50.9659C27.1033 51.1495 26.8263 51.3564 26.5741 51.3659C25.9216 51.3888 25.2627 51.3224 24.6102 51.2581C24.4937 51.2472 24.3943 51.0782 24.1797 50.8878C24.6963 49.8095 25.1338 48.673 25.7577 47.649C26.5967 46.2684 27.588 44.9799 28.4966 43.6406C28.7604 43.2535 29.0467 43.0239 29.5457 42.9638C30.5967 42.8352 31.6374 42.6304 32.6781 42.4256C33.9652 42.172 35.2467 41.8863 36.5328 41.6132C36.8502 41.5451 37.1696 41.4762 37.6842 41.3647L37.6841 41.3653Z" fill="#F54F00"/>
<path opacity="0.8" d="M34.6718 33.2168C35.2458 33.7213 35.8122 34.2329 36.3004 34.8732C35.263 34.3059 34.2268 33.7415 33.1757 33.1671C33.0979 32.7063 33.0155 32.2201 32.9141 31.6382C33.7874 31.9066 34.1007 32.7136 34.6712 33.2166L34.6718 33.2168Z" fill="#E84200"/>
<path opacity="0.8" d="M31.1058 30.9343C31.7355 31.1137 32.1756 31.5627 32.1987 32.4682C30.8176 33.2262 29.4437 33.9963 28.0539 34.7349C27.8431 34.8474 27.5428 34.9082 27.3199 34.8523C24.88 34.233 22.3636 33.885 20.0534 32.8007C19.3463 32.4698 18.8227 31.7415 18.4178 30.3909C19.4158 29.8384 20.4049 29.2388 21.442 28.7432C21.8062 28.5684 22.3241 28.5301 22.7174 28.633C25.5232 29.3653 28.3177 30.1365 31.1061 30.9331L31.1058 30.9343Z" fill="#FFC24F"/>
<path opacity="0.8" d="M27.8363 41.6153C27.8648 41.7479 27.8008 41.9018 27.7693 42.1187C26.6458 42.0469 25.586 41.7692 24.5901 41.357C22.3817 40.4473 20.1544 39.621 17.8238 39.0665C16.8829 38.8427 16.0022 38.3705 14.8835 37.9285C16.5681 36.5088 18.088 35.2013 19.6503 33.9503C19.8803 33.7661 20.3405 33.7479 20.6579 33.8189C22.5897 34.2543 24.5103 34.7358 26.4263 35.1995C26.9282 37.4715 27.3884 39.5417 27.8359 41.6146L27.8363 41.6153Z" fill="#FFA02D"/>
<path opacity="0.8" d="M25.1312 52.246C25.1889 52.2657 25.2259 52.3471 25.3424 52.4741C24.5906 53.4473 23.6815 54.2247 22.6408 54.8509C22.5612 54.7899 22.4808 54.7301 22.4012 54.6691C22.6236 54.0873 22.8256 53.4948 23.0751 52.9247C23.4627 52.0423 23.6458 51.9571 24.5996 52.1116C24.7797 52.1417 24.9577 52.1886 25.1306 52.2458L25.1312 52.246Z" fill="#F54F00"/>
<path opacity="0.8" d="M27.7682 43.1004C26.6112 45.0761 25.4825 46.8849 24.4731 48.7592C23.4822 50.602 22.6096 52.5112 21.5707 54.6233C21.0009 53.1167 20.5125 51.8055 20.0122 50.4966C19.5113 49.1895 19.048 47.867 18.4832 46.5899C17.9013 45.2805 17.1948 44.0281 16.5855 42.7294C15.9982 41.4738 15.4649 40.1928 14.9093 38.9225C14.9525 38.8547 14.9945 38.7891 15.0377 38.7213C19.2458 40.1701 23.4545 41.6164 27.7676 43.1002L27.7682 43.1004Z" fill="#FF6500"/>
<path opacity="0.8" d="M20.5535 54.4958C20.4595 54.5551 20.3684 54.6126 20.2748 54.6702C19.3895 53.4663 18.4979 52.2647 17.6195 51.056C16.5188 49.5466 15.2994 48.106 14.3686 46.4947C13.2319 44.5334 12.3389 42.429 11.35 40.381C10.8239 39.2941 10.3113 38.2016 9.79648 37.1079C9.72019 36.9464 9.66397 36.773 9.53955 36.4575C11.1228 37.153 12.6207 37.7721 13.7349 38.9044C14.4564 39.637 14.9138 40.6707 15.3624 41.6297C16.143 43.29 16.8421 44.9895 17.5456 46.6863C17.9513 47.6676 18.2938 48.6754 18.6756 49.6683C19.2963 51.2783 19.9262 52.8868 20.5531 54.495L20.5535 54.4958Z" fill="#F54F00"/>
<path opacity="0.8" d="M19.9547 28.3019C19.979 28.3802 20.0057 28.4572 20.0308 28.5352C19.2362 28.9503 18.4395 29.3661 17.5778 29.8163C17.2295 29.4408 16.9326 29.1214 16.487 28.6422C17.8165 28.5111 18.886 28.4063 19.9554 28.3014L19.9547 28.3019Z" fill="#F54F00"/>
<path opacity="0.8" d="M15.4685 28.6573C16.8032 30.1296 18.284 31.4359 19.151 33.3422C17.9018 34.4164 16.7212 35.4019 15.5772 36.4309C15.1661 36.7996 14.8583 36.8547 14.3206 36.622C12.6751 35.9095 10.9797 35.3112 9.31349 34.645C8.25286 34.221 7.44333 33.4388 6.50445 32.6196C9.50852 31.2185 12.351 29.7211 15.4684 28.6579L15.4685 28.6573Z" fill="#FF820F"/>
<path opacity="0.8" d="M13.8438 37.5359C13.0295 37.5082 11.9384 36.9837 10.8754 36.1531C12.0697 36.4306 12.9548 36.9873 13.8438 37.5359Z" fill="#FF820F"/>
<path opacity="0.8" d="M12.2562 44.3319C11.3249 43.2785 9.81828 42.7349 9.54733 41.1127C8.27023 39.1283 7.9031 36.792 7.07454 34.6346C7.05069 34.5699 7.06448 34.4892 7.06104 34.4165C8.0899 34.9798 8.19607 35.1363 8.46265 36.1129C8.5664 36.4901 8.76158 36.8478 8.94455 37.2006C10.1538 39.5206 11.5324 41.7573 12.256 44.3325L12.2562 44.3319Z" fill="#E84200"/>
<path d="M27.7682 43.1002C23.4551 41.6164 19.2464 40.17 15.0383 38.7213C14.9951 38.7891 14.9531 38.8546 14.9099 38.9224C15.4648 40.1932 15.9988 41.4738 16.5861 42.7293C17.1948 44.0279 17.9019 45.2805 18.4838 46.5899C19.0486 47.867 19.512 49.1894 20.0128 50.4965C20.5132 51.8055 21.0014 53.1173 21.5714 54.6233C22.6104 52.5106 23.483 50.6013 24.4738 48.7591C25.4838 46.885 26.612 45.0755 27.7688 43.1003L27.7682 43.1002ZM9.08058 30.7508C10.9703 29.9535 12.8164 29.0547 14.7102 28.2642C15.3033 28.0178 15.9797 27.9358 16.6272 27.8545C18.2853 27.6484 19.9479 27.4838 21.6078 27.3069C21.8096 27.2871 22.0608 27.2261 22.2131 27.3162C23.7964 28.2535 25.6077 28.4917 27.3246 29.0118C28.7647 29.4481 30.2087 29.8656 31.6444 30.3124C31.8394 30.3731 31.9965 30.5535 32.1754 30.6731C32.2947 30.7514 32.4735 30.9108 32.537 30.8748C33.4253 30.3701 33.6626 31.2255 34.1041 31.6216C34.9497 32.3784 35.7974 33.1371 36.612 33.9301C37.1081 34.4138 37.5454 34.959 38.0058 35.4796C38.0783 35.562 38.1144 35.6945 38.2031 35.7442C39.2592 36.3423 39.194 37.3623 39.1881 38.364C39.1876 38.5846 39.1239 38.8321 39.2009 39.022C39.5963 40.0143 39.255 40.9003 38.8494 41.7809C38.7594 41.9739 38.6618 42.1902 38.5051 42.3216C37.4219 43.2338 36.3169 44.1177 35.2304 45.0279C32.9817 46.9107 30.6668 48.7224 28.5146 50.7119C26.7178 52.3764 24.8436 53.9368 22.9482 55.4766C22.6632 55.7085 22.3542 55.9134 22.0429 56.1068C21.1992 56.6299 20.7649 56.5492 20.1841 55.7518C18.6919 53.7026 17.2155 51.6437 15.7136 49.603C15.0415 48.6905 14.3556 47.7818 13.6079 46.9313C13.1791 46.4433 12.5791 46.1095 12.1183 45.6459C10.9592 44.4803 9.72931 43.3623 8.74136 42.0611C8.16997 41.3115 7.83834 40.2666 7.70989 39.3119C7.42328 37.1908 6.43475 35.3256 5.82541 33.3265C5.76495 33.1233 5.63513 32.909 5.47438 32.7752C5.08019 32.4419 5.25752 32.1384 5.44955 31.8058C6.80271 31.9351 7.92087 31.2391 9.08118 30.7509L9.08058 30.7508ZM15.4679 28.6573C12.3506 29.7206 9.50806 31.2179 6.50398 32.619C7.44286 33.4382 8.25239 34.2204 9.31303 34.6445C10.9792 35.3107 12.6747 35.9089 14.3201 36.6214C14.8578 36.8541 15.1663 36.7992 15.5768 36.4303C16.7207 35.4013 17.9013 34.4158 19.1505 33.3417C18.2839 31.4361 16.8026 30.1297 15.4681 28.6567L15.4679 28.6573ZM20.0533 32.8007C22.3635 33.8851 24.8803 34.2338 27.3198 34.8524C27.5427 34.9083 27.843 34.8475 28.0538 34.735C29.4432 33.9956 30.8175 33.2263 32.1986 32.4682C32.1756 31.5622 31.7361 31.1133 31.1057 30.9344C28.3173 30.1378 25.5228 29.3666 22.717 28.6343C22.3237 28.5314 21.8058 28.5696 21.4416 28.7445C20.4046 29.2395 19.4154 29.8397 18.4174 30.3922C18.8223 31.7428 19.3465 32.4713 20.053 32.802L20.0533 32.8007ZM38.6175 39.2098C38.633 38.8403 38.5998 38.4692 38.6118 38.1008C38.6332 37.3959 38.3006 36.9082 37.7186 36.5634C36.2696 35.7028 34.828 34.8305 33.3657 33.9931C33.0203 33.7953 32.6139 33.6758 32.2199 33.6074C31.9548 33.5625 31.6242 33.5985 31.3902 33.7228C30.2542 34.3291 29.162 35.0205 28.0113 35.5925C27.4973 35.8491 27.3964 36.1556 27.4947 36.6476C27.7176 37.7676 27.8813 38.9033 28.1652 40.0059C28.3641 40.7776 28.725 41.5063 28.9969 42.2135C29.2362 42.2336 29.3447 42.2617 29.4503 42.2469C30.5333 42.1017 31.6235 41.9903 32.6966 41.7914C34.2809 41.4975 35.8634 41.1795 37.4273 40.7908C38.3447 40.5638 38.5803 40.1616 38.6175 39.2098ZM26.4263 35.1993C24.5109 34.7358 22.5898 34.2535 20.6579 33.8187C20.3405 33.7477 19.8803 33.7659 19.6502 33.9501C18.088 35.2011 16.5681 36.5086 14.8835 37.9283C16.0022 38.3703 16.8829 38.8425 17.8238 39.0663C20.1544 39.6208 22.3811 40.447 24.5901 41.3568C25.5854 41.7689 26.6457 42.0467 27.7693 42.1184C27.8008 41.9016 27.8648 41.7477 27.8363 41.6151C27.3882 39.5421 26.9285 37.4727 26.4268 35.2L26.4263 35.1993ZM37.5526 42.1405C37.6584 41.9929 37.6267 41.7473 37.6835 41.3653C37.1683 41.4766 36.8493 41.5463 36.5321 41.6139C35.246 41.8869 33.9645 42.1727 32.6774 42.4262C31.6367 42.6311 30.596 42.8359 29.545 42.9644C29.046 43.0246 28.7597 43.2542 28.4959 43.6412C27.5872 44.9805 26.5965 46.2692 25.757 47.6496C25.1327 48.6729 24.6949 49.81 24.179 50.8884C24.3941 51.0796 24.4929 51.2479 24.6095 51.2588C25.2618 51.3236 25.9209 51.3895 26.5734 51.3665C26.8256 51.357 27.1025 51.1501 27.3114 50.9666C28.2465 50.15 29.1374 49.2765 30.0906 48.4797C32.3143 46.6158 34.5689 44.7876 36.8029 42.934C37.0819 42.7026 37.3437 42.435 37.5525 42.1411L37.5526 42.1405ZM36.2998 34.8724C35.8114 34.2328 35.2451 33.7205 34.6711 33.216C34.1008 32.7124 33.7873 31.906 32.914 31.6376C33.0152 32.2201 33.0977 32.7063 33.1757 33.1665C34.2267 33.7409 35.2629 34.3053 36.3004 34.8726L36.2998 34.8724ZM25.3418 52.4731C25.2253 52.3461 25.1877 52.2646 25.1306 52.245C24.9571 52.1876 24.7792 52.1407 24.5996 52.1107C23.6459 51.9562 23.4628 52.0408 23.0751 52.9239C22.8258 53.4933 22.6237 54.0858 22.4012 54.6683C22.4808 54.7292 22.5613 54.7891 22.6409 54.85C23.6814 54.2244 24.5899 53.4469 25.3424 52.4733L25.3418 52.4731ZM20.2746 54.6693C20.3682 54.6118 20.4592 54.5543 20.5533 54.4949C19.9263 52.8872 19.2965 51.2782 18.6758 49.6682C18.294 48.6753 17.9515 47.6675 17.5458 46.6862C16.8423 44.9894 16.1432 43.2898 15.3626 41.6296C14.9141 40.6699 14.4567 39.6363 13.7351 38.9043C12.6207 37.7726 11.123 37.1529 9.53975 36.4574C9.66417 36.7729 9.72039 36.9462 9.79668 37.1077C10.3115 38.2015 10.8241 39.294 11.3502 40.3808C12.3398 42.4284 13.2323 44.5326 14.3688 46.4946C15.2991 48.1051 16.519 49.5465 17.6197 51.0559C18.4983 52.2639 19.3899 53.4655 20.275 54.67L20.2746 54.6693ZM20.0299 28.5356C20.0056 28.4572 19.9789 28.3802 19.9538 28.3023C18.8844 28.4072 17.8149 28.512 16.4855 28.6431C16.931 29.1223 17.2286 29.4413 17.5762 29.8172C18.4379 29.3671 19.2346 28.9512 20.0292 28.5361L20.0299 28.5356ZM10.8754 36.1533C11.9379 36.9832 13.0295 37.5084 13.8438 37.5362C12.9546 36.9881 12.0703 36.431 10.8754 36.1533ZM9.54668 41.1117C9.81809 42.7347 11.3247 43.2782 12.2555 44.3309C11.5319 41.7557 10.1534 39.5185 8.94405 37.199C8.76108 36.8462 8.5653 36.4884 8.46215 36.1113C8.19557 35.1347 8.0894 34.9782 7.06054 34.4149C7.06384 34.4882 7.05019 34.5683 7.07404 34.633C7.9026 36.7904 8.26959 39.1273 9.54683 41.1111L9.54668 41.1117Z" fill="#DB3500"/>
</g>
<path opacity="0.8" d="M49.5996 5.4018C49.5868 5.72808 49.5061 5.86567 49.1918 5.94343C48.6561 6.07656 48.114 6.18532 47.5711 6.28621C47.2035 6.35436 46.83 6.39252 46.459 6.44226C46.4229 6.44714 46.3857 6.43748 46.3037 6.43081C46.2108 6.18859 46.0871 5.93893 46.0188 5.67454C45.9214 5.297 45.8654 4.9077 45.789 4.52402C45.7554 4.35547 45.7897 4.25041 45.966 4.16255C46.3603 3.96637 46.7344 3.72973 47.1236 3.522C47.204 3.47949 47.317 3.46708 47.4079 3.48247C47.5428 3.5059 47.6821 3.54685 47.8004 3.6146C48.3013 3.90151 48.7952 4.20033 49.2916 4.49515C49.4912 4.61333 49.605 4.78039 49.5976 5.02185C49.5937 5.14813 49.605 5.27546 49.5996 5.4018Z" fill="#FF820F"/>
<path opacity="0.8" d="M49.2794 6.14057C49.2599 6.27144 49.2708 6.35559 49.2345 6.40614C49.1628 6.50678 49.0733 6.59872 48.9777 6.67777C48.2124 7.31281 47.4398 7.93907 46.6782 8.57766C46.3516 8.85084 46.0466 9.14993 45.7261 9.42964C45.6545 9.49252 45.5596 9.56339 45.4733 9.56665C45.2497 9.57452 45.024 9.55175 44.8004 9.52973C44.7605 9.526 44.7265 9.46811 44.653 9.40285C44.8299 9.03346 44.9798 8.64412 45.1936 8.2933C45.481 7.82033 45.8206 7.3789 46.1319 6.92006C46.2223 6.78746 46.3203 6.7088 46.4913 6.68821C46.8513 6.64416 47.2079 6.574 47.5644 6.50383C48.0054 6.41696 48.4444 6.31907 48.885 6.22552C48.9937 6.20217 49.1031 6.17856 49.2794 6.14036L49.2794 6.14057Z" fill="#F54F00"/>
<path opacity="0.8" d="M48.2477 3.34891C48.4443 3.52175 48.6384 3.69704 48.8056 3.91637C48.4502 3.72203 48.0952 3.52867 47.7352 3.33189C47.7085 3.17404 47.6802 3.00746 47.6455 2.80811C47.9447 2.90006 48.052 3.17654 48.2475 3.34886L48.2477 3.34891Z" fill="#E84200"/>
<path opacity="0.8" d="M47.0255 2.56653C47.2412 2.62796 47.392 2.78179 47.3999 3.09199C46.9268 3.35169 46.4561 3.6155 45.98 3.86855C45.9077 3.9071 45.8049 3.92791 45.7285 3.90877C44.8926 3.6966 44.0305 3.5774 43.2391 3.20591C42.9968 3.09257 42.8175 2.84305 42.6788 2.38034C43.0207 2.19106 43.3595 1.98565 43.7148 1.81587C43.8396 1.75597 44.017 1.74288 44.1517 1.77812C45.113 2.02898 46.0703 2.29319 47.0256 2.56611L47.0255 2.56653Z" fill="#FFC24F"/>
<path opacity="0.8" d="M45.906 6.22602C45.9157 6.27144 45.8938 6.32415 45.883 6.39845C45.4981 6.37385 45.1351 6.27874 44.7939 6.1375C44.0373 5.82587 43.2743 5.54277 42.4758 5.35283C42.1535 5.27615 41.8518 5.11436 41.4685 4.96294C42.0457 4.47659 42.5663 4.02866 43.1015 3.60007C43.1804 3.53696 43.338 3.53072 43.4468 3.55507C44.1086 3.70424 44.7665 3.86918 45.4229 4.02804C45.5949 4.80641 45.7525 5.51562 45.9058 6.22576L45.906 6.22602Z" fill="#FFA02D"/>
<path opacity="0.8" d="M44.9788 9.86773C44.9985 9.87449 45.0112 9.90239 45.0511 9.94589C44.7936 10.2793 44.4822 10.5456 44.1256 10.7601C44.0983 10.7393 44.0708 10.7187 44.0435 10.6979C44.1197 10.4986 44.1889 10.2956 44.2744 10.1003C44.4072 9.79796 44.4699 9.76876 44.7967 9.82168C44.8584 9.832 44.9193 9.84807 44.9786 9.86768L44.9788 9.86773Z" fill="#F54F00"/>
<path opacity="0.8" d="M45.8822 6.73495C45.4858 7.41182 45.0992 8.0315 44.7534 8.67359C44.4139 9.3049 44.115 9.95899 43.759 10.6826C43.5638 10.1664 43.3965 9.71723 43.2251 9.2688C43.0535 8.82099 42.8948 8.36795 42.7013 7.93043C42.502 7.48184 42.2599 7.05279 42.0512 6.60786C41.85 6.17772 41.6673 5.73887 41.4769 5.30366C41.4917 5.28043 41.5061 5.25798 41.5209 5.23476C42.9625 5.73108 44.4044 6.22658 45.882 6.7349L45.8822 6.73495Z" fill="#FF6500"/>
<path opacity="0.8" d="M43.4109 10.6387C43.3787 10.659 43.3475 10.6787 43.3155 10.6984C43.0122 10.286 42.7067 9.8743 42.4058 9.46023C42.0287 8.94313 41.6109 8.44959 41.2921 7.89759C40.9027 7.22567 40.5967 6.50474 40.2579 5.80311C40.0777 5.43077 39.9021 5.05648 39.7257 4.68178C39.6996 4.62646 39.6803 4.56708 39.6377 4.45898C40.1801 4.69726 40.6933 4.90934 41.075 5.29726C41.3221 5.54824 41.4788 5.90235 41.6325 6.23091C41.9 6.79969 42.1394 7.38193 42.3805 7.96322C42.5194 8.29943 42.6368 8.64468 42.7676 8.98484C42.9802 9.5364 43.196 10.0874 43.4108 10.6384L43.4109 10.6387Z" fill="#F54F00"/>
<path opacity="0.8" d="M43.2059 1.66525C43.2142 1.6921 43.2234 1.71847 43.232 1.74517C42.9597 1.88738 42.6868 2.02985 42.3916 2.18407C42.2723 2.05544 42.1706 1.94601 42.0179 1.78184C42.4734 1.73693 42.8398 1.70101 43.2061 1.66509L43.2059 1.66525Z" fill="#F54F00"/>
<path opacity="0.8" d="M41.6684 1.78664C42.1256 2.29106 42.6329 2.73858 42.9299 3.39165C42.502 3.75963 42.0975 4.09726 41.7056 4.44979C41.5648 4.57611 41.4593 4.59498 41.2751 4.51524C40.7114 4.27115 40.1306 4.06621 39.5597 3.83797C39.1964 3.69269 38.919 3.42474 38.5974 3.14409C39.6266 2.66408 40.6004 2.15111 41.6683 1.78685L41.6684 1.78664Z" fill="#FF820F"/>
<path opacity="0.8" d="M41.1116 4.82833C40.8327 4.81883 40.4589 4.63915 40.0947 4.35458C40.5038 4.44964 40.8071 4.64036 41.1116 4.82833Z" fill="#FF820F"/>
<path opacity="0.8" d="M40.5684 7.15664C40.2493 6.79576 39.7332 6.60954 39.6403 6.05379C39.2028 5.37397 39.0771 4.57359 38.7932 3.83449C38.785 3.8123 38.7898 3.78466 38.7886 3.75977C39.141 3.95273 39.1774 4.00636 39.2687 4.34092C39.3043 4.47016 39.3712 4.59269 39.4338 4.71355C39.8481 5.50838 40.3204 6.27462 40.5683 7.15685L40.5684 7.15664Z" fill="#E84200"/>
<path d="M45.8827 6.73473C44.405 6.22641 42.9632 5.73091 41.5215 5.23459C41.5068 5.25781 41.4924 5.28026 41.4776 5.30349C41.6677 5.73886 41.8506 6.17755 42.0518 6.60769C42.2603 7.05257 42.5026 7.48167 42.7019 7.93026C42.8954 8.36778 43.0542 8.82082 43.2257 9.26863C43.3972 9.71706 43.5644 10.1665 43.7597 10.6824C44.1157 9.95862 44.4146 9.30452 44.754 8.67342C45.1 8.03138 45.4865 7.41145 45.8829 6.73478L45.8827 6.73473ZM39.4805 2.50399C40.1279 2.23087 40.7604 1.92293 41.4091 1.65212C41.6123 1.5677 41.8441 1.53962 42.0659 1.51178C42.6339 1.44116 43.2035 1.38477 43.7722 1.32418C43.8413 1.3174 43.9274 1.29648 43.9795 1.32734C44.522 1.64846 45.1425 1.73007 45.7307 1.90823C46.224 2.05773 46.7187 2.20074 47.2106 2.35383C47.2774 2.37461 47.3312 2.43642 47.3925 2.47739C47.4334 2.50421 47.4946 2.5588 47.5164 2.54649C47.8207 2.3736 47.902 2.66662 48.0532 2.80232C48.3429 3.06161 48.6333 3.32152 48.9124 3.59319C49.0824 3.75891 49.2322 3.94568 49.3899 4.12404C49.4147 4.15224 49.4271 4.19765 49.4575 4.21467C49.8193 4.41957 49.797 4.76903 49.7949 5.1122C49.7948 5.18774 49.773 5.27255 49.7994 5.33761C49.9348 5.67757 49.8179 5.98107 49.6789 6.28276C49.6481 6.3489 49.6146 6.42299 49.5609 6.468C49.1899 6.78053 48.8113 7.08334 48.4391 7.39515C47.6687 8.04018 46.8757 8.66082 46.1384 9.34243C45.5228 9.91264 44.8807 10.4472 44.2314 10.9748C44.1337 11.0542 44.0279 11.1244 43.9212 11.1906C43.6322 11.3699 43.4834 11.3422 43.2844 11.069C42.7732 10.367 42.2674 9.66163 41.7529 8.96252C41.5226 8.64992 41.2877 8.33861 41.0315 8.04722C40.8846 7.88005 40.6791 7.76571 40.5212 7.60687C40.1241 7.20754 39.7028 6.82454 39.3643 6.37875C39.1686 6.12197 39.0549 5.764 39.0109 5.43694C38.9127 4.71025 38.5741 4.07128 38.3653 3.38639C38.3446 3.31678 38.3001 3.24339 38.2451 3.19754C38.11 3.08334 38.1708 2.97939 38.2366 2.86545C38.7001 2.90974 39.0832 2.6713 39.4807 2.50404L39.4805 2.50399ZM41.6687 1.78679C40.6008 2.15106 39.627 2.66402 38.5978 3.14403C38.9195 3.42469 39.1968 3.69264 39.5601 3.83792C40.131 4.06615 40.7118 4.2711 41.2755 4.51519C41.4597 4.59493 41.5654 4.57611 41.706 4.44974C42.0979 4.09721 42.5024 3.75958 42.9303 3.3916C42.6335 2.73879 42.126 2.29121 41.6688 1.78659L41.6687 1.78679ZM43.2396 3.20629C44.0311 3.57778 44.8933 3.69723 45.729 3.90915C45.8054 3.92829 45.9083 3.90748 45.9805 3.86893C46.4565 3.61563 46.9273 3.35207 47.4004 3.09237C47.3926 2.78197 47.242 2.62819 47.026 2.56691C46.0708 2.29399 45.1134 2.02978 44.1522 1.77892C44.0174 1.74368 43.84 1.75677 43.7152 1.81667C43.36 1.98624 43.0211 2.19186 42.6792 2.38114C42.8179 2.84384 42.9975 3.09341 43.2395 3.2067L43.2396 3.20629ZM49.5995 5.40196C49.6048 5.27536 49.5934 5.14824 49.5975 5.02201C49.6049 4.78054 49.4909 4.61344 49.2915 4.49531C48.7951 4.20049 48.3012 3.90166 47.8003 3.61476C47.6819 3.54701 47.5427 3.50606 47.4078 3.48263C47.3169 3.46724 47.2037 3.4796 47.1235 3.52216C46.7343 3.72989 46.3601 3.96674 45.9659 4.16271C45.7898 4.25061 45.7553 4.35563 45.7889 4.52418C45.8653 4.90786 45.9214 5.29695 46.0186 5.67469C46.0868 5.93904 46.2104 6.1887 46.3036 6.43097C46.3856 6.43784 46.4227 6.4475 46.4589 6.44241C46.8299 6.39267 47.2034 6.35451 47.571 6.28637C48.1138 6.18569 48.656 6.07672 49.1917 5.94358C49.506 5.86583 49.5867 5.72803 49.5995 5.40196ZM45.4229 4.028C44.7667 3.8692 44.1086 3.70399 43.4467 3.55503C43.338 3.53069 43.1804 3.53692 43.1015 3.60003C42.5663 4.02863 42.0456 4.47656 41.4685 4.9629C41.8518 5.11433 42.1535 5.27612 42.4758 5.3528C43.2743 5.54273 44.0371 5.82578 44.7939 6.13746C45.1348 6.27865 45.4981 6.37381 45.883 6.39841C45.8938 6.32411 45.9157 6.27141 45.906 6.22598C45.7525 5.5158 45.595 4.80684 45.4231 4.02826L45.4229 4.028ZM49.2347 6.40596C49.2709 6.35541 49.26 6.27126 49.2795 6.14039C49.103 6.17853 48.9937 6.20241 48.885 6.22555C48.4444 6.3191 48.0054 6.41698 47.5645 6.50386C47.2079 6.57402 46.8514 6.64419 46.4914 6.68823C46.3204 6.70883 46.2223 6.78749 46.1319 6.92008C45.8207 7.37892 45.4812 7.82041 45.1936 8.29332C44.9797 8.64389 44.8298 9.03344 44.653 9.40288C44.7267 9.46839 44.7606 9.52603 44.8005 9.52976C45.024 9.55198 45.2498 9.57454 45.4733 9.56667C45.5597 9.56341 45.6546 9.49255 45.7262 9.42966C46.0465 9.14991 46.3517 8.85066 46.6783 8.57768C47.4401 7.93915 48.2125 7.31284 48.9778 6.67779C49.0734 6.59853 49.1631 6.50685 49.2346 6.40617L49.2347 6.40596ZM48.8055 3.91602C48.6381 3.69689 48.4441 3.52139 48.2475 3.34856C48.0521 3.17603 47.9447 2.89976 47.6455 2.8078C47.6802 3.00736 47.7085 3.17395 47.7352 3.33159C48.0952 3.52837 48.4502 3.72173 48.8057 3.91607L48.8055 3.91602ZM45.0514 9.94578C45.0115 9.90228 44.9986 9.87433 44.979 9.86762C44.9196 9.84797 44.8586 9.83189 44.7971 9.82162C44.4704 9.7687 44.4077 9.79769 44.2749 10.1002C44.1894 10.2953 44.1202 10.4983 44.044 10.6978C44.0713 10.7187 44.0988 10.7392 44.1261 10.7601C44.4826 10.5458 44.7938 10.2794 45.0516 9.94583L45.0514 9.94578ZM43.3154 10.6982C43.3475 10.6785 43.3787 10.6588 43.4109 10.6384C43.1961 10.0877 42.9803 9.53642 42.7677 8.98486C42.6369 8.6447 42.5196 8.29945 42.3806 7.96324C42.1396 7.38195 41.9001 6.79971 41.6327 6.23093C41.479 5.90216 41.3223 5.54805 41.0751 5.29728C40.6933 4.90956 40.1802 4.69728 39.6378 4.459C39.6804 4.5671 39.6997 4.62647 39.7258 4.6818C39.9022 5.0565 40.0778 5.43079 40.2581 5.80313C40.5971 6.5046 40.9028 7.22548 41.2922 7.89761C41.6109 8.44936 42.0288 8.94315 42.4059 9.46025C42.7069 9.87412 43.0123 10.2858 43.3156 10.6984L43.3154 10.6982ZM43.2316 1.74511C43.2233 1.71826 43.2142 1.69188 43.2055 1.66519C42.8392 1.70111 42.4728 1.73704 42.0173 1.78194C42.17 1.94611 42.2719 2.05538 42.391 2.18417C42.6862 2.02995 42.9591 1.88748 43.2314 1.74527L43.2316 1.74511ZM40.0954 4.35484C40.4594 4.63915 40.8334 4.81908 41.1123 4.82858C40.8077 4.64083 40.5047 4.44995 40.0954 4.35484ZM39.6402 6.05352C39.7332 6.60953 40.2493 6.79574 40.5682 7.15637C40.3203 6.27413 39.8481 5.50769 39.4337 4.71307C39.3711 4.59221 39.304 4.46962 39.2686 4.34044C39.1773 4.00588 39.1409 3.95225 38.7885 3.75928C38.7896 3.78439 38.7849 3.81182 38.7931 3.83401C39.077 4.57311 39.2027 5.37369 39.6402 6.05331L39.6402 6.05352Z" fill="#DB3500"/>
<defs>
<linearGradient id="paint0_linear_209_3809" x1="47.1919" y1="27.4559" x2="49.2961" y2="27.4559" gradientUnits="userSpaceOnUse">
<stop stop-color="#FBB040"/>
<stop offset="0.9985" stop-color="#F9ED32"/>
</linearGradient>
<linearGradient id="paint1_linear_209_3809" x1="47.4913" y1="27.5408" x2="49.8009" y2="27.7518" gradientUnits="userSpaceOnUse">
<stop stop-color="#FBB040"/>
<stop offset="0.9985" stop-color="#F9ED32"/>
</linearGradient>
<linearGradient id="paint2_linear_209_3809" x1="47.7721" y1="28.2736" x2="49.737" y2="28.4531" gradientUnits="userSpaceOnUse">
<stop stop-color="#FBB040"/>
<stop offset="0.9985" stop-color="#F9ED32"/>
</linearGradient>
<linearGradient id="paint3_linear_209_3809" x1="52.8734" y1="23.4552" x2="55.5559" y2="23.4552" gradientUnits="userSpaceOnUse">
<stop offset="0.192" stop-color="#FBB040"/>
<stop offset="0.9985" stop-color="#F9ED32"/>
</linearGradient>
<linearGradient id="paint4_linear_209_3809" x1="53.7798" y1="22.9342" x2="51.1355" y2="17.1058" gradientUnits="userSpaceOnUse">
<stop stop-color="#FBB040"/>
<stop offset="0.9985" stop-color="#F9ED32"/>
</linearGradient>
<linearGradient id="paint5_linear_209_3809" x1="49.6705" y1="24.7362" x2="51.9451" y2="24.7362" gradientUnits="userSpaceOnUse">
<stop stop-color="#F0A321"/>
<stop offset="1" stop-color="#F0582E"/>
</linearGradient>
<linearGradient id="paint6_linear_209_3809" x1="47.776" y1="23.2803" x2="50.1905" y2="23.2803" gradientUnits="userSpaceOnUse">
<stop stop-color="#F0A321"/>
<stop offset="1" stop-color="#F0582E"/>
</linearGradient>
<linearGradient id="paint7_linear_209_3809" x1="48.2849" y1="24.1686" x2="50.4015" y2="25.6374" gradientUnits="userSpaceOnUse">
<stop stop-color="#F0A321"/>
<stop offset="1" stop-color="#F0582E"/>
</linearGradient>
<linearGradient id="paint8_linear_209_3809" x1="50.8084" y1="27.3632" x2="49.2164" y2="25.735" gradientUnits="userSpaceOnUse">
<stop stop-color="#F0A321"/>
<stop offset="1" stop-color="#F0582E"/>
</linearGradient>
<linearGradient id="paint9_linear_209_3809" x1="48.7834" y1="29.4281" x2="50.262" y2="29.5631" gradientUnits="userSpaceOnUse">
<stop stop-color="#FBB040"/>
<stop offset="0.9985" stop-color="#F9ED32"/>
</linearGradient>
<linearGradient id="paint10_linear_209_3809" x1="54.1086" y1="24.7919" x2="54.1138" y2="24.7919" gradientUnits="userSpaceOnUse">
<stop stop-color="#FBB040"/>
<stop offset="0.9985" stop-color="#F9ED32"/>
</linearGradient>
<linearGradient id="paint11_linear_209_3809" x1="50.3501" y1="25.9658" x2="54.1083" y2="25.9658" gradientUnits="userSpaceOnUse">
<stop offset="0.5015" stop-color="#FBB040"/>
<stop offset="0.9985" stop-color="#F9ED32"/>
</linearGradient>
<linearGradient id="paint12_linear_209_3809" x1="48.2152" y1="26.6773" x2="54.2865" y2="21.0107" gradientUnits="userSpaceOnUse">
<stop offset="0.7201" stop-color="#FBB040"/>
<stop offset="1" stop-color="#F9ED32"/>
</linearGradient>
<linearGradient id="paint13_linear_209_3809" x1="28.8855" y1="21.0997" x2="29.3579" y2="19.0492" gradientUnits="userSpaceOnUse">
<stop stop-color="#FBB040"/>
<stop offset="0.9985" stop-color="#F9ED32"/>
</linearGradient>
<linearGradient id="paint14_linear_209_3809" x1="29.0352" y1="20.8272" x2="29.7594" y2="18.6239" gradientUnits="userSpaceOnUse">
<stop stop-color="#FBB040"/>
<stop offset="0.9985" stop-color="#F9ED32"/>
</linearGradient>
<linearGradient id="paint15_linear_209_3809" x1="29.8126" y1="20.7181" x2="30.4286" y2="18.8436" gradientUnits="userSpaceOnUse">
<stop stop-color="#FBB040"/>
<stop offset="0.9985" stop-color="#F9ED32"/>
</linearGradient>
<linearGradient id="paint16_linear_209_3809" x1="26.2628" y1="14.6648" x2="26.865" y2="12.0508" gradientUnits="userSpaceOnUse">
<stop offset="0.192" stop-color="#FBB040"/>
<stop offset="0.9985" stop-color="#F9ED32"/>
</linearGradient>
<linearGradient id="paint17_linear_209_3809" x1="25.9582" y1="13.6651" x2="19.6849" y2="14.9335" gradientUnits="userSpaceOnUse">
<stop stop-color="#FBB040"/>
<stop offset="0.9985" stop-color="#F9ED32"/>
</linearGradient>
<linearGradient id="paint18_linear_209_3809" x1="26.7922" y1="18.074" x2="27.3028" y2="15.8575" gradientUnits="userSpaceOnUse">
<stop stop-color="#F0A321"/>
<stop offset="1" stop-color="#F0582E"/>
</linearGradient>
<linearGradient id="paint19_linear_209_3809" x1="24.9481" y1="19.5927" x2="25.4901" y2="17.2399" gradientUnits="userSpaceOnUse">
<stop stop-color="#F0A321"/>
<stop offset="1" stop-color="#F0582E"/>
</linearGradient>
<linearGradient id="paint20_linear_209_3809" x1="25.9283" y1="19.2964" x2="27.8348" y2="17.5636" gradientUnits="userSpaceOnUse">
<stop stop-color="#F0A321"/>
<stop offset="1" stop-color="#F0582E"/>
</linearGradient>
<linearGradient id="paint21_linear_209_3809" x1="29.607" y1="17.5545" x2="27.663" y2="18.7403" gradientUnits="userSpaceOnUse">
<stop stop-color="#F0A321"/>
<stop offset="1" stop-color="#F0582E"/>
</linearGradient>
<linearGradient id="paint22_linear_209_3809" x1="31.1644" y1="19.9914" x2="31.628" y2="18.581" gradientUnits="userSpaceOnUse">
<stop stop-color="#FBB040"/>
<stop offset="0.9985" stop-color="#F9ED32"/>
</linearGradient>
<linearGradient id="paint23_linear_209_3809" x1="27.8426" y1="13.7616" x2="27.8438" y2="13.7565" gradientUnits="userSpaceOnUse">
<stop stop-color="#FBB040"/>
<stop offset="0.9985" stop-color="#F9ED32"/>
</linearGradient>
<linearGradient id="paint24_linear_209_3809" x1="28.1427" y1="17.6871" x2="28.9864" y2="14.0248" gradientUnits="userSpaceOnUse">
<stop offset="0.5015" stop-color="#FBB040"/>
<stop offset="0.9985" stop-color="#F9ED32"/>
</linearGradient>
<linearGradient id="paint25_linear_209_3809" x1="28.3571" y1="19.9276" x2="24.1981" y2="12.7391" gradientUnits="userSpaceOnUse">
<stop offset="0.7201" stop-color="#FBB040"/>
<stop offset="1" stop-color="#F9ED32"/>
</linearGradient>
<linearGradient id="paint26_linear_209_3809" x1="18.125" y1="45.4319" x2="21.1144" y2="45.4319" gradientUnits="userSpaceOnUse">
<stop stop-color="#FBB040"/>
<stop offset="0.9985" stop-color="#F9ED32"/>
</linearGradient>
<linearGradient id="paint27_linear_209_3809" x1="18.5504" y1="45.5526" x2="21.8316" y2="45.8524" gradientUnits="userSpaceOnUse">
<stop stop-color="#FBB040"/>
<stop offset="0.9985" stop-color="#F9ED32"/>
</linearGradient>
<linearGradient id="paint28_linear_209_3809" x1="18.949" y1="46.5937" x2="21.7404" y2="46.8487" gradientUnits="userSpaceOnUse">
<stop stop-color="#FBB040"/>
<stop offset="0.9985" stop-color="#F9ED32"/>
</linearGradient>
<linearGradient id="paint29_linear_209_3809" x1="26.1971" y1="39.7484" x2="30.008" y2="39.7484" gradientUnits="userSpaceOnUse">
<stop offset="0.192" stop-color="#FBB040"/>
<stop offset="0.9985" stop-color="#F9ED32"/>
</linearGradient>
<linearGradient id="paint30_linear_209_3809" x1="27.4841" y1="39.0085" x2="23.7274" y2="30.7284" gradientUnits="userSpaceOnUse">
<stop stop-color="#FBB040"/>
<stop offset="0.9985" stop-color="#F9ED32"/>
</linearGradient>
<linearGradient id="paint31_linear_209_3809" x1="21.6461" y1="41.5684" x2="24.8774" y2="41.5684" gradientUnits="userSpaceOnUse">
<stop stop-color="#F0A321"/>
<stop offset="1" stop-color="#F0582E"/>
</linearGradient>
<linearGradient id="paint32_linear_209_3809" x1="18.9557" y1="39.5001" x2="22.3858" y2="39.5001" gradientUnits="userSpaceOnUse">
<stop stop-color="#F0A321"/>
<stop offset="1" stop-color="#F0582E"/>
</linearGradient>
<linearGradient id="paint33_linear_209_3809" x1="19.6783" y1="40.7625" x2="22.6851" y2="42.8491" gradientUnits="userSpaceOnUse">
<stop stop-color="#F0A321"/>
<stop offset="1" stop-color="#F0582E"/>
</linearGradient>
<linearGradient id="paint34_linear_209_3809" x1="23.2631" y1="45.3003" x2="21.0014" y2="42.9872" gradientUnits="userSpaceOnUse">
<stop stop-color="#F0A321"/>
<stop offset="1" stop-color="#F0582E"/>
</linearGradient>
<linearGradient id="paint35_linear_209_3809" x1="20.3859" y1="48.2338" x2="22.4863" y2="48.4257" gradientUnits="userSpaceOnUse">
<stop stop-color="#FBB040"/>
<stop offset="0.9985" stop-color="#F9ED32"/>
</linearGradient>
<linearGradient id="paint36_linear_209_3809" x1="27.9515" y1="41.648" x2="27.959" y2="41.648" gradientUnits="userSpaceOnUse">
<stop stop-color="#FBB040"/>
<stop offset="0.9985" stop-color="#F9ED32"/>
</linearGradient>
<linearGradient id="paint37_linear_209_3809" x1="22.6122" y1="43.3155" x2="27.9513" y2="43.3155" gradientUnits="userSpaceOnUse">
<stop offset="0.5015" stop-color="#FBB040"/>
<stop offset="0.9985" stop-color="#F9ED32"/>
</linearGradient>
<linearGradient id="paint38_linear_209_3809" x1="19.579" y1="44.3261" x2="28.2042" y2="36.276" gradientUnits="userSpaceOnUse">
<stop offset="0.7201" stop-color="#FBB040"/>
<stop offset="1" stop-color="#F9ED32"/>
</linearGradient>
<clipPath id="clip0_209_3809">
<rect width="24.9936" height="14.1989" fill="white" transform="matrix(-0.250467 0.968125 0.968125 0.250467 47.9014 9.46191)"/>
</clipPath>
<clipPath id="clip1_209_3809">
<rect width="24.9936" height="14.1989" fill="white" transform="matrix(0.887185 0.461414 0.461414 -0.887185 11.5093 16.3687)"/>
</clipPath>
<clipPath id="clip2_209_3809">
<rect width="6.08007" height="4.39944" fill="white" transform="translate(46.29 14.8853) rotate(111.757)"/>
</clipPath>
<clipPath id="clip3_209_3809">
<rect width="35.0532" height="28.587" fill="white" transform="translate(7.8042 23.3389) rotate(15.1379)"/>
</clipPath>
</defs>
</svg>
