<svg width="58" height="61" viewBox="0 0 58 61" fill="none" xmlns="http://www.w3.org/2000/svg">
<path d="M16.879 59.277C16.7028 59.2811 16.5235 59.2465 16.2038 59.2191C13.8542 54.4568 11.7393 49.5025 8.69914 45.04C7.37733 43.0969 6.06678 41.1436 4.8044 39.1639C3.51844 37.1476 2.29602 35.0947 0.935263 32.8772C2.32881 32.6953 3.00714 32.0804 3.59427 30.9381C5.04109 28.1291 5.98482 25.1789 6.79942 22.1646C7.03202 21.3028 7.48492 20.7926 8.24215 20.2611C10.9124 18.382 13.4813 16.3566 16.0573 14.3505C18.2552 12.6431 20.4326 10.9093 22.5833 9.1461C25.4391 6.80765 28.2764 4.44988 31.0829 2.05147C31.5369 1.66224 31.7664 1.01487 32.2695 0.217092C32.5984 0.191683 33.1323 0.144933 33.7973 0.0900553C33.8956 1.9346 35.3312 2.98035 36.3138 4.27814C39.4524 8.42455 42.7118 12.4754 45.8545 16.6188C48.0442 19.507 50.1724 22.4482 52.231 25.435C53.4974 27.2724 54.5569 29.2471 55.7568 31.1312C56.2753 31.9453 56.9055 32.6861 57.4916 33.4565C58.0234 34.1536 58.134 34.7644 57.5131 35.5531C56.1032 37.3549 54.8008 39.2421 53.4513 41.0938C52.065 42.9912 50.6315 44.8571 49.3014 46.7921C47.9069 48.8134 46.5799 50.8826 45.2796 52.9659C44.5552 54.1276 44.1494 55.5503 43.2334 56.5117C42.0181 57.7912 40.518 58.8532 38.9933 59.775C38.3457 60.1663 37.3149 60.1226 36.4952 60.0067C29.9794 59.0971 23.4338 59.1429 16.8811 59.275L16.879 59.277ZM16.0665 56.2699C16.2304 56.2902 16.3933 56.3075 16.5573 56.3268C17.2469 55.1448 17.9918 53.9944 18.6097 52.779C19.5063 51.0198 20.3117 49.2128 21.1591 47.4262C22.1468 45.3479 22.1192 45.2626 20.0842 44.1772C19.9243 44.0938 19.7758 43.9851 19.6221 43.8896C16.3421 41.8712 13.0652 39.8631 9.43895 38.4677C8.09664 37.9504 6.87319 37.1354 5.59032 36.4667C5.32493 36.3305 5.03085 36.2411 4.40273 35.9961C8.75448 42.7859 13.2661 49.0421 16.0655 56.2699L16.0665 56.2699ZM17.3821 57.7028C17.4938 57.8532 17.6055 58.0036 17.7193 58.1571C19.701 58.1642 21.6827 58.1744 23.6644 58.1855C24.5753 58.1906 25.4842 58.1744 26.393 58.2079C29.9035 58.337 33.413 58.5199 36.9266 58.6043C38.4482 58.6439 38.4964 58.5626 38.7853 56.9975C39.2229 54.6377 39.5876 52.2607 40.0016 49.8958C40.4063 47.5909 40.8541 45.2951 41.2353 42.9851C41.39 42.0521 41.4197 41.1009 41.5212 40.0003C37.4758 40.0409 34.0227 41.9353 30.2775 42.5257C28.0868 42.8743 25.9576 43.6121 23.9759 44.1284C21.7175 48.7758 19.5462 53.2393 17.3801 57.7028L17.3821 57.7028ZM13.6442 38.6303C13.5765 38.7269 13.511 38.8255 13.4444 38.922C14.9414 39.7696 16.4323 40.6253 17.9365 41.4566C18.7296 41.8916 19.5175 42.3591 20.3567 42.6792C21.4931 43.1131 21.6161 42.9749 21.738 41.5704C19.036 40.5877 16.3401 39.607 13.6452 38.6293L13.6442 38.6303ZM4.98884 33.7674C7.48902 35.6161 17.3125 39.1334 22.3466 40.0216C22.4481 39.8804 22.5895 39.7503 22.6551 39.5877C24.3663 35.426 26.0692 31.2603 27.7722 27.0936C28.6791 24.876 29.592 22.6606 30.4774 20.4359C30.629 20.0518 30.6977 19.628 30.7448 19.2174C31.1383 15.571 31.543 11.9236 31.8955 8.27414C32.0482 6.70602 32.084 5.12774 32.1926 3.21003C31.4518 3.85333 31.0399 4.20293 30.6372 4.56473C27.2128 7.65523 24.4206 11.3108 21.3978 14.761C20.2502 16.073 19.2665 17.5253 18.1035 18.8221C16.8186 20.2601 15.3359 21.5294 14.0766 22.9898C11.0046 26.5448 8.01365 30.1698 4.98781 33.7695L4.98884 33.7674ZM7.54025 24.0396C6.66621 26.3842 5.89567 28.7653 5.02061 31.3081C11.2854 24.1464 17.9365 17.4938 23.6193 9.98758C21.864 11.1065 20.1928 12.3057 18.5933 13.5913C15.7652 15.8667 13.0581 18.3048 10.1398 20.4583C8.81801 21.4349 8.06283 22.6321 7.54025 24.0407L7.54025 24.0396ZM24.2443 38.5704C23.7361 39.8651 23.0516 41.1822 23.3272 42.9688C29.2785 41.6731 34.9787 39.9789 41.1861 38.4291C39.0026 35.2106 36.9922 32.4412 35.2062 29.5408C34.1579 27.8344 32.8228 27.6302 31.0102 27.7531C29.3728 27.8608 28.4618 28.5468 27.8747 29.9574C26.6748 32.8335 25.3735 35.6679 24.2443 38.5704ZM39.8407 57.4396C41.3613 56.6317 42.0028 55.7099 42.0294 54.3776C42.0417 53.8369 42.0591 53.2973 42.055 52.7546C42.0345 50.783 42.3655 48.7951 41.6359 46.8134C41.056 50.2474 40.4781 53.6784 39.8407 57.4406L39.8407 57.4396ZM43.2457 53.2332C43.3809 53.279 43.5152 53.3257 43.6514 53.3735C45.5706 50.5076 47.3689 47.5543 49.4388 44.8052C51.7289 41.7605 54.7875 37.2482 55.0662 35.8356C51.3897 36.8823 47.7931 37.8844 44.2201 38.9677C43.8062 39.0948 43.4219 39.6395 43.2354 40.0796C43.0582 40.4901 43.134 41.0216 43.1401 41.4983C43.1893 44.3621 43.2621 47.228 43.3031 50.0909C43.3174 51.1387 43.2662 52.1865 43.2447 53.2332L43.2457 53.2332ZM29.383 26.0437L29.6617 26.4818C30.2448 26.3405 30.8309 26.1972 31.5082 26.0336C31.2704 25.311 31.0983 24.7998 30.8237 23.9644C30.214 24.8425 29.8 25.4441 29.383 26.0437ZM39.6153 33.678C40.6441 35.1608 41.6534 36.6577 42.7282 38.2299C47.3884 36.9504 51.7811 35.8285 56.3747 34.3833C55.3418 33.0398 54.476 31.9585 53.6614 30.8446C52.3088 28.996 50.6458 27.3151 49.9521 25.0895C49.3383 23.127 48.0708 21.5975 46.9294 19.9796C45.8524 18.4542 44.6843 16.9897 43.4937 15.5497C40.4893 11.9205 37.4512 8.31682 34.4182 4.70904C34.1661 4.41025 33.8475 4.17041 33.3259 3.68057C33.1271 5.73446 32.9529 7.4977 32.7849 9.25891C32.5482 11.7711 32.3494 14.2874 32.0666 16.7956C31.7572 19.5213 30.9528 22.311 33.4233 24.5539C33.5503 24.6697 33.5872 24.8771 33.6866 25.0305C34.619 26.4381 35.5371 27.8558 36.4962 29.2471C37.5178 30.7349 38.5865 32.1953 39.6153 33.677L39.6153 33.678Z" fill="#DB3500"/>
<path d="M16.5575 56.3267C16.3936 56.3074 16.2307 56.2891 16.0667 56.2697C13.2674 49.042 8.75576 42.7858 4.40401 35.996C5.03213 36.241 5.32621 36.3304 5.5916 36.4666C6.87448 37.1353 8.09792 37.9503 9.44023 38.4676C13.0675 39.863 16.3434 41.8711 19.6233 43.8895C19.777 43.985 19.9256 44.0937 20.0855 44.1771C22.1204 45.2624 22.1481 45.3478 21.1603 47.4261C20.3119 49.2127 19.5065 51.0207 18.611 52.7788C17.9921 53.9933 17.2482 55.1447 16.5586 56.3267L16.5575 56.3267Z" fill="#FF820F"/>
<path d="M17.7195 58.1563C17.6057 58.0038 17.494 57.8524 17.3824 57.702C19.5485 53.2385 21.7198 48.775 23.9781 44.1276C25.9598 43.6113 28.0891 42.8735 30.2798 42.5249C34.0249 41.9345 37.4781 40.0401 41.5234 39.9995C41.422 41.1001 41.3923 42.0523 41.2376 42.9843C40.8564 45.2943 40.4076 47.59 40.0039 49.895C39.5889 52.2609 39.2251 54.6369 38.7876 56.9967C38.4986 58.5618 38.4515 58.6431 36.9288 58.6034C33.4142 58.5191 29.9048 58.3362 26.3953 58.2071C25.4864 58.1736 24.5775 58.1898 23.6666 58.1847C21.6849 58.1736 19.7032 58.1624 17.7215 58.1563L17.7195 58.1563Z" fill="#FFA02D"/>
<path d="M13.4447 38.9212C13.5123 38.8246 13.5779 38.7261 13.6445 38.6295C16.3384 39.6072 19.0353 40.5869 21.7373 41.5706C21.6164 42.9751 21.4934 43.1133 20.3561 42.6794C19.5169 42.3582 18.7299 41.8918 17.9358 41.4568C16.4326 40.6255 14.9407 39.7698 13.4437 38.9222L13.4447 38.9212Z" fill="#F54F00"/>
<path d="M22.3468 40.0205C17.3127 39.1323 7.48818 35.616 4.98903 33.7663C8.01486 30.1657 11.0069 26.5416 14.0778 22.9867C15.3371 21.5263 16.8198 20.257 18.1047 18.8189C19.2677 17.5222 20.2514 16.0699 21.399 14.7579C24.4218 11.3076 27.214 7.65309 30.6384 4.56157C31.0411 4.19978 31.453 3.85018 32.1939 3.20688C32.0852 5.1246 32.0483 6.70388 31.8967 8.27098C31.5442 11.9204 31.1395 15.5679 30.746 19.2143C30.6989 19.6259 30.6302 20.0486 30.4786 20.4328C29.5922 22.6574 28.6803 24.8729 27.7735 27.0904C26.0705 31.2571 24.3675 35.4239 22.6563 39.5845C22.5907 39.7481 22.4493 39.8772 22.3479 40.0185L22.3468 40.0205Z" fill="#FF6500"/>
<path d="M5.02193 31.3071C5.897 28.7644 6.66755 26.3843 7.54158 24.0387C8.06519 22.6302 8.81934 21.434 10.1412 20.4563C13.0594 18.3028 15.7655 15.8648 18.5946 13.5893C20.1952 12.3038 21.8654 11.1046 23.6206 9.98563C17.9378 17.4919 11.2867 24.1454 5.02193 31.3061L5.02193 31.3071Z" fill="#E84200"/>
<path d="M23.3286 42.9687C23.053 41.1821 23.7375 39.864 24.2457 38.5703C25.3759 35.6678 26.6762 32.8334 27.8761 29.9574C28.4622 28.5468 29.3742 27.8618 31.0116 27.753C32.8252 27.6301 34.1593 27.8333 35.2076 29.5407C36.9936 32.4411 39.0039 35.2105 41.1875 38.429C34.9801 39.9789 29.2799 41.673 23.3286 42.9687Z" fill="#FFC24F"/>
<path d="M42.0295 54.3774C42.0029 55.7097 41.3615 56.6315 39.8409 57.4395C40.4782 53.6772 41.0571 50.2473 41.6361 46.8122C42.3646 48.795 42.0336 50.7818 42.0552 52.7534C42.0593 53.2961 42.0429 53.8367 42.0295 54.3764L42.0295 54.3774Z" fill="#F54F00"/>
<path d="M43.6526 53.3735C43.5163 53.3248 43.381 53.279 43.2468 53.2333C43.2673 52.1855 43.3185 51.1387 43.3052 50.091C43.2642 47.2281 43.1915 44.3622 43.1423 41.4983C43.1351 41.0217 43.0603 40.4912 43.2376 40.0796C43.4231 39.6396 43.8073 39.0948 44.2223 38.9678C47.7953 37.8855 51.3919 36.8834 55.0684 35.8356C54.7897 37.2483 51.731 41.7615 49.4409 44.8053C47.3711 47.5543 45.5718 50.5076 43.6536 53.3735L43.6526 53.3735Z" fill="#FF820F"/>
<path d="M29.6628 26.4819L29.3841 26.0439C29.8022 25.4433 30.2151 24.8427 30.8248 23.9646C31.0994 24.8 31.2716 25.3112 31.5093 26.0338C30.832 26.1974 30.2459 26.3407 29.6628 26.4819Z" fill="#F54F00"/>
<path d="M42.7285 38.2299C41.6537 36.6578 40.6444 35.1608 39.6156 33.678C38.5868 32.1953 37.5181 30.7359 36.4965 29.2481C35.5374 27.8568 34.6193 26.4391 33.6869 25.0315C33.5885 24.8781 33.5516 24.6718 33.4236 24.5549C30.9531 22.312 31.7575 19.5223 32.0669 16.7966C32.3487 14.2885 32.5475 11.7722 32.7852 9.25993C32.9532 7.49872 33.1274 5.73548 33.3262 3.68159C33.8478 4.17042 34.1664 4.41128 34.4185 4.71006C37.4515 8.31784 40.4896 11.9216 43.494 15.5507C44.6846 16.9897 45.8527 18.4542 46.9296 19.9806C48.0701 21.5986 49.3376 23.1281 49.9524 25.0905C50.6461 27.3161 52.3091 28.9971 53.6617 30.8457C54.4763 31.9595 55.3421 33.0418 56.375 34.3843C51.7804 35.8295 47.3887 36.9515 42.7285 38.231L42.7285 38.2299Z" fill="#F54F00"/>
</svg>
